<?xml version="1.0" encoding="us-ascii" standalone="no"?><svg xmlns="http://www.w3.org/2000/svg" xmlns:xlink="http://www.w3.org/1999/xlink" contentStyleType="text/css" height="544px" preserveAspectRatio="none" style="width:1026px;height:544px;background:#FFFFFF;" version="1.1" viewBox="0 0 1026 544" width="1026px" zoomAndPan="magnify"><defs/><g><!--cluster Application--><g id="cluster_Application"><rect fill="none" height="503" rx="2.5" ry="2.5" style="stroke:#181818;stroke-width:1.0;" width="952" x="68" y="7"/><text fill="#000000" font-family="sans-serif" font-size="14" font-weight="bold" lengthAdjust="spacing" textLength="93" x="497.5" y="21.9951">Application</text></g><!--cluster Client--><g id="cluster_Client"><rect fill="none" height="189" rx="2.5" ry="2.5" style="stroke:#181818;stroke-width:1.0;" width="413" x="103" y="58"/><text fill="#000000" font-family="sans-serif" font-size="14" font-weight="bold" lengthAdjust="spacing" textLength="47" x="286" y="72.9951">Client</text></g><!--cluster Order--><g id="cluster_Order"><rect fill="none" height="191" rx="2.5" ry="2.5" style="stroke:#181818;stroke-width:1.0;" width="419" x="100" y="287"/><text fill="#000000" font-family="sans-serif" font-size="14" font-weight="bold" lengthAdjust="spacing" textLength="45" x="287" y="301.9951">Order</text></g><!--cluster Storage--><g id="cluster_Storage"><rect fill="none" height="193" rx="2.5" ry="2.5" style="stroke:#181818;stroke-width:1.0;" width="429" x="559" y="172"/><text fill="#000000" font-family="sans-serif" font-size="14" font-weight="bold" lengthAdjust="spacing" textLength="64" x="741.5" y="186.9951">Storage</text></g><g id="elem_UC1"><ellipse cx="201.6066" cy="185.8213" fill="#F1F1F1" rx="74.6066" ry="17.3213" style="stroke:#181818;stroke-width:0.5;"/><text fill="#000000" font-family="sans-serif" font-size="14" lengthAdjust="spacing" textLength="105" x="146.1066" y="189.5689">Modify a client</text></g><g id="elem_UC2"><ellipse cx="201.6678" cy="116.8336" fill="#F1F1F1" rx="67.1678" ry="15.8336" style="stroke:#181818;stroke-width:0.5;"/><text fill="#000000" font-family="sans-serif" font-size="14" lengthAdjust="spacing" textLength="85" x="156.1678" y="120.5811">Add a client</text></g><g id="elem_UC3"><ellipse cx="416.9948" cy="186.899" fill="#F1F1F1" rx="74.9948" ry="17.399" style="stroke:#181818;stroke-width:0.5;"/><text fill="#000000" font-family="sans-serif" font-size="14" lengthAdjust="spacing" textLength="106" x="360.9948" y="190.6465">Delete a client</text></g><g id="elem_UC4"><ellipse cx="416.8288" cy="117.7658" fill="#F1F1F1" rx="69.3288" ry="16.2658" style="stroke:#181818;stroke-width:0.5;"/><text fill="#000000" font-family="sans-serif" font-size="14" lengthAdjust="spacing" textLength="91" x="368.3288" y="121.5133">View a client</text></g><g id="elem_UC5"><ellipse cx="201.3536" cy="416.8707" fill="#F1F1F1" rx="77.3536" ry="17.8707" style="stroke:#181818;stroke-width:0.5;"/><text fill="#000000" font-family="sans-serif" font-size="14" lengthAdjust="spacing" textLength="112" x="142.6333" y="420.5454">Modify an order</text></g><g id="elem_UC6"><ellipse cx="201.6952" cy="346.839" fill="#F1F1F1" rx="69.6952" ry="16.339" style="stroke:#181818;stroke-width:0.5;"/><text fill="#000000" font-family="sans-serif" font-size="14" lengthAdjust="spacing" textLength="92" x="152.6952" y="350.5866">Add an order</text></g><g id="elem_UC7"><ellipse cx="416.7532" cy="416.9506" fill="#F1F1F1" rx="77.7532" ry="17.9506" style="stroke:#181818;stroke-width:0.5;"/><text fill="#000000" font-family="sans-serif" font-size="14" lengthAdjust="spacing" textLength="113" x="357.6994" y="420.5809">Delete an order</text></g><g id="elem_UC8"><ellipse cx="416.9293" cy="346.7859" fill="#F1F1F1" rx="71.9293" ry="16.7859" style="stroke:#181818;stroke-width:0.5;"/><text fill="#000000" font-family="sans-serif" font-size="14" lengthAdjust="spacing" textLength="98" x="364.9293" y="350.5334">View an order</text></g><g id="elem_UC9"><ellipse cx="663.1963" cy="302.9393" fill="#F1F1F1" rx="80.1963" ry="18.4393" style="stroke:#181818;stroke-width:0.5;"/><text fill="#000000" font-family="sans-serif" font-size="14" lengthAdjust="spacing" textLength="119" x="602.1039" y="306.2979">Modify an article</text></g><g id="elem_UC10"><ellipse cx="662.8073" cy="231.8615" fill="#F1F1F1" rx="72.3073" ry="16.8615" style="stroke:#181818;stroke-width:0.5;"/><text fill="#000000" font-family="sans-serif" font-size="14" lengthAdjust="spacing" textLength="99" x="610.3073" y="235.609">Add an article</text></g><g id="elem_UC11"><ellipse cx="883.6107" cy="304.0221" fill="#F1F1F1" rx="80.6107" ry="18.5221" style="stroke:#181818;stroke-width:0.5;"/><text fill="#000000" font-family="sans-serif" font-size="14" lengthAdjust="spacing" textLength="120" x="822.1726" y="307.3348">Delete an article</text></g><g id="elem_UC12"><ellipse cx="883.6066" cy="232.8213" fill="#F1F1F1" rx="74.6066" ry="17.3213" style="stroke:#181818;stroke-width:0.5;"/><text fill="#000000" font-family="sans-serif" font-size="14" lengthAdjust="spacing" textLength="105" x="828.1066" y="236.5689">View an article</text></g><!--entity ad--><g id="elem_ad"><ellipse cx="29" cy="440.5" fill="#F1F1F1" rx="8" ry="8" style="stroke:#181818;stroke-width:0.5;"/><path d="M29,448.5 L29,475.5 M16,456.5 L42,456.5 M29,475.5 L16,490.5 M29,475.5 L42,490.5 " fill="none" style="stroke:#181818;stroke-width:0.5;"/><text fill="#000000" font-family="sans-serif" font-size="14" lengthAdjust="spacing" textLength="46" x="6" y="504.9951">Admin</text></g><!--link ad to Client--><g id="link_ad_Client"><path d="M33.5594,431.821 C37.9391,391.826 46.4991,332.315 60,314 C80.6722,285.9565 115.0313,267.3498 144.5962,255.6839 C151.9874,252.7674 159.079,250.2847 165.5822,248.1969 C166.3951,247.9359 167.1989,247.6811 167.9928,247.4324 C168.3898,247.308 163.0525,248.959 163.4445,248.8377 " fill="none" id="ad-to-Client" style="stroke:#181818;stroke-width:1.0;"/><polygon fill="#181818" points="169.1763,247.0638,159.3961,245.9035,164.3998,248.5421,161.7612,253.5458,169.1763,247.0638" style="stroke:#181818;stroke-width:1.0;"/></g><!--link ad to Storage--><g id="link_ad_Storage"><path d="M52.1244,483.3064 C54.7096,484.403 57.3658,485.3414 60,486 C265.363,537.3408 338.934,530.7986 535,451 C567.0135,437.9705 598.2793,414.9955 621.7781,395.0215 C633.5276,385.0345 643.3353,375.7978 650.3239,368.9296 C651.1975,368.071 652.027,367.2495 652.8108,366.4682 C653.2026,366.0775 653.5831,365.6969 653.9519,365.3267 C654.0441,365.2341 649.9046,369.3965 649.9953,369.3053 " fill="none" id="ad-to-Storage" style="stroke:#181818;stroke-width:1.0;"/><polygon fill="#181818" points="654.2263,365.051,645.0436,368.6118,650.7005,368.5963,650.716,374.2531,654.2263,365.051" style="stroke:#181818;stroke-width:1.0;"/></g><!--link ad to Order--><g id="link_ad_Order"><path d="M52.2899,470 C63.6634,470 78.4149,470 94.193,470 C95.1791,470 96.1692,470 97.1628,470 C97.6596,470 98.1573,470 98.6557,470 C98.9049,470 93.1543,470 93.4039,470 " fill="none" id="ad-to-Order" style="stroke:#181818;stroke-width:1.0;"/><polygon fill="#181818" points="99.4039,470,90.4039,466,94.4039,470,90.4039,474,99.4039,470" style="stroke:#181818;stroke-width:1.0;"/></g><!--SRC=[TP5D2y8m38Rl_HLXTy7vxKKOyoeUHE-XZJDGM-ag8k9_TniJjwuUSaZU9-KXrNJsu2quBYuU53kIdgqHABrra6JgoYO1B06Lg3CqXIR8RZVD4ciINfrvhfcCVmc0UqaIIu9aPnMVdu0WcwnvwvYdNIHJAimdtNnBcZo5oBIBd9WU8J2hW7TLFxszK-IYTWPidRMRyu5TFr_4xFh8ScZN1rO3kqDrSIpeZnywpr9JkxsE6FQ9T1oN3AWqvXamaqRrBGGg68qsxIz_krRxspOt_W00]--></g></svg>