<?xml version="1.0" encoding="UTF-8" standalone="no"?><svg xmlns="http://www.w3.org/2000/svg" xmlns:xlink="http://www.w3.org/1999/xlink" contentStyleType="text/css" height="1125px" preserveAspectRatio="none" style="width:840px;height:1125px;background:#FFFFFF;" version="1.1" viewBox="0 0 840 1125" width="840px" zoomAndPan="magnify"><defs/><g><rect fill="#FFFFFF" height="1032.25" style="stroke:#181818;stroke-width:1.0;" width="10" x="56" y="47.6094"/><rect fill="#FFFFFF" height="1032.25" style="stroke:#181818;stroke-width:1.0;" width="10" x="345" y="47.6094"/><rect fill="#FFFFFF" height="30.3516" style="stroke:#181818;stroke-width:1.0;" width="10" x="682" y="125.6641"/><rect fill="#FFFFFF" height="30.3516" style="stroke:#181818;stroke-width:1.0;" width="10" x="682" y="383.4766"/><rect fill="#FFFFFF" height="30.3516" style="stroke:#181818;stroke-width:1.0;" width="10" x="682" y="641.2891"/><rect fill="#FFFFFF" height="30.3516" style="stroke:#181818;stroke-width:1.0;" width="10" x="682" y="899.1016"/><rect fill="#FFFFFF" height="1032.25" style="stroke:#181818;stroke-width:1.0;" width="10" x="782" y="47.6094"/><rect fill="none" height="243.8125" style="stroke:#000000;stroke-width:1.5;" width="824.5" x="10" y="54.6094"/><rect fill="none" height="243.8125" style="stroke:#000000;stroke-width:1.5;" width="824.5" x="10" y="312.4219"/><rect fill="none" height="243.8125" style="stroke:#000000;stroke-width:1.5;" width="824.5" x="10" y="570.2344"/><rect fill="none" height="243.8125" style="stroke:#000000;stroke-width:1.5;" width="824.5" x="10" y="828.0469"/><line style="stroke:#181818;stroke-width:0.5;stroke-dasharray:5.0,5.0;" x1="61" x2="61" y1="37.6094" y2="1088.8594"/><line style="stroke:#181818;stroke-width:0.5;stroke-dasharray:5.0,5.0;" x1="350" x2="350" y1="37.6094" y2="1088.8594"/><line style="stroke:#181818;stroke-width:0.5;stroke-dasharray:5.0,5.0;" x1="686.5" x2="686.5" y1="37.6094" y2="1088.8594"/><line style="stroke:#181818;stroke-width:0.5;stroke-dasharray:5.0,5.0;" x1="786.5" x2="786.5" y1="37.6094" y2="1088.8594"/><rect fill="#E2E2F0" height="31.6094" rx="2.5" ry="2.5" style="stroke:#181818;stroke-width:0.5;" width="82" x="20" y="5"/><text fill="#000000" font-family="sans-serif" font-size="14" lengthAdjust="spacing" textLength="68" x="27" y="26.5332">Formulaire</text><rect fill="#E2E2F0" height="31.6094" rx="2.5" ry="2.5" style="stroke:#181818;stroke-width:0.5;" width="82" x="20" y="1087.8594"/><text fill="#000000" font-family="sans-serif" font-size="14" lengthAdjust="spacing" textLength="68" x="27" y="1109.3926">Formulaire</text><rect fill="#E2E2F0" height="31.6094" rx="2.5" ry="2.5" style="stroke:#181818;stroke-width:0.5;" width="98" x="301" y="5"/><text fill="#000000" font-family="sans-serif" font-size="14" lengthAdjust="spacing" textLength="84" x="308" y="26.5332">OrderService</text><rect fill="#E2E2F0" height="31.6094" rx="2.5" ry="2.5" style="stroke:#181818;stroke-width:0.5;" width="98" x="301" y="1087.8594"/><text fill="#000000" font-family="sans-serif" font-size="14" lengthAdjust="spacing" textLength="84" x="308" y="1109.3926">OrderService</text><rect fill="#E2E2F0" height="31.6094" rx="2.5" ry="2.5" style="stroke:#181818;stroke-width:0.5;" width="105" x="634.5" y="5"/><text fill="#000000" font-family="sans-serif" font-size="14" lengthAdjust="spacing" textLength="91" x="641.5" y="26.5332">OrderMapping</text><rect fill="#E2E2F0" height="31.6094" rx="2.5" ry="2.5" style="stroke:#181818;stroke-width:0.5;" width="105" x="634.5" y="1087.8594"/><text fill="#000000" font-family="sans-serif" font-size="14" lengthAdjust="spacing" textLength="91" x="641.5" y="1109.3926">OrderMapping</text><rect fill="#E2E2F0" height="31.6094" rx="2.5" ry="2.5" style="stroke:#181818;stroke-width:0.5;" width="75" x="749.5" y="5"/><text fill="#000000" font-family="sans-serif" font-size="14" lengthAdjust="spacing" textLength="61" x="756.5" y="26.5332">Database</text><rect fill="#E2E2F0" height="31.6094" rx="2.5" ry="2.5" style="stroke:#181818;stroke-width:0.5;" width="75" x="749.5" y="1087.8594"/><text fill="#000000" font-family="sans-serif" font-size="14" lengthAdjust="spacing" textLength="61" x="756.5" y="1109.3926">Database</text><rect fill="#FFFFFF" height="1032.25" style="stroke:#181818;stroke-width:1.0;" width="10" x="56" y="47.6094"/><rect fill="#FFFFFF" height="1032.25" style="stroke:#181818;stroke-width:1.0;" width="10" x="345" y="47.6094"/><rect fill="#FFFFFF" height="30.3516" style="stroke:#181818;stroke-width:1.0;" width="10" x="682" y="125.6641"/><rect fill="#FFFFFF" height="30.3516" style="stroke:#181818;stroke-width:1.0;" width="10" x="682" y="383.4766"/><rect fill="#FFFFFF" height="30.3516" style="stroke:#181818;stroke-width:1.0;" width="10" x="682" y="641.2891"/><rect fill="#FFFFFF" height="30.3516" style="stroke:#181818;stroke-width:1.0;" width="10" x="682" y="899.1016"/><rect fill="#FFFFFF" height="1032.25" style="stroke:#181818;stroke-width:1.0;" width="10" x="782" y="47.6094"/><path d="M10,54.6094 L193,54.6094 L193,62.9609 L183,72.9609 L10,72.9609 L10,54.6094 " fill="#EEEEEE" style="stroke:#000000;stroke-width:1.5;"/><rect fill="none" height="243.8125" style="stroke:#000000;stroke-width:1.5;" width="824.5" x="10" y="54.6094"/><text fill="#000000" font-family="sans-serif" font-size="13" font-weight="bold" lengthAdjust="spacing" textLength="138" x="25" y="69.1045">Créer une commande</text><polygon fill="#181818" points="333,91.3125,343,95.3125,333,99.3125,337,95.3125" style="stroke:#181818;stroke-width:1.0;"/><line style="stroke:#181818;stroke-width:1.0;" x1="66" x2="339" y1="95.3125" y2="95.3125"/><text fill="#000000" font-family="sans-serif" font-size="13" lengthAdjust="spacing" textLength="255" x="73" y="90.4561">createOrder(datePaiement, dateEmission...)</text><polygon fill="#181818" points="670,121.6641,680,125.6641,670,129.6641,674,125.6641" style="stroke:#181818;stroke-width:1.0;"/><line style="stroke:#181818;stroke-width:1.0;" x1="355" x2="676" y1="125.6641" y2="125.6641"/><text fill="#000000" font-family="sans-serif" font-size="13" lengthAdjust="spacing" textLength="251" x="362" y="120.8076">insertOrder(datePaiement, dateEmission...)</text><polygon fill="#181818" points="366,152.0156,356,156.0156,366,160.0156,362,156.0156" style="stroke:#181818;stroke-width:1.0;"/><line style="stroke:#181818;stroke-width:1.0;" x1="360" x2="686" y1="156.0156" y2="156.0156"/><text fill="#000000" font-family="sans-serif" font-size="13" lengthAdjust="spacing" textLength="86" x="372" y="151.1592">Request^ order</text><polygon fill="#181818" points="770,182.3672,780,186.3672,770,190.3672,774,186.3672" style="stroke:#181818;stroke-width:1.0;"/><line style="stroke:#181818;stroke-width:1.0;" x1="355" x2="776" y1="186.3672" y2="186.3672"/><text fill="#000000" font-family="sans-serif" font-size="13" lengthAdjust="spacing" textLength="174" x="362" y="181.5107">insertRequest(Request^ order)</text><polygon fill="#181818" points="366,212.7188,356,216.7188,366,220.7188,362,216.7188" style="stroke:#181818;stroke-width:1.0;"/><line style="stroke:#181818;stroke-width:1.0;" x1="360" x2="781" y1="216.7188" y2="216.7188"/><text fill="#000000" font-family="sans-serif" font-size="13" lengthAdjust="spacing" textLength="71" x="372" y="211.8623">int response</text><polygon fill="#181818" points="77,243.0703,67,247.0703,77,251.0703,73,247.0703" style="stroke:#181818;stroke-width:1.0;"/><line style="stroke:#181818;stroke-width:1.0;" x1="71" x2="344" y1="247.0703" y2="247.0703"/><text fill="#000000" font-family="sans-serif" font-size="13" lengthAdjust="spacing" textLength="71" x="83" y="242.2139">int response</text><line style="stroke:#181818;stroke-width:1.0;" x1="66" x2="108" y1="277.4219" y2="277.4219"/><line style="stroke:#181818;stroke-width:1.0;" x1="108" x2="108" y1="277.4219" y2="290.4219"/><line style="stroke:#181818;stroke-width:1.0;" x1="67" x2="108" y1="290.4219" y2="290.4219"/><polygon fill="#181818" points="77,286.4219,67,290.4219,77,294.4219,73,290.4219" style="stroke:#181818;stroke-width:1.0;"/><text fill="#000000" font-family="sans-serif" font-size="13" lengthAdjust="spacing" textLength="96" x="73" y="272.5654">updateInterface()</text><path d="M10,312.4219 L210,312.4219 L210,320.7734 L200,330.7734 L10,330.7734 L10,312.4219 " fill="#EEEEEE" style="stroke:#000000;stroke-width:1.5;"/><rect fill="none" height="243.8125" style="stroke:#000000;stroke-width:1.5;" width="824.5" x="10" y="312.4219"/><text fill="#000000" font-family="sans-serif" font-size="13" font-weight="bold" lengthAdjust="spacing" textLength="155" x="25" y="326.917">Modifier une commande</text><polygon fill="#181818" points="333,349.125,343,353.125,333,357.125,337,353.125" style="stroke:#181818;stroke-width:1.0;"/><line style="stroke:#181818;stroke-width:1.0;" x1="66" x2="339" y1="353.125" y2="353.125"/><text fill="#000000" font-family="sans-serif" font-size="13" lengthAdjust="spacing" textLength="209" x="73" y="348.2686">updateOrder(Datatype::Order^ order)</text><polygon fill="#181818" points="670,379.4766,680,383.4766,670,387.4766,674,383.4766" style="stroke:#181818;stroke-width:1.0;"/><line style="stroke:#181818;stroke-width:1.0;" x1="355" x2="676" y1="383.4766" y2="383.4766"/><text fill="#000000" font-family="sans-serif" font-size="13" lengthAdjust="spacing" textLength="308" x="362" y="378.6201">updateOrder(idOrder, datePaiement, dateEmission...)</text><polygon fill="#181818" points="366,409.8281,356,413.8281,366,417.8281,362,413.8281" style="stroke:#181818;stroke-width:1.0;"/><line style="stroke:#181818;stroke-width:1.0;" x1="360" x2="686" y1="413.8281" y2="413.8281"/><text fill="#000000" font-family="sans-serif" font-size="13" lengthAdjust="spacing" textLength="86" x="372" y="408.9717">Request^ order</text><polygon fill="#181818" points="770,440.1797,780,444.1797,770,448.1797,774,444.1797" style="stroke:#181818;stroke-width:1.0;"/><line style="stroke:#181818;stroke-width:1.0;" x1="355" x2="776" y1="444.1797" y2="444.1797"/><text fill="#000000" font-family="sans-serif" font-size="13" lengthAdjust="spacing" textLength="181" x="362" y="439.3232">updateRequest(Request^ order)</text><polygon fill="#181818" points="366,470.5313,356,474.5313,366,478.5313,362,474.5313" style="stroke:#181818;stroke-width:1.0;"/><line style="stroke:#181818;stroke-width:1.0;" x1="360" x2="781" y1="474.5313" y2="474.5313"/><text fill="#000000" font-family="sans-serif" font-size="13" lengthAdjust="spacing" textLength="71" x="372" y="469.6748">int response</text><polygon fill="#181818" points="77,500.8828,67,504.8828,77,508.8828,73,504.8828" style="stroke:#181818;stroke-width:1.0;"/><line style="stroke:#181818;stroke-width:1.0;" x1="71" x2="344" y1="504.8828" y2="504.8828"/><text fill="#000000" font-family="sans-serif" font-size="13" lengthAdjust="spacing" textLength="71" x="83" y="500.0264">int response</text><line style="stroke:#181818;stroke-width:1.0;" x1="66" x2="108" y1="535.2344" y2="535.2344"/><line style="stroke:#181818;stroke-width:1.0;" x1="108" x2="108" y1="535.2344" y2="548.2344"/><line style="stroke:#181818;stroke-width:1.0;" x1="67" x2="108" y1="548.2344" y2="548.2344"/><polygon fill="#181818" points="77,544.2344,67,548.2344,77,552.2344,73,548.2344" style="stroke:#181818;stroke-width:1.0;"/><text fill="#000000" font-family="sans-serif" font-size="13" lengthAdjust="spacing" textLength="96" x="73" y="530.3779">updateInterface()</text><path d="M10,570.2344 L225,570.2344 L225,578.5859 L215,588.5859 L10,588.5859 L10,570.2344 " fill="#EEEEEE" style="stroke:#000000;stroke-width:1.5;"/><rect fill="none" height="243.8125" style="stroke:#000000;stroke-width:1.5;" width="824.5" x="10" y="570.2344"/><text fill="#000000" font-family="sans-serif" font-size="13" font-weight="bold" lengthAdjust="spacing" textLength="170" x="25" y="584.7295">Supprimer une commande</text><polygon fill="#181818" points="333,606.9375,343,610.9375,333,614.9375,337,610.9375" style="stroke:#181818;stroke-width:1.0;"/><line style="stroke:#181818;stroke-width:1.0;" x1="66" x2="339" y1="610.9375" y2="610.9375"/><text fill="#000000" font-family="sans-serif" font-size="13" lengthAdjust="spacing" textLength="205" x="73" y="606.0811">deleteOrder(Datatype::Order^ order)</text><polygon fill="#181818" points="670,637.2891,680,641.2891,670,645.2891,674,641.2891" style="stroke:#181818;stroke-width:1.0;"/><line style="stroke:#181818;stroke-width:1.0;" x1="355" x2="676" y1="641.2891" y2="641.2891"/><text fill="#000000" font-family="sans-serif" font-size="13" lengthAdjust="spacing" textLength="117" x="362" y="636.4326">deleteOrder(idOrder)</text><polygon fill="#181818" points="366,667.6406,356,671.6406,366,675.6406,362,671.6406" style="stroke:#181818;stroke-width:1.0;"/><line style="stroke:#181818;stroke-width:1.0;" x1="360" x2="686" y1="671.6406" y2="671.6406"/><text fill="#000000" font-family="sans-serif" font-size="13" lengthAdjust="spacing" textLength="86" x="372" y="666.7842">Request^ order</text><polygon fill="#181818" points="770,697.9922,780,701.9922,770,705.9922,774,701.9922" style="stroke:#181818;stroke-width:1.0;"/><line style="stroke:#181818;stroke-width:1.0;" x1="355" x2="776" y1="701.9922" y2="701.9922"/><text fill="#000000" font-family="sans-serif" font-size="13" lengthAdjust="spacing" textLength="177" x="362" y="697.1357">deleteRequest(Request^ order)</text><polygon fill="#181818" points="366,728.3438,356,732.3438,366,736.3438,362,732.3438" style="stroke:#181818;stroke-width:1.0;"/><line style="stroke:#181818;stroke-width:1.0;" x1="360" x2="781" y1="732.3438" y2="732.3438"/><text fill="#000000" font-family="sans-serif" font-size="13" lengthAdjust="spacing" textLength="71" x="372" y="727.4873">int response</text><polygon fill="#181818" points="77,758.6953,67,762.6953,77,766.6953,73,762.6953" style="stroke:#181818;stroke-width:1.0;"/><line style="stroke:#181818;stroke-width:1.0;" x1="71" x2="344" y1="762.6953" y2="762.6953"/><text fill="#000000" font-family="sans-serif" font-size="13" lengthAdjust="spacing" textLength="71" x="83" y="757.8389">int response</text><line style="stroke:#181818;stroke-width:1.0;" x1="66" x2="108" y1="793.0469" y2="793.0469"/><line style="stroke:#181818;stroke-width:1.0;" x1="108" x2="108" y1="793.0469" y2="806.0469"/><line style="stroke:#181818;stroke-width:1.0;" x1="67" x2="108" y1="806.0469" y2="806.0469"/><polygon fill="#181818" points="77,802.0469,67,806.0469,77,810.0469,73,806.0469" style="stroke:#181818;stroke-width:1.0;"/><text fill="#000000" font-family="sans-serif" font-size="13" lengthAdjust="spacing" textLength="96" x="73" y="788.1904">updateInterface()</text><path d="M10,828.0469 L207,828.0469 L207,836.3984 L197,846.3984 L10,846.3984 L10,828.0469 " fill="#EEEEEE" style="stroke:#000000;stroke-width:1.5;"/><rect fill="none" height="243.8125" style="stroke:#000000;stroke-width:1.5;" width="824.5" x="10" y="828.0469"/><text fill="#000000" font-family="sans-serif" font-size="13" font-weight="bold" lengthAdjust="spacing" textLength="152" x="25" y="842.542">Afficher une commande</text><polygon fill="#181818" points="333,864.75,343,868.75,333,872.75,337,868.75" style="stroke:#181818;stroke-width:1.0;"/><line style="stroke:#181818;stroke-width:1.0;" x1="66" x2="339" y1="868.75" y2="868.75"/><text fill="#000000" font-family="sans-serif" font-size="13" lengthAdjust="spacing" textLength="100" x="73" y="863.8936">getOrder(idOrder)</text><polygon fill="#181818" points="670,895.1016,680,899.1016,670,903.1016,674,899.1016" style="stroke:#181818;stroke-width:1.0;"/><line style="stroke:#181818;stroke-width:1.0;" x1="355" x2="676" y1="899.1016" y2="899.1016"/><text fill="#000000" font-family="sans-serif" font-size="13" lengthAdjust="spacing" textLength="100" x="362" y="894.2451">getOrder(idOrder)</text><polygon fill="#181818" points="366,925.4531,356,929.4531,366,933.4531,362,929.4531" style="stroke:#181818;stroke-width:1.0;"/><line style="stroke:#181818;stroke-width:1.0;" x1="360" x2="686" y1="929.4531" y2="929.4531"/><text fill="#000000" font-family="sans-serif" font-size="13" lengthAdjust="spacing" textLength="53" x="372" y="924.5967">Request^</text><polygon fill="#181818" points="770,955.8047,780,959.8047,770,963.8047,774,959.8047" style="stroke:#181818;stroke-width:1.0;"/><line style="stroke:#181818;stroke-width:1.0;" x1="355" x2="776" y1="959.8047" y2="959.8047"/><text fill="#000000" font-family="sans-serif" font-size="13" lengthAdjust="spacing" textLength="127" x="362" y="954.9482">getRequest(Request^)</text><polygon fill="#181818" points="366,986.1563,356,990.1563,366,994.1563,362,990.1563" style="stroke:#181818;stroke-width:1.0;"/><line style="stroke:#181818;stroke-width:1.0;" x1="360" x2="781" y1="990.1563" y2="990.1563"/><text fill="#000000" font-family="sans-serif" font-size="13" lengthAdjust="spacing" textLength="91" x="372" y="985.2998">DataTable order</text><polygon fill="#181818" points="77,1016.5078,67,1020.5078,77,1024.5078,73,1020.5078" style="stroke:#181818;stroke-width:1.0;"/><line style="stroke:#181818;stroke-width:1.0;" x1="71" x2="344" y1="1020.5078" y2="1020.5078"/><text fill="#000000" font-family="sans-serif" font-size="13" lengthAdjust="spacing" textLength="130" x="83" y="1015.6514">Datatype::Order^ order</text><line style="stroke:#181818;stroke-width:1.0;" x1="66" x2="108" y1="1050.8594" y2="1050.8594"/><line style="stroke:#181818;stroke-width:1.0;" x1="108" x2="108" y1="1050.8594" y2="1063.8594"/><line style="stroke:#181818;stroke-width:1.0;" x1="67" x2="108" y1="1063.8594" y2="1063.8594"/><polygon fill="#181818" points="77,1059.8594,67,1063.8594,77,1067.8594,73,1063.8594" style="stroke:#181818;stroke-width:1.0;"/><text fill="#000000" font-family="sans-serif" font-size="13" lengthAdjust="spacing" textLength="96" x="73" y="1046.0029">updateInterface()</text><!--MD5=[4cb12369dc4342ea834d6202a3aa5982]
@startuml Client

participant "Formulaire" as Form
participant "OrderService" as Service
participant "OrderMapping" as Mapping
participant "Database" as DB

activate Form
activate Service
activate DB

' Créer une commande
group Créer une commande

Form -> Service : createOrder(datePaiement, dateEmission...)
Service -> Mapping : insertOrder(datePaiement, dateEmission...)
activate Mapping
Service <- Mapping : Request^ order
deactivate Mapping
Service -> DB : insertRequest(Request^ order)
DB -> Service : int response
Service -> Form : int response
Form -> Form : updateInterface()

end

' Modifier une commande
group Modifier une commande

Form -> Service : updateOrder(Datatype::Order^ order)
Service -> Mapping : updateOrder(idOrder, datePaiement, dateEmission...)
activate Mapping
Service <- Mapping : Request^ order
deactivate Mapping
Service -> DB : updateRequest(Request^ order)
DB -> Service : int response
Service -> Form : int response
Form -> Form : updateInterface()

end

' Supprimer une commande
group Supprimer une commande

Form -> Service : deleteOrder(Datatype::Order^ order)
Service -> Mapping : deleteOrder(idOrder)
activate Mapping
Service <- Mapping : Request^ order
deactivate Mapping
Service -> DB : deleteRequest(Request^ order)
DB -> Service : int response
Service -> Form : int response
Form -> Form : updateInterface()

end

' Afficher une commande
group Afficher une commande

Form -> Service : getOrder(idOrder)
Service -> Mapping : getOrder(idOrder)
activate Mapping
Service <- Mapping : Request^
deactivate Mapping
Service -> DB : getRequest(Request^)
DB -> Service : DataTable order
Service -> Form : Datatype::Order^ order
Form -> Form : updateInterface()

end

@enduml

@startuml Client

participant "Formulaire" as Form
participant "OrderService" as Service
participant "OrderMapping" as Mapping
participant "Database" as DB

activate Form
activate Service
activate DB

group Créer une commande

Form -> Service : createOrder(datePaiement, dateEmission...)
Service -> Mapping : insertOrder(datePaiement, dateEmission...)
activate Mapping
Service <- Mapping : Request^ order
deactivate Mapping
Service -> DB : insertRequest(Request^ order)
DB -> Service : int response
Service -> Form : int response
Form -> Form : updateInterface()

end

group Modifier une commande

Form -> Service : updateOrder(Datatype::Order^ order)
Service -> Mapping : updateOrder(idOrder, datePaiement, dateEmission...)
activate Mapping
Service <- Mapping : Request^ order
deactivate Mapping
Service -> DB : updateRequest(Request^ order)
DB -> Service : int response
Service -> Form : int response
Form -> Form : updateInterface()

end

group Supprimer une commande

Form -> Service : deleteOrder(Datatype::Order^ order)
Service -> Mapping : deleteOrder(idOrder)
activate Mapping
Service <- Mapping : Request^ order
deactivate Mapping
Service -> DB : deleteRequest(Request^ order)
DB -> Service : int response
Service -> Form : int response
Form -> Form : updateInterface()

end

group Afficher une commande

Form -> Service : getOrder(idOrder)
Service -> Mapping : getOrder(idOrder)
activate Mapping
Service <- Mapping : Request^
deactivate Mapping
Service -> DB : getRequest(Request^)
DB -> Service : DataTable order
Service -> Form : Datatype::Order^ order
Form -> Form : updateInterface()

end

@enduml

PlantUML version 1.2022.7(Mon Aug 22 19:01:30 CEST 2022)
(GPL source distribution)
Java Runtime: Java(TM) SE Runtime Environment
JVM: Java HotSpot(TM) 64-Bit Server VM
Default Encoding: Cp1252
Language: fr
Country: FR
--></g></svg>