<?xml version="1.0" encoding="windows-1252" standalone="no"?>
<svg xmlns="http://www.w3.org/2000/svg" xmlns:xlink="http://www.w3.org/1999/xlink" contentStyleType="text/css" height="1022px" preserveAspectRatio="none" style="width:2682px;height:1022px;background:#FFFFFF;" version="1.1" viewBox="0 0 2682 1022" width="2682px" zoomAndPan="magnify"><defs/><g><!--cluster Services--><g id="cluster_Services"><path d="M8.5,145 L76.5,145 A3.75,3.75 0 0 1 79,147.5 L86,167.2969 L295.5,167.2969 A2.5,2.5 0 0 1 298,169.7969 L298,686 A2.5,2.5 0 0 1 295.5,688.5 L8.5,688.5 A2.5,2.5 0 0 1 6,686 L6,147.5 A2.5,2.5 0 0 1 8.5,145 " fill="none" style="stroke:#000000;stroke-width:1.5;"/><line style="stroke:#000000;stroke-width:1.5;" x1="6" x2="86" y1="167.2969" y2="167.2969"/><text fill="#000000" font-family="sans-serif" font-size="14" font-weight="bold" lengthAdjust="spacing" textLength="67" x="10" y="159.9951">Services</text></g><!--cluster Components--><g id="cluster_Components"><path d="M324.5,408 L426.5,408 A3.75,3.75 0 0 1 429,410.5 L436,430.2969 L2672.5,430.2969 A2.5,2.5 0 0 1 2675,432.7969 L2675,1012.5 A2.5,2.5 0 0 1 2672.5,1015 L324.5,1015 A2.5,2.5 0 0 1 322,1012.5 L322,410.5 A2.5,2.5 0 0 1 324.5,408 " fill="none" style="stroke:#000000;stroke-width:1.5;"/><line style="stroke:#000000;stroke-width:1.5;" x1="322" x2="436" y1="430.2969" y2="430.2969"/><text fill="#000000" font-family="sans-serif" font-size="14" font-weight="bold" lengthAdjust="spacing" textLength="101" x="326" y="422.9951">Components</text></g><!--class DatabaseManager--><g id="elem_DatabaseManager"><rect codeLine="10" fill="#F1F1F1" height="202.8203" id="DatabaseManager" rx="2.5" ry="2.5" style="stroke:#181818;stroke-width:0.5;" width="259" x="22.5" y="180"/><ellipse cx="83.25" cy="196" fill="#ADD1B2" rx="11" ry="11" style="stroke:#181818;stroke-width:1.0;"/><path d="M85.5938,191.6719 C84.6563,191.2344 84.0625,191.0938 83.1875,191.0938 C80.5625,191.0938 78.5625,193.1719 78.5625,195.8906 L78.5625,197.0156 C78.5625,199.5938 80.6719,201.4844 83.5625,201.4844 C84.7813,201.4844 85.9375,201.1875 86.6875,200.6406 C87.2656,200.2344 87.5938,199.7813 87.5938,199.3906 C87.5938,198.9375 87.2031,198.5469 86.7344,198.5469 C86.5156,198.5469 86.3125,198.625 86.125,198.8125 C85.6719,199.2969 85.6719,199.2969 85.4844,199.3906 C85.0625,199.6563 84.375,199.7813 83.6094,199.7813 C81.5625,199.7813 80.2656,198.6875 80.2656,196.9844 L80.2656,195.8906 C80.2656,194.1094 81.5156,192.7969 83.25,192.7969 C83.8281,192.7969 84.4375,192.9531 84.9063,193.2031 C85.3906,193.4844 85.5625,193.7031 85.6563,194.1094 C85.7188,194.5156 85.75,194.6406 85.8906,194.7656 C86.0313,194.9063 86.2656,195.0156 86.4844,195.0156 C86.75,195.0156 87.0156,194.875 87.1875,194.6563 C87.2969,194.5 87.3281,194.3125 87.3281,193.8906 L87.3281,192.4688 C87.3281,192.0313 87.3125,191.9063 87.2188,191.75 C87.0625,191.4844 86.7813,191.3438 86.4844,191.3438 C86.1875,191.3438 85.9844,191.4375 85.7656,191.75 L85.5938,191.6719 Z " fill="#000000"/><text fill="#000000" font-family="sans-serif" font-size="14" lengthAdjust="spacing" textLength="129" x="103.75" y="200.8467">DatabaseManager</text><line style="stroke:#181818;stroke-width:0.5;" x1="23.5" x2="280.5" y1="212" y2="212"/><rect fill="none" height="6" style="stroke:#C82930;stroke-width:1.0;" width="6" x="30.5" y="242.9453"/><text fill="#000000" font-family="sans-serif" font-size="14" lengthAdjust="spacing" textLength="147" x="42.5" y="249.292">database : Database</text><rect fill="none" height="6" style="stroke:#C82930;stroke-width:1.0;" width="6" x="30.5" y="259.2422"/><text fill="#000000" font-family="sans-serif" font-size="14" lengthAdjust="spacing" textLength="221" x="42.5" y="265.5889">clientMapping : ClientMapping</text><rect fill="none" height="6" style="stroke:#C82930;stroke-width:1.0;" width="6" x="30.5" y="275.5391"/><text fill="#000000" font-family="sans-serif" font-size="14" lengthAdjust="spacing" textLength="233" x="42.5" y="281.8857">stocksMapping : StocksMapping</text><rect fill="none" height="6" style="stroke:#C82930;stroke-width:1.0;" width="6" x="30.5" y="291.8359"/><text fill="#000000" font-family="sans-serif" font-size="14" lengthAdjust="spacing" textLength="231" x="42.5" y="298.1826">ordersMapping : OrdersMapping</text><line style="stroke:#181818;stroke-width:1.0;stroke-dasharray:1.0,2.0;" x1="23.5" x2="114.5" y1="228.1484" y2="228.1484"/><text fill="#000000" font-family="sans-serif" font-size="14" lengthAdjust="spacing" textLength="75" x="114.5" y="232.4951">Attributes</text><line style="stroke:#181818;stroke-width:1.0;stroke-dasharray:1.0,2.0;" x1="189.5" x2="280.5" y1="228.1484" y2="228.1484"/><line style="stroke:#181818;stroke-width:1.0;" x1="23.5" x2="121" y1="313.6328" y2="313.6328"/><text fill="#000000" font-family="sans-serif" font-size="14" lengthAdjust="spacing" textLength="62" x="121" y="317.9795">Methods</text><line style="stroke:#181818;stroke-width:1.0;" x1="183" x2="280.5" y1="313.6328" y2="313.6328"/><ellipse cx="33.5" cy="355.875" fill="#84BE84" rx="3" ry="3" style="stroke:#038048;stroke-width:1.0;"/><text fill="#000000" font-family="sans-serif" font-size="14" lengthAdjust="spacing" textLength="139" x="42.5" y="359.2217">DatabaseManager()</text><ellipse cx="33.5" cy="372.1719" fill="#84BE84" rx="3" ry="3" style="stroke:#038048;stroke-width:1.0;"/><text fill="#000000" font-family="sans-serif" font-size="14" lengthAdjust="spacing" textLength="223" x="42.5" y="375.5186">DatabaseManager(int dbType);</text><line style="stroke:#181818;stroke-width:1.0;stroke-dasharray:1.0,2.0;" x1="23.5" x2="105.5" y1="338.0781" y2="338.0781"/><text fill="#000000" font-family="sans-serif" font-size="14" lengthAdjust="spacing" textLength="93" x="105.5" y="342.4248">Constructors</text><line style="stroke:#181818;stroke-width:1.0;stroke-dasharray:1.0,2.0;" x1="198.5" x2="280.5" y1="338.0781" y2="338.0781"/></g><!--class Database--><g id="elem_Database"><rect codeLine="22" fill="#F1F1F1" height="210.8203" id="Database" rx="2.5" ry="2.5" style="stroke:#181818;stroke-width:0.5;" width="252" x="28" y="461.5"/><ellipse cx="115.75" cy="477.5" fill="#ADD1B2" rx="11" ry="11" style="stroke:#181818;stroke-width:1.0;"/><path d="M118.0938,473.1719 C117.1563,472.7344 116.5625,472.5938 115.6875,472.5938 C113.0625,472.5938 111.0625,474.6719 111.0625,477.3906 L111.0625,478.5156 C111.0625,481.0938 113.1719,482.9844 116.0625,482.9844 C117.2813,482.9844 118.4375,482.6875 119.1875,482.1406 C119.7656,481.7344 120.0938,481.2813 120.0938,480.8906 C120.0938,480.4375 119.7031,480.0469 119.2344,480.0469 C119.0156,480.0469 118.8125,480.125 118.625,480.3125 C118.1719,480.7969 118.1719,480.7969 117.9844,480.8906 C117.5625,481.1563 116.875,481.2813 116.1094,481.2813 C114.0625,481.2813 112.7656,480.1875 112.7656,478.4844 L112.7656,477.3906 C112.7656,475.6094 114.0156,474.2969 115.75,474.2969 C116.3281,474.2969 116.9375,474.4531 117.4063,474.7031 C117.8906,474.9844 118.0625,475.2031 118.1563,475.6094 C118.2188,476.0156 118.25,476.1406 118.3906,476.2656 C118.5313,476.4063 118.7656,476.5156 118.9844,476.5156 C119.25,476.5156 119.5156,476.375 119.6875,476.1563 C119.7969,476 119.8281,475.8125 119.8281,475.3906 L119.8281,473.9688 C119.8281,473.5313 119.8125,473.4063 119.7188,473.25 C119.5625,472.9844 119.2813,472.8438 118.9844,472.8438 C118.6875,472.8438 118.4844,472.9375 118.2656,473.25 L118.0938,473.1719 Z " fill="#000000"/><text fill="#000000" font-family="sans-serif" font-size="14" lengthAdjust="spacing" textLength="68" x="136.25" y="482.3467">Database</text><line style="stroke:#181818;stroke-width:0.5;" x1="29" x2="279" y1="493.5" y2="493.5"/><rect fill="none" height="6" style="stroke:#C82930;stroke-width:1.0;" width="6" x="36" y="524.4453"/><text fill="#000000" font-family="sans-serif" font-size="14" lengthAdjust="spacing" textLength="113" x="48" y="530.792">conn : SQLConn</text><line style="stroke:#181818;stroke-width:1.0;stroke-dasharray:1.0,2.0;" x1="29" x2="116.5" y1="509.6484" y2="509.6484"/><text fill="#000000" font-family="sans-serif" font-size="14" lengthAdjust="spacing" textLength="75" x="116.5" y="513.9951">Attributes</text><line style="stroke:#181818;stroke-width:1.0;stroke-dasharray:1.0,2.0;" x1="191.5" x2="279" y1="509.6484" y2="509.6484"/><line style="stroke:#181818;stroke-width:1.0;" x1="29" x2="123" y1="546.2422" y2="546.2422"/><text fill="#000000" font-family="sans-serif" font-size="14" lengthAdjust="spacing" textLength="62" x="123" y="550.5889">Methods</text><line style="stroke:#181818;stroke-width:1.0;" x1="185" x2="279" y1="546.2422" y2="546.2422"/><ellipse cx="39" cy="588.4844" fill="#84BE84" rx="3" ry="3" style="stroke:#038048;stroke-width:1.0;"/><text fill="#000000" font-family="sans-serif" font-size="14" lengthAdjust="spacing" textLength="78" x="48" y="591.8311">Database()</text><line style="stroke:#181818;stroke-width:1.0;stroke-dasharray:1.0,2.0;" x1="29" x2="107.5" y1="570.6875" y2="570.6875"/><text fill="#000000" font-family="sans-serif" font-size="14" lengthAdjust="spacing" textLength="93" x="107.5" y="575.0342">Constructors</text><line style="stroke:#181818;stroke-width:1.0;stroke-dasharray:1.0,2.0;" x1="200.5" x2="279" y1="570.6875" y2="570.6875"/><ellipse cx="39" cy="625.0781" fill="#84BE84" rx="3" ry="3" style="stroke:#038048;stroke-width:1.0;"/><text fill="#000000" font-family="sans-serif" font-size="14" lengthAdjust="spacing" textLength="150" x="48" y="628.4248">getConn() : SQLConn</text><line style="stroke:#181818;stroke-width:1.0;stroke-dasharray:1.0,2.0;" x1="29" x2="126" y1="607.2813" y2="607.2813"/><text fill="#000000" font-family="sans-serif" font-size="14" lengthAdjust="spacing" textLength="56" x="126" y="611.6279">Getters</text><line style="stroke:#181818;stroke-width:1.0;stroke-dasharray:1.0,2.0;" x1="182" x2="279" y1="607.2813" y2="607.2813"/><ellipse cx="39" cy="661.6719" fill="#84BE84" rx="3" ry="3" style="stroke:#038048;stroke-width:1.0;"/><text fill="#000000" font-family="sans-serif" font-size="14" lengthAdjust="spacing" textLength="226" x="48" y="665.0186">setConn(conn : SQLConn) : void</text><line style="stroke:#181818;stroke-width:1.0;stroke-dasharray:1.0,2.0;" x1="29" x2="127" y1="643.875" y2="643.875"/><text fill="#000000" font-family="sans-serif" font-size="14" lengthAdjust="spacing" textLength="54" x="127" y="648.2217">Setters</text><line style="stroke:#181818;stroke-width:1.0;stroke-dasharray:1.0,2.0;" x1="181" x2="279" y1="643.875" y2="643.875"/></g><!--class DatabaseConn--><g id="elem_DatabaseConn"><rect codeLine="34" fill="#F1F1F1" height="247.5625" id="DatabaseConn" rx="2.5" ry="2.5" style="stroke:#181818;stroke-width:0.5;" width="711" x="1581.5" y="443"/><ellipse cx="1880.25" cy="459" fill="#A9DCDF" rx="11" ry="11" style="stroke:#181818;stroke-width:1.0;"/><path d="M1882.3281,460.8125 L1882.7188,461.7969 L1882.3281,461.7969 C1881.875,461.7969 1881.7656,461.8125 1881.6094,461.9219 C1881.3594,462.0781 1881.2031,462.3594 1881.2031,462.6563 C1881.2031,462.9219 1881.3438,463.1719 1881.5625,463.3281 C1881.7031,463.4531 1881.9063,463.5 1882.3281,463.5 L1884.6875,463.5 C1885.0469,463.5 1885.2656,463.4688 1885.4063,463.375 C1885.6563,463.2344 1885.8125,462.9375 1885.8125,462.6563 C1885.8125,462.375 1885.6719,462.125 1885.4531,461.9688 C1885.2813,461.8281 1885.125,461.7969 1884.6563,461.7969 L1881.2656,453.5938 L1877.5938,453.5938 C1877.1406,453.5938 1877.0156,453.6094 1876.8594,453.7031 C1876.6094,453.875 1876.4531,454.1563 1876.4531,454.4375 C1876.4531,454.7188 1876.5938,454.9688 1876.8125,455.1406 C1876.9844,455.25 1877.1563,455.2813 1877.5938,455.2813 L1878.6719,455.2813 L1876.0313,461.7969 C1875.6094,461.7969 1875.4531,461.8125 1875.2969,461.9219 C1875.0469,462.0781 1874.8906,462.3594 1874.8906,462.6563 C1874.8906,463.2188 1875.2656,463.5 1876.0156,463.5 L1878.2813,463.5 C1878.6406,463.5 1878.8594,463.4688 1878.9844,463.375 C1879.25,463.2344 1879.3906,462.9375 1879.3906,462.6563 C1879.3906,462.375 1879.2656,462.125 1879.0469,461.9531 C1878.875,461.8281 1878.7344,461.7969 1878.2813,461.7969 L1877.8906,461.7969 L1878.2813,460.8125 L1882.3281,460.8125 Z M1881.625,459.1094 L1878.9531,459.1094 L1880.2969,455.8438 L1881.625,459.1094 Z " fill="#000000"/><text fill="#000000" font-family="sans-serif" font-size="14" font-style="italic" lengthAdjust="spacing" textLength="105" x="1900.75" y="463.8467">DatabaseConn</text><line style="stroke:#181818;stroke-width:0.5;" x1="1582.5" x2="2291.5" y1="475" y2="475"/><rect fill="none" height="6" style="stroke:#C82930;stroke-width:1.0;" width="6" x="1589.5" y="505.9453"/><text fill="#000000" font-family="sans-serif" font-size="14" lengthAdjust="spacing" textLength="131" x="1601.5" y="512.292">conn : Connection</text><rect fill="none" height="6" style="stroke:#C82930;stroke-width:1.0;" width="6" x="1589.5" y="522.2422"/><text fill="#000000" font-family="sans-serif" font-size="14" lengthAdjust="spacing" textLength="125" x="1601.5" y="528.5889">dbType : DBType</text><line style="stroke:#181818;stroke-width:1.0;stroke-dasharray:1.0,2.0;" x1="1582.5" x2="1899.5" y1="491.1484" y2="491.1484"/><text fill="#000000" font-family="sans-serif" font-size="14" lengthAdjust="spacing" textLength="75" x="1899.5" y="495.4951">Attributes</text><line style="stroke:#181818;stroke-width:1.0;stroke-dasharray:1.0,2.0;" x1="1974.5" x2="2291.5" y1="491.1484" y2="491.1484"/><line style="stroke:#181818;stroke-width:1.0;" x1="1582.5" x2="1906" y1="544.0391" y2="544.0391"/><text fill="#000000" font-family="sans-serif" font-size="14" lengthAdjust="spacing" textLength="62" x="1906" y="548.3857">Methods</text><line style="stroke:#181818;stroke-width:1.0;" x1="1968" x2="2291.5" y1="544.0391" y2="544.0391"/><ellipse cx="1592.5" cy="586.2813" fill="#84BE84" rx="3" ry="3" style="stroke:#038048;stroke-width:1.0;"/><text fill="#000000" font-family="sans-serif" font-size="14" lengthAdjust="spacing" textLength="115" x="1601.5" y="589.6279">DatabaseConn()</text><ellipse cx="1592.5" cy="602.5781" fill="#84BE84" rx="3" ry="3" style="stroke:#038048;stroke-width:1.0;"/><text fill="#000000" font-family="sans-serif" font-size="14" lengthAdjust="spacing" textLength="685" x="1601.5" y="605.9248">DatabaseConn(int dbType, string host, string port, string dbName, string user, string password)</text><line style="stroke:#181818;stroke-width:1.0;stroke-dasharray:1.0,2.0;" x1="1582.5" x2="1890.5" y1="568.4844" y2="568.4844"/><text fill="#000000" font-family="sans-serif" font-size="14" lengthAdjust="spacing" textLength="93" x="1890.5" y="572.8311">Constructors</text><line style="stroke:#181818;stroke-width:1.0;stroke-dasharray:1.0,2.0;" x1="1983.5" x2="2291.5" y1="568.4844" y2="568.4844"/><ellipse cx="1592.5" cy="639.1719" fill="#84BE84" rx="3" ry="3" style="stroke:#038048;stroke-width:1.0;"/><text fill="#000000" font-family="sans-serif" font-size="14" lengthAdjust="spacing" textLength="168" x="1601.5" y="642.5186">getConn() : Connection</text><ellipse cx="1592.5" cy="655.4688" fill="#84BE84" rx="3" ry="3" style="stroke:#038048;stroke-width:1.0;"/><text fill="#000000" font-family="sans-serif" font-size="14" lengthAdjust="spacing" textLength="162" x="1601.5" y="658.8154">getDbType() : DBType</text><line style="stroke:#181818;stroke-width:1.0;stroke-dasharray:1.0,2.0;" x1="1582.5" x2="1909" y1="621.375" y2="621.375"/><text fill="#000000" font-family="sans-serif" font-size="14" lengthAdjust="spacing" textLength="56" x="1909" y="625.7217">Getters</text><line style="stroke:#181818;stroke-width:1.0;stroke-dasharray:1.0,2.0;" x1="1965" x2="2291.5" y1="621.375" y2="621.375"/><line style="stroke:#181818;stroke-width:1.0;stroke-dasharray:1.0,2.0;" x1="1582.5" x2="1910" y1="674.2656" y2="674.2656"/><text fill="#000000" font-family="sans-serif" font-size="14" lengthAdjust="spacing" textLength="54" x="1910" y="678.6123">Setters</text><line style="stroke:#181818;stroke-width:1.0;stroke-dasharray:1.0,2.0;" x1="1964" x2="2291.5" y1="674.2656" y2="674.2656"/></g><!--class ClientMapping--><g id="elem_ClientMapping"><rect codeLine="48" fill="#F1F1F1" height="153.9297" id="ClientMapping" rx="2.5" ry="2.5" style="stroke:#181818;stroke-width:0.5;" width="220" x="1065" y="490"/><ellipse cx="1119.75" cy="506" fill="#A9DCDF" rx="11" ry="11" style="stroke:#181818;stroke-width:1.0;"/><path d="M1121.8281,507.8125 L1122.2188,508.7969 L1121.8281,508.7969 C1121.375,508.7969 1121.2656,508.8125 1121.1094,508.9219 C1120.8594,509.0781 1120.7031,509.3594 1120.7031,509.6563 C1120.7031,509.9219 1120.8438,510.1719 1121.0625,510.3281 C1121.2031,510.4531 1121.4063,510.5 1121.8281,510.5 L1124.1875,510.5 C1124.5469,510.5 1124.7656,510.4688 1124.9063,510.375 C1125.1563,510.2344 1125.3125,509.9375 1125.3125,509.6563 C1125.3125,509.375 1125.1719,509.125 1124.9531,508.9688 C1124.7813,508.8281 1124.625,508.7969 1124.1563,508.7969 L1120.7656,500.5938 L1117.0938,500.5938 C1116.6406,500.5938 1116.5156,500.6094 1116.3594,500.7031 C1116.1094,500.875 1115.9531,501.1563 1115.9531,501.4375 C1115.9531,501.7188 1116.0938,501.9688 1116.3125,502.1406 C1116.4844,502.25 1116.6563,502.2813 1117.0938,502.2813 L1118.1719,502.2813 L1115.5313,508.7969 C1115.1094,508.7969 1114.9531,508.8125 1114.7969,508.9219 C1114.5469,509.0781 1114.3906,509.3594 1114.3906,509.6563 C1114.3906,510.2188 1114.7656,510.5 1115.5156,510.5 L1117.7813,510.5 C1118.1406,510.5 1118.3594,510.4688 1118.4844,510.375 C1118.75,510.2344 1118.8906,509.9375 1118.8906,509.6563 C1118.8906,509.375 1118.7656,509.125 1118.5469,508.9531 C1118.375,508.8281 1118.2344,508.7969 1117.7813,508.7969 L1117.3906,508.7969 L1117.7813,507.8125 L1121.8281,507.8125 Z M1121.125,506.1094 L1118.4531,506.1094 L1119.7969,502.8438 L1121.125,506.1094 Z " fill="#000000"/><text fill="#000000" font-family="sans-serif" font-size="14" font-style="italic" lengthAdjust="spacing" textLength="102" x="1140.25" y="510.8467">ClientMapping</text><line style="stroke:#181818;stroke-width:0.5;" x1="1066" x2="1284" y1="522" y2="522"/><rect fill="none" height="6" style="stroke:#C82930;stroke-width:1.0;" width="6" x="1073" y="552.9453"/><text fill="#000000" font-family="sans-serif" font-size="14" lengthAdjust="spacing" textLength="125" x="1085" y="559.292">dbType : DBType</text><line style="stroke:#181818;stroke-width:1.0;stroke-dasharray:1.0,2.0;" x1="1066" x2="1137.5" y1="538.1484" y2="538.1484"/><text fill="#000000" font-family="sans-serif" font-size="14" lengthAdjust="spacing" textLength="75" x="1137.5" y="542.4951">Attributes</text><line style="stroke:#181818;stroke-width:1.0;stroke-dasharray:1.0,2.0;" x1="1212.5" x2="1284" y1="538.1484" y2="538.1484"/><line style="stroke:#181818;stroke-width:1.0;" x1="1066" x2="1144" y1="574.7422" y2="574.7422"/><text fill="#000000" font-family="sans-serif" font-size="14" lengthAdjust="spacing" textLength="62" x="1144" y="579.0889">Methods</text><line style="stroke:#181818;stroke-width:1.0;" x1="1206" x2="1284" y1="574.7422" y2="574.7422"/><ellipse cx="1076" cy="616.9844" fill="#84BE84" rx="3" ry="3" style="stroke:#038048;stroke-width:1.0;"/><text fill="#000000" font-family="sans-serif" font-size="14" lengthAdjust="spacing" textLength="115" x="1085" y="620.3311">ClientMapping()</text><ellipse cx="1076" cy="633.2813" fill="#84BE84" rx="3" ry="3" style="stroke:#038048;stroke-width:1.0;"/><text fill="#000000" font-family="sans-serif" font-size="14" lengthAdjust="spacing" textLength="194" x="1085" y="636.6279">ClientMapping(int dbType)</text><line style="stroke:#181818;stroke-width:1.0;stroke-dasharray:1.0,2.0;" x1="1066" x2="1128.5" y1="599.1875" y2="599.1875"/><text fill="#000000" font-family="sans-serif" font-size="14" lengthAdjust="spacing" textLength="93" x="1128.5" y="603.5342">Constructors</text><line style="stroke:#181818;stroke-width:1.0;stroke-dasharray:1.0,2.0;" x1="1221.5" x2="1284" y1="599.1875" y2="599.1875"/></g><!--class StocksMapping--><g id="elem_StocksMapping"><rect codeLine="57" fill="#F1F1F1" height="153.9297" id="StocksMapping" rx="2.5" ry="2.5" style="stroke:#181818;stroke-width:0.5;" width="226" x="1320" y="490"/><ellipse cx="1375.25" cy="506" fill="#A9DCDF" rx="11" ry="11" style="stroke:#181818;stroke-width:1.0;"/><path d="M1377.3281,507.8125 L1377.7188,508.7969 L1377.3281,508.7969 C1376.875,508.7969 1376.7656,508.8125 1376.6094,508.9219 C1376.3594,509.0781 1376.2031,509.3594 1376.2031,509.6563 C1376.2031,509.9219 1376.3438,510.1719 1376.5625,510.3281 C1376.7031,510.4531 1376.9063,510.5 1377.3281,510.5 L1379.6875,510.5 C1380.0469,510.5 1380.2656,510.4688 1380.4063,510.375 C1380.6563,510.2344 1380.8125,509.9375 1380.8125,509.6563 C1380.8125,509.375 1380.6719,509.125 1380.4531,508.9688 C1380.2813,508.8281 1380.125,508.7969 1379.6563,508.7969 L1376.2656,500.5938 L1372.5938,500.5938 C1372.1406,500.5938 1372.0156,500.6094 1371.8594,500.7031 C1371.6094,500.875 1371.4531,501.1563 1371.4531,501.4375 C1371.4531,501.7188 1371.5938,501.9688 1371.8125,502.1406 C1371.9844,502.25 1372.1563,502.2813 1372.5938,502.2813 L1373.6719,502.2813 L1371.0313,508.7969 C1370.6094,508.7969 1370.4531,508.8125 1370.2969,508.9219 C1370.0469,509.0781 1369.8906,509.3594 1369.8906,509.6563 C1369.8906,510.2188 1370.2656,510.5 1371.0156,510.5 L1373.2813,510.5 C1373.6406,510.5 1373.8594,510.4688 1373.9844,510.375 C1374.25,510.2344 1374.3906,509.9375 1374.3906,509.6563 C1374.3906,509.375 1374.2656,509.125 1374.0469,508.9531 C1373.875,508.8281 1373.7344,508.7969 1373.2813,508.7969 L1372.8906,508.7969 L1373.2813,507.8125 L1377.3281,507.8125 Z M1376.625,506.1094 L1373.9531,506.1094 L1375.2969,502.8438 L1376.625,506.1094 Z " fill="#000000"/><text fill="#000000" font-family="sans-serif" font-size="14" font-style="italic" lengthAdjust="spacing" textLength="107" x="1395.75" y="510.8467">StocksMapping</text><line style="stroke:#181818;stroke-width:0.5;" x1="1321" x2="1545" y1="522" y2="522"/><rect fill="none" height="6" style="stroke:#C82930;stroke-width:1.0;" width="6" x="1328" y="552.9453"/><text fill="#000000" font-family="sans-serif" font-size="14" lengthAdjust="spacing" textLength="125" x="1340" y="559.292">dbType : DBType</text><line style="stroke:#181818;stroke-width:1.0;stroke-dasharray:1.0,2.0;" x1="1321" x2="1395.5" y1="538.1484" y2="538.1484"/><text fill="#000000" font-family="sans-serif" font-size="14" lengthAdjust="spacing" textLength="75" x="1395.5" y="542.4951">Attributes</text><line style="stroke:#181818;stroke-width:1.0;stroke-dasharray:1.0,2.0;" x1="1470.5" x2="1545" y1="538.1484" y2="538.1484"/><line style="stroke:#181818;stroke-width:1.0;" x1="1321" x2="1402" y1="574.7422" y2="574.7422"/><text fill="#000000" font-family="sans-serif" font-size="14" lengthAdjust="spacing" textLength="62" x="1402" y="579.0889">Methods</text><line style="stroke:#181818;stroke-width:1.0;" x1="1464" x2="1545" y1="574.7422" y2="574.7422"/><ellipse cx="1331" cy="616.9844" fill="#84BE84" rx="3" ry="3" style="stroke:#038048;stroke-width:1.0;"/><text fill="#000000" font-family="sans-serif" font-size="14" lengthAdjust="spacing" textLength="121" x="1340" y="620.3311">StocksMapping()</text><ellipse cx="1331" cy="633.2813" fill="#84BE84" rx="3" ry="3" style="stroke:#038048;stroke-width:1.0;"/><text fill="#000000" font-family="sans-serif" font-size="14" lengthAdjust="spacing" textLength="200" x="1340" y="636.6279">StocksMapping(int dbType)</text><line style="stroke:#181818;stroke-width:1.0;stroke-dasharray:1.0,2.0;" x1="1321" x2="1386.5" y1="599.1875" y2="599.1875"/><text fill="#000000" font-family="sans-serif" font-size="14" lengthAdjust="spacing" textLength="93" x="1386.5" y="603.5342">Constructors</text><line style="stroke:#181818;stroke-width:1.0;stroke-dasharray:1.0,2.0;" x1="1479.5" x2="1545" y1="599.1875" y2="599.1875"/></g><!--class OrdersMapping--><g id="elem_OrdersMapping"><rect codeLine="66" fill="#F1F1F1" height="153.9297" id="OrdersMapping" rx="2.5" ry="2.5" style="stroke:#181818;stroke-width:0.5;" width="225" x="338.5" y="490"/><ellipse cx="392.25" cy="506" fill="#A9DCDF" rx="11" ry="11" style="stroke:#181818;stroke-width:1.0;"/><path d="M394.3281,507.8125 L394.7188,508.7969 L394.3281,508.7969 C393.875,508.7969 393.7656,508.8125 393.6094,508.9219 C393.3594,509.0781 393.2031,509.3594 393.2031,509.6563 C393.2031,509.9219 393.3438,510.1719 393.5625,510.3281 C393.7031,510.4531 393.9063,510.5 394.3281,510.5 L396.6875,510.5 C397.0469,510.5 397.2656,510.4688 397.4063,510.375 C397.6563,510.2344 397.8125,509.9375 397.8125,509.6563 C397.8125,509.375 397.6719,509.125 397.4531,508.9688 C397.2813,508.8281 397.125,508.7969 396.6563,508.7969 L393.2656,500.5938 L389.5938,500.5938 C389.1406,500.5938 389.0156,500.6094 388.8594,500.7031 C388.6094,500.875 388.4531,501.1563 388.4531,501.4375 C388.4531,501.7188 388.5938,501.9688 388.8125,502.1406 C388.9844,502.25 389.1563,502.2813 389.5938,502.2813 L390.6719,502.2813 L388.0313,508.7969 C387.6094,508.7969 387.4531,508.8125 387.2969,508.9219 C387.0469,509.0781 386.8906,509.3594 386.8906,509.6563 C386.8906,510.2188 387.2656,510.5 388.0156,510.5 L390.2813,510.5 C390.6406,510.5 390.8594,510.4688 390.9844,510.375 C391.25,510.2344 391.3906,509.9375 391.3906,509.6563 C391.3906,509.375 391.2656,509.125 391.0469,508.9531 C390.875,508.8281 390.7344,508.7969 390.2813,508.7969 L389.8906,508.7969 L390.2813,507.8125 L394.3281,507.8125 Z M393.625,506.1094 L390.9531,506.1094 L392.2969,502.8438 L393.625,506.1094 Z " fill="#000000"/><text fill="#000000" font-family="sans-serif" font-size="14" font-style="italic" lengthAdjust="spacing" textLength="109" x="412.75" y="510.8467">OrdersMapping</text><line style="stroke:#181818;stroke-width:0.5;" x1="339.5" x2="562.5" y1="522" y2="522"/><rect fill="none" height="6" style="stroke:#C82930;stroke-width:1.0;" width="6" x="346.5" y="552.9453"/><text fill="#000000" font-family="sans-serif" font-size="14" lengthAdjust="spacing" textLength="125" x="358.5" y="559.292">dbType : DBType</text><line style="stroke:#181818;stroke-width:1.0;stroke-dasharray:1.0,2.0;" x1="339.5" x2="413.5" y1="538.1484" y2="538.1484"/><text fill="#000000" font-family="sans-serif" font-size="14" lengthAdjust="spacing" textLength="75" x="413.5" y="542.4951">Attributes</text><line style="stroke:#181818;stroke-width:1.0;stroke-dasharray:1.0,2.0;" x1="488.5" x2="562.5" y1="538.1484" y2="538.1484"/><line style="stroke:#181818;stroke-width:1.0;" x1="339.5" x2="420" y1="574.7422" y2="574.7422"/><text fill="#000000" font-family="sans-serif" font-size="14" lengthAdjust="spacing" textLength="62" x="420" y="579.0889">Methods</text><line style="stroke:#181818;stroke-width:1.0;" x1="482" x2="562.5" y1="574.7422" y2="574.7422"/><ellipse cx="349.5" cy="616.9844" fill="#84BE84" rx="3" ry="3" style="stroke:#038048;stroke-width:1.0;"/><text fill="#000000" font-family="sans-serif" font-size="14" lengthAdjust="spacing" textLength="120" x="358.5" y="620.3311">OrdersMapping()</text><ellipse cx="349.5" cy="633.2813" fill="#84BE84" rx="3" ry="3" style="stroke:#038048;stroke-width:1.0;"/><text fill="#000000" font-family="sans-serif" font-size="14" lengthAdjust="spacing" textLength="199" x="358.5" y="636.6279">OrdersMapping(int dbType)</text><line style="stroke:#181818;stroke-width:1.0;stroke-dasharray:1.0,2.0;" x1="339.5" x2="404.5" y1="599.1875" y2="599.1875"/><text fill="#000000" font-family="sans-serif" font-size="14" lengthAdjust="spacing" textLength="93" x="404.5" y="603.5342">Constructors</text><line style="stroke:#181818;stroke-width:1.0;stroke-dasharray:1.0,2.0;" x1="497.5" x2="562.5" y1="599.1875" y2="599.1875"/></g><!--class StatsMapping--><g id="elem_StatsMapping"><rect codeLine="75" fill="#F1F1F1" height="153.9297" id="StatsMapping" rx="2.5" ry="2.5" style="stroke:#181818;stroke-width:0.5;" width="215" x="598.5" y="490"/><ellipse cx="653.75" cy="506" fill="#A9DCDF" rx="11" ry="11" style="stroke:#181818;stroke-width:1.0;"/><path d="M655.8281,507.8125 L656.2188,508.7969 L655.8281,508.7969 C655.375,508.7969 655.2656,508.8125 655.1094,508.9219 C654.8594,509.0781 654.7031,509.3594 654.7031,509.6563 C654.7031,509.9219 654.8438,510.1719 655.0625,510.3281 C655.2031,510.4531 655.4063,510.5 655.8281,510.5 L658.1875,510.5 C658.5469,510.5 658.7656,510.4688 658.9063,510.375 C659.1563,510.2344 659.3125,509.9375 659.3125,509.6563 C659.3125,509.375 659.1719,509.125 658.9531,508.9688 C658.7813,508.8281 658.625,508.7969 658.1563,508.7969 L654.7656,500.5938 L651.0938,500.5938 C650.6406,500.5938 650.5156,500.6094 650.3594,500.7031 C650.1094,500.875 649.9531,501.1563 649.9531,501.4375 C649.9531,501.7188 650.0938,501.9688 650.3125,502.1406 C650.4844,502.25 650.6563,502.2813 651.0938,502.2813 L652.1719,502.2813 L649.5313,508.7969 C649.1094,508.7969 648.9531,508.8125 648.7969,508.9219 C648.5469,509.0781 648.3906,509.3594 648.3906,509.6563 C648.3906,510.2188 648.7656,510.5 649.5156,510.5 L651.7813,510.5 C652.1406,510.5 652.3594,510.4688 652.4844,510.375 C652.75,510.2344 652.8906,509.9375 652.8906,509.6563 C652.8906,509.375 652.7656,509.125 652.5469,508.9531 C652.375,508.8281 652.2344,508.7969 651.7813,508.7969 L651.3906,508.7969 L651.7813,507.8125 L655.8281,507.8125 Z M655.125,506.1094 L652.4531,506.1094 L653.7969,502.8438 L655.125,506.1094 Z " fill="#000000"/><text fill="#000000" font-family="sans-serif" font-size="14" font-style="italic" lengthAdjust="spacing" textLength="96" x="674.25" y="510.8467">StatsMapping</text><line style="stroke:#181818;stroke-width:0.5;" x1="599.5" x2="812.5" y1="522" y2="522"/><rect fill="none" height="6" style="stroke:#C82930;stroke-width:1.0;" width="6" x="606.5" y="552.9453"/><text fill="#000000" font-family="sans-serif" font-size="14" lengthAdjust="spacing" textLength="125" x="618.5" y="559.292">dbType : DBType</text><line style="stroke:#181818;stroke-width:1.0;stroke-dasharray:1.0,2.0;" x1="599.5" x2="668.5" y1="538.1484" y2="538.1484"/><text fill="#000000" font-family="sans-serif" font-size="14" lengthAdjust="spacing" textLength="75" x="668.5" y="542.4951">Attributes</text><line style="stroke:#181818;stroke-width:1.0;stroke-dasharray:1.0,2.0;" x1="743.5" x2="812.5" y1="538.1484" y2="538.1484"/><line style="stroke:#181818;stroke-width:1.0;" x1="599.5" x2="675" y1="574.7422" y2="574.7422"/><text fill="#000000" font-family="sans-serif" font-size="14" lengthAdjust="spacing" textLength="62" x="675" y="579.0889">Methods</text><line style="stroke:#181818;stroke-width:1.0;" x1="737" x2="812.5" y1="574.7422" y2="574.7422"/><ellipse cx="609.5" cy="616.9844" fill="#84BE84" rx="3" ry="3" style="stroke:#038048;stroke-width:1.0;"/><text fill="#000000" font-family="sans-serif" font-size="14" lengthAdjust="spacing" textLength="110" x="618.5" y="620.3311">StatsMapping()</text><ellipse cx="609.5" cy="633.2813" fill="#84BE84" rx="3" ry="3" style="stroke:#038048;stroke-width:1.0;"/><text fill="#000000" font-family="sans-serif" font-size="14" lengthAdjust="spacing" textLength="189" x="618.5" y="636.6279">StatsMapping(int dbType)</text><line style="stroke:#181818;stroke-width:1.0;stroke-dasharray:1.0,2.0;" x1="599.5" x2="659.5" y1="599.1875" y2="599.1875"/><text fill="#000000" font-family="sans-serif" font-size="14" lengthAdjust="spacing" textLength="93" x="659.5" y="603.5342">Constructors</text><line style="stroke:#181818;stroke-width:1.0;stroke-dasharray:1.0,2.0;" x1="752.5" x2="812.5" y1="599.1875" y2="599.1875"/></g><!--class Requests--><g id="elem_Requests"><rect codeLine="84" fill="#F1F1F1" height="153.9297" id="Requests" rx="2.5" ry="2.5" style="stroke:#181818;stroke-width:0.5;" width="181" x="848.5" y="490"/><ellipse cx="902.25" cy="506" fill="#A9DCDF" rx="11" ry="11" style="stroke:#181818;stroke-width:1.0;"/><path d="M904.3281,507.8125 L904.7188,508.7969 L904.3281,508.7969 C903.875,508.7969 903.7656,508.8125 903.6094,508.9219 C903.3594,509.0781 903.2031,509.3594 903.2031,509.6563 C903.2031,509.9219 903.3438,510.1719 903.5625,510.3281 C903.7031,510.4531 903.9063,510.5 904.3281,510.5 L906.6875,510.5 C907.0469,510.5 907.2656,510.4688 907.4063,510.375 C907.6563,510.2344 907.8125,509.9375 907.8125,509.6563 C907.8125,509.375 907.6719,509.125 907.4531,508.9688 C907.2813,508.8281 907.125,508.7969 906.6563,508.7969 L903.2656,500.5938 L899.5938,500.5938 C899.1406,500.5938 899.0156,500.6094 898.8594,500.7031 C898.6094,500.875 898.4531,501.1563 898.4531,501.4375 C898.4531,501.7188 898.5938,501.9688 898.8125,502.1406 C898.9844,502.25 899.1563,502.2813 899.5938,502.2813 L900.6719,502.2813 L898.0313,508.7969 C897.6094,508.7969 897.4531,508.8125 897.2969,508.9219 C897.0469,509.0781 896.8906,509.3594 896.8906,509.6563 C896.8906,510.2188 897.2656,510.5 898.0156,510.5 L900.2813,510.5 C900.6406,510.5 900.8594,510.4688 900.9844,510.375 C901.25,510.2344 901.3906,509.9375 901.3906,509.6563 C901.3906,509.375 901.2656,509.125 901.0469,508.9531 C900.875,508.8281 900.7344,508.7969 900.2813,508.7969 L899.8906,508.7969 L900.2813,507.8125 L904.3281,507.8125 Z M903.625,506.1094 L900.9531,506.1094 L902.2969,502.8438 L903.625,506.1094 Z " fill="#000000"/><text fill="#000000" font-family="sans-serif" font-size="14" font-style="italic" lengthAdjust="spacing" textLength="65" x="922.75" y="510.8467">Requests</text><line style="stroke:#181818;stroke-width:0.5;" x1="849.5" x2="1028.5" y1="522" y2="522"/><rect fill="none" height="6" style="stroke:#C82930;stroke-width:1.0;" width="6" x="856.5" y="552.9453"/><text fill="#000000" font-family="sans-serif" font-size="14" lengthAdjust="spacing" textLength="125" x="868.5" y="559.292">dbType : DBType</text><line style="stroke:#181818;stroke-width:1.0;stroke-dasharray:1.0,2.0;" x1="849.5" x2="901.5" y1="538.1484" y2="538.1484"/><text fill="#000000" font-family="sans-serif" font-size="14" lengthAdjust="spacing" textLength="75" x="901.5" y="542.4951">Attributes</text><line style="stroke:#181818;stroke-width:1.0;stroke-dasharray:1.0,2.0;" x1="976.5" x2="1028.5" y1="538.1484" y2="538.1484"/><line style="stroke:#181818;stroke-width:1.0;" x1="849.5" x2="908" y1="574.7422" y2="574.7422"/><text fill="#000000" font-family="sans-serif" font-size="14" lengthAdjust="spacing" textLength="62" x="908" y="579.0889">Methods</text><line style="stroke:#181818;stroke-width:1.0;" x1="970" x2="1028.5" y1="574.7422" y2="574.7422"/><ellipse cx="859.5" cy="616.9844" fill="#84BE84" rx="3" ry="3" style="stroke:#038048;stroke-width:1.0;"/><text fill="#000000" font-family="sans-serif" font-size="14" lengthAdjust="spacing" textLength="76" x="868.5" y="620.3311">Requests()</text><ellipse cx="859.5" cy="633.2813" fill="#84BE84" rx="3" ry="3" style="stroke:#038048;stroke-width:1.0;"/><text fill="#000000" font-family="sans-serif" font-size="14" lengthAdjust="spacing" textLength="155" x="868.5" y="636.6279">Requests(int dbType)</text><line style="stroke:#181818;stroke-width:1.0;stroke-dasharray:1.0,2.0;" x1="849.5" x2="892.5" y1="599.1875" y2="599.1875"/><text fill="#000000" font-family="sans-serif" font-size="14" lengthAdjust="spacing" textLength="93" x="892.5" y="603.5342">Constructors</text><line style="stroke:#181818;stroke-width:1.0;stroke-dasharray:1.0,2.0;" x1="985.5" x2="1028.5" y1="599.1875" y2="599.1875"/></g><!--class SQLConn--><g id="elem_SQLConn"><rect codeLine="93" fill="#F1F1F1" height="247.5625" id="SQLConn" rx="2.5" ry="2.5" style="stroke:#181818;stroke-width:0.5;" width="671" x="1987.5" y="751"/><ellipse cx="2214.75" cy="767" fill="#ADD1B2" rx="11" ry="11" style="stroke:#181818;stroke-width:1.0;"/><path d="M2217.0938,762.6719 C2216.1563,762.2344 2215.5625,762.0938 2214.6875,762.0938 C2212.0625,762.0938 2210.0625,764.1719 2210.0625,766.8906 L2210.0625,768.0156 C2210.0625,770.5938 2212.1719,772.4844 2215.0625,772.4844 C2216.2813,772.4844 2217.4375,772.1875 2218.1875,771.6406 C2218.7656,771.2344 2219.0938,770.7813 2219.0938,770.3906 C2219.0938,769.9375 2218.7031,769.5469 2218.2344,769.5469 C2218.0156,769.5469 2217.8125,769.625 2217.625,769.8125 C2217.1719,770.2969 2217.1719,770.2969 2216.9844,770.3906 C2216.5625,770.6563 2215.875,770.7813 2215.1094,770.7813 C2213.0625,770.7813 2211.7656,769.6875 2211.7656,767.9844 L2211.7656,766.8906 C2211.7656,765.1094 2213.0156,763.7969 2214.75,763.7969 C2215.3281,763.7969 2215.9375,763.9531 2216.4063,764.2031 C2216.8906,764.4844 2217.0625,764.7031 2217.1563,765.1094 C2217.2188,765.5156 2217.25,765.6406 2217.3906,765.7656 C2217.5313,765.9063 2217.7656,766.0156 2217.9844,766.0156 C2218.25,766.0156 2218.5156,765.875 2218.6875,765.6563 C2218.7969,765.5 2218.8281,765.3125 2218.8281,764.8906 L2218.8281,763.4688 C2218.8281,763.0313 2218.8125,762.9063 2218.7188,762.75 C2218.5625,762.4844 2218.2813,762.3438 2217.9844,762.3438 C2217.6875,762.3438 2217.4844,762.4375 2217.2656,762.75 L2217.0938,762.6719 Z " fill="#000000"/><text fill="#000000" font-family="sans-serif" font-size="14" lengthAdjust="spacing" textLength="65" x="2235.25" y="771.8467">SQLConn</text><rect fill="#FFFFFF" height="15.9688" style="stroke:#181818;stroke-width:1.0;stroke-dasharray:2.0,2.0;" width="141" x="2520.5" y="748"/><text fill="#000000" font-family="sans-serif" font-size="12" font-style="italic" lengthAdjust="spacing" textLength="139" x="2521.5" y="760.1387">extends DatabaseConn</text><line style="stroke:#181818;stroke-width:0.5;" x1="1988.5" x2="2657.5" y1="783" y2="783"/><rect fill="none" height="6" style="stroke:#C82930;stroke-width:1.0;" width="6" x="1995.5" y="813.9453"/><text fill="#000000" font-family="sans-serif" font-size="14" lengthAdjust="spacing" textLength="131" x="2007.5" y="820.292">conn : Connection</text><rect fill="none" height="6" style="stroke:#C82930;stroke-width:1.0;" width="6" x="1995.5" y="830.2422"/><text fill="#000000" font-family="sans-serif" font-size="14" lengthAdjust="spacing" textLength="125" x="2007.5" y="836.5889">dbType : DBType</text><line style="stroke:#181818;stroke-width:1.0;stroke-dasharray:1.0,2.0;" x1="1988.5" x2="2285.5" y1="799.1484" y2="799.1484"/><text fill="#000000" font-family="sans-serif" font-size="14" lengthAdjust="spacing" textLength="75" x="2285.5" y="803.4951">Attributes</text><line style="stroke:#181818;stroke-width:1.0;stroke-dasharray:1.0,2.0;" x1="2360.5" x2="2657.5" y1="799.1484" y2="799.1484"/><line style="stroke:#181818;stroke-width:1.0;" x1="1988.5" x2="2292" y1="852.0391" y2="852.0391"/><text fill="#000000" font-family="sans-serif" font-size="14" lengthAdjust="spacing" textLength="62" x="2292" y="856.3857">Methods</text><line style="stroke:#181818;stroke-width:1.0;" x1="2354" x2="2657.5" y1="852.0391" y2="852.0391"/><ellipse cx="1998.5" cy="894.2813" fill="#84BE84" rx="3" ry="3" style="stroke:#038048;stroke-width:1.0;"/><text fill="#000000" font-family="sans-serif" font-size="14" lengthAdjust="spacing" textLength="75" x="2007.5" y="897.6279">SQLConn()</text><ellipse cx="1998.5" cy="910.5781" fill="#84BE84" rx="3" ry="3" style="stroke:#038048;stroke-width:1.0;"/><text fill="#000000" font-family="sans-serif" font-size="14" lengthAdjust="spacing" textLength="645" x="2007.5" y="913.9248">SQLConn(int dbType, string host, string port, string dbName, string user, string password)</text><line style="stroke:#181818;stroke-width:1.0;stroke-dasharray:1.0,2.0;" x1="1988.5" x2="2276.5" y1="876.4844" y2="876.4844"/><text fill="#000000" font-family="sans-serif" font-size="14" lengthAdjust="spacing" textLength="93" x="2276.5" y="880.8311">Constructors</text><line style="stroke:#181818;stroke-width:1.0;stroke-dasharray:1.0,2.0;" x1="2369.5" x2="2657.5" y1="876.4844" y2="876.4844"/><ellipse cx="1998.5" cy="947.1719" fill="#84BE84" rx="3" ry="3" style="stroke:#038048;stroke-width:1.0;"/><text fill="#000000" font-family="sans-serif" font-size="14" lengthAdjust="spacing" textLength="168" x="2007.5" y="950.5186">getConn() : Connection</text><ellipse cx="1998.5" cy="963.4688" fill="#84BE84" rx="3" ry="3" style="stroke:#038048;stroke-width:1.0;"/><text fill="#000000" font-family="sans-serif" font-size="14" lengthAdjust="spacing" textLength="162" x="2007.5" y="966.8154">getDbType() : DBType</text><line style="stroke:#181818;stroke-width:1.0;stroke-dasharray:1.0,2.0;" x1="1988.5" x2="2295" y1="929.375" y2="929.375"/><text fill="#000000" font-family="sans-serif" font-size="14" lengthAdjust="spacing" textLength="56" x="2295" y="933.7217">Getters</text><line style="stroke:#181818;stroke-width:1.0;stroke-dasharray:1.0,2.0;" x1="2351" x2="2657.5" y1="929.375" y2="929.375"/><line style="stroke:#181818;stroke-width:1.0;stroke-dasharray:1.0,2.0;" x1="1988.5" x2="2296" y1="982.2656" y2="982.2656"/><text fill="#000000" font-family="sans-serif" font-size="14" lengthAdjust="spacing" textLength="54" x="2296" y="986.6123">Setters</text><line style="stroke:#181818;stroke-width:1.0;stroke-dasharray:1.0,2.0;" x1="2350" x2="2657.5" y1="982.2656" y2="982.2656"/></g><!--class SQLRequest--><g id="elem_SQLRequest"><rect codeLine="107" fill="#F1F1F1" height="153.9297" id="SQLRequest" rx="2.5" ry="2.5" style="stroke:#181818;stroke-width:0.5;" width="230" x="1026" y="798"/><ellipse cx="1041" cy="814" fill="#ADD1B2" rx="11" ry="11" style="stroke:#181818;stroke-width:1.0;"/><path d="M1043.3438,809.6719 C1042.4063,809.2344 1041.8125,809.0938 1040.9375,809.0938 C1038.3125,809.0938 1036.3125,811.1719 1036.3125,813.8906 L1036.3125,815.0156 C1036.3125,817.5938 1038.4219,819.4844 1041.3125,819.4844 C1042.5313,819.4844 1043.6875,819.1875 1044.4375,818.6406 C1045.0156,818.2344 1045.3438,817.7813 1045.3438,817.3906 C1045.3438,816.9375 1044.9531,816.5469 1044.4844,816.5469 C1044.2656,816.5469 1044.0625,816.625 1043.875,816.8125 C1043.4219,817.2969 1043.4219,817.2969 1043.2344,817.3906 C1042.8125,817.6563 1042.125,817.7813 1041.3594,817.7813 C1039.3125,817.7813 1038.0156,816.6875 1038.0156,814.9844 L1038.0156,813.8906 C1038.0156,812.1094 1039.2656,810.7969 1041,810.7969 C1041.5781,810.7969 1042.1875,810.9531 1042.6563,811.2031 C1043.1406,811.4844 1043.3125,811.7031 1043.4063,812.1094 C1043.4688,812.5156 1043.5,812.6406 1043.6406,812.7656 C1043.7813,812.9063 1044.0156,813.0156 1044.2344,813.0156 C1044.5,813.0156 1044.7656,812.875 1044.9375,812.6563 C1045.0469,812.5 1045.0781,812.3125 1045.0781,811.8906 L1045.0781,810.4688 C1045.0781,810.0313 1045.0625,809.9063 1044.9688,809.75 C1044.8125,809.4844 1044.5313,809.3438 1044.2344,809.3438 C1043.9375,809.3438 1043.7344,809.4375 1043.5156,809.75 L1043.3438,809.6719 Z " fill="#000000"/><text fill="#000000" font-family="sans-serif" font-size="14" lengthAdjust="spacing" textLength="87" x="1055" y="818.8467">SQLRequest</text><rect fill="#FFFFFF" height="15.9688" style="stroke:#181818;stroke-width:1.0;stroke-dasharray:2.0,2.0;" width="109" x="1150" y="795"/><text fill="#000000" font-family="sans-serif" font-size="12" font-style="italic" lengthAdjust="spacing" textLength="107" x="1151" y="807.1387">extends Requests</text><line style="stroke:#181818;stroke-width:0.5;" x1="1027" x2="1255" y1="830" y2="830"/><rect fill="none" height="6" style="stroke:#C82930;stroke-width:1.0;" width="6" x="1034" y="860.9453"/><text fill="#000000" font-family="sans-serif" font-size="14" lengthAdjust="spacing" textLength="125" x="1046" y="867.292">dbType : DBType</text><line style="stroke:#181818;stroke-width:1.0;stroke-dasharray:1.0,2.0;" x1="1027" x2="1103.5" y1="846.1484" y2="846.1484"/><text fill="#000000" font-family="sans-serif" font-size="14" lengthAdjust="spacing" textLength="75" x="1103.5" y="850.4951">Attributes</text><line style="stroke:#181818;stroke-width:1.0;stroke-dasharray:1.0,2.0;" x1="1178.5" x2="1255" y1="846.1484" y2="846.1484"/><line style="stroke:#181818;stroke-width:1.0;" x1="1027" x2="1110" y1="882.7422" y2="882.7422"/><text fill="#000000" font-family="sans-serif" font-size="14" lengthAdjust="spacing" textLength="62" x="1110" y="887.0889">Methods</text><line style="stroke:#181818;stroke-width:1.0;" x1="1172" x2="1255" y1="882.7422" y2="882.7422"/><ellipse cx="1037" cy="924.9844" fill="#84BE84" rx="3" ry="3" style="stroke:#038048;stroke-width:1.0;"/><text fill="#000000" font-family="sans-serif" font-size="14" lengthAdjust="spacing" textLength="97" x="1046" y="928.3311">SQLRequest()</text><ellipse cx="1037" cy="941.2813" fill="#84BE84" rx="3" ry="3" style="stroke:#038048;stroke-width:1.0;"/><text fill="#000000" font-family="sans-serif" font-size="14" lengthAdjust="spacing" textLength="176" x="1046" y="944.6279">SQLRequest(int dbType)</text><line style="stroke:#181818;stroke-width:1.0;stroke-dasharray:1.0,2.0;" x1="1027" x2="1094.5" y1="907.1875" y2="907.1875"/><text fill="#000000" font-family="sans-serif" font-size="14" lengthAdjust="spacing" textLength="93" x="1094.5" y="911.5342">Constructors</text><line style="stroke:#181818;stroke-width:1.0;stroke-dasharray:1.0,2.0;" x1="1187.5" x2="1255" y1="907.1875" y2="907.1875"/></g><!--class ClientSQLMapping--><g id="elem_ClientSQLMapping"><rect codeLine="116" fill="#F1F1F1" height="153.9297" id="ClientSQLMapping" rx="2.5" ry="2.5" style="stroke:#181818;stroke-width:0.5;" width="307" x="1291.5" y="798"/><ellipse cx="1306.5" cy="814" fill="#ADD1B2" rx="11" ry="11" style="stroke:#181818;stroke-width:1.0;"/><path d="M1308.8438,809.6719 C1307.9063,809.2344 1307.3125,809.0938 1306.4375,809.0938 C1303.8125,809.0938 1301.8125,811.1719 1301.8125,813.8906 L1301.8125,815.0156 C1301.8125,817.5938 1303.9219,819.4844 1306.8125,819.4844 C1308.0313,819.4844 1309.1875,819.1875 1309.9375,818.6406 C1310.5156,818.2344 1310.8438,817.7813 1310.8438,817.3906 C1310.8438,816.9375 1310.4531,816.5469 1309.9844,816.5469 C1309.7656,816.5469 1309.5625,816.625 1309.375,816.8125 C1308.9219,817.2969 1308.9219,817.2969 1308.7344,817.3906 C1308.3125,817.6563 1307.625,817.7813 1306.8594,817.7813 C1304.8125,817.7813 1303.5156,816.6875 1303.5156,814.9844 L1303.5156,813.8906 C1303.5156,812.1094 1304.7656,810.7969 1306.5,810.7969 C1307.0781,810.7969 1307.6875,810.9531 1308.1563,811.2031 C1308.6406,811.4844 1308.8125,811.7031 1308.9063,812.1094 C1308.9688,812.5156 1309,812.6406 1309.1406,812.7656 C1309.2813,812.9063 1309.5156,813.0156 1309.7344,813.0156 C1310,813.0156 1310.2656,812.875 1310.4375,812.6563 C1310.5469,812.5 1310.5781,812.3125 1310.5781,811.8906 L1310.5781,810.4688 C1310.5781,810.0313 1310.5625,809.9063 1310.4688,809.75 C1310.3125,809.4844 1310.0313,809.3438 1309.7344,809.3438 C1309.4375,809.3438 1309.2344,809.4375 1309.0156,809.75 L1308.8438,809.6719 Z " fill="#000000"/><text fill="#000000" font-family="sans-serif" font-size="14" lengthAdjust="spacing" textLength="133" x="1320.5" y="818.8467">ClientSQLMapping</text><rect fill="#FFFFFF" height="15.9688" style="stroke:#181818;stroke-width:1.0;stroke-dasharray:2.0,2.0;" width="140" x="1461.5" y="795"/><text fill="#000000" font-family="sans-serif" font-size="12" font-style="italic" lengthAdjust="spacing" textLength="138" x="1462.5" y="807.1387">extends ClientMapping</text><line style="stroke:#181818;stroke-width:0.5;" x1="1292.5" x2="1597.5" y1="830" y2="830"/><rect fill="none" height="6" style="stroke:#C82930;stroke-width:1.0;" width="6" x="1299.5" y="860.9453"/><text fill="#000000" font-family="sans-serif" font-size="14" lengthAdjust="spacing" textLength="125" x="1311.5" y="867.292">dbType : DBType</text><line style="stroke:#181818;stroke-width:1.0;stroke-dasharray:1.0,2.0;" x1="1292.5" x2="1407.5" y1="846.1484" y2="846.1484"/><text fill="#000000" font-family="sans-serif" font-size="14" lengthAdjust="spacing" textLength="75" x="1407.5" y="850.4951">Attributes</text><line style="stroke:#181818;stroke-width:1.0;stroke-dasharray:1.0,2.0;" x1="1482.5" x2="1597.5" y1="846.1484" y2="846.1484"/><line style="stroke:#181818;stroke-width:1.0;" x1="1292.5" x2="1414" y1="882.7422" y2="882.7422"/><text fill="#000000" font-family="sans-serif" font-size="14" lengthAdjust="spacing" textLength="62" x="1414" y="887.0889">Methods</text><line style="stroke:#181818;stroke-width:1.0;" x1="1476" x2="1597.5" y1="882.7422" y2="882.7422"/><ellipse cx="1302.5" cy="924.9844" fill="#84BE84" rx="3" ry="3" style="stroke:#038048;stroke-width:1.0;"/><text fill="#000000" font-family="sans-serif" font-size="14" lengthAdjust="spacing" textLength="143" x="1311.5" y="928.3311">ClientSQLMapping()</text><ellipse cx="1302.5" cy="941.2813" fill="#84BE84" rx="3" ry="3" style="stroke:#038048;stroke-width:1.0;"/><text fill="#000000" font-family="sans-serif" font-size="14" lengthAdjust="spacing" textLength="222" x="1311.5" y="944.6279">ClientSQLMapping(int dbType)</text><line style="stroke:#181818;stroke-width:1.0;stroke-dasharray:1.0,2.0;" x1="1292.5" x2="1398.5" y1="907.1875" y2="907.1875"/><text fill="#000000" font-family="sans-serif" font-size="14" lengthAdjust="spacing" textLength="93" x="1398.5" y="911.5342">Constructors</text><line style="stroke:#181818;stroke-width:1.0;stroke-dasharray:1.0,2.0;" x1="1491.5" x2="1597.5" y1="907.1875" y2="907.1875"/></g><!--class StocksSQLMapping--><g id="elem_StocksSQLMapping"><rect codeLine="125" fill="#F1F1F1" height="153.9297" id="StocksSQLMapping" rx="2.5" ry="2.5" style="stroke:#181818;stroke-width:0.5;" width="319" x="1633.5" y="798"/><ellipse cx="1648.5" cy="814" fill="#ADD1B2" rx="11" ry="11" style="stroke:#181818;stroke-width:1.0;"/><path d="M1650.8438,809.6719 C1649.9063,809.2344 1649.3125,809.0938 1648.4375,809.0938 C1645.8125,809.0938 1643.8125,811.1719 1643.8125,813.8906 L1643.8125,815.0156 C1643.8125,817.5938 1645.9219,819.4844 1648.8125,819.4844 C1650.0313,819.4844 1651.1875,819.1875 1651.9375,818.6406 C1652.5156,818.2344 1652.8438,817.7813 1652.8438,817.3906 C1652.8438,816.9375 1652.4531,816.5469 1651.9844,816.5469 C1651.7656,816.5469 1651.5625,816.625 1651.375,816.8125 C1650.9219,817.2969 1650.9219,817.2969 1650.7344,817.3906 C1650.3125,817.6563 1649.625,817.7813 1648.8594,817.7813 C1646.8125,817.7813 1645.5156,816.6875 1645.5156,814.9844 L1645.5156,813.8906 C1645.5156,812.1094 1646.7656,810.7969 1648.5,810.7969 C1649.0781,810.7969 1649.6875,810.9531 1650.1563,811.2031 C1650.6406,811.4844 1650.8125,811.7031 1650.9063,812.1094 C1650.9688,812.5156 1651,812.6406 1651.1406,812.7656 C1651.2813,812.9063 1651.5156,813.0156 1651.7344,813.0156 C1652,813.0156 1652.2656,812.875 1652.4375,812.6563 C1652.5469,812.5 1652.5781,812.3125 1652.5781,811.8906 L1652.5781,810.4688 C1652.5781,810.0313 1652.5625,809.9063 1652.4688,809.75 C1652.3125,809.4844 1652.0313,809.3438 1651.7344,809.3438 C1651.4375,809.3438 1651.2344,809.4375 1651.0156,809.75 L1650.8438,809.6719 Z " fill="#000000"/><text fill="#000000" font-family="sans-serif" font-size="14" lengthAdjust="spacing" textLength="139" x="1662.5" y="818.8467">StocksSQLMapping</text><rect fill="#FFFFFF" height="15.9688" style="stroke:#181818;stroke-width:1.0;stroke-dasharray:2.0,2.0;" width="146" x="1809.5" y="795"/><text fill="#000000" font-family="sans-serif" font-size="12" font-style="italic" lengthAdjust="spacing" textLength="144" x="1810.5" y="807.1387">extends StocksMapping</text><line style="stroke:#181818;stroke-width:0.5;" x1="1634.5" x2="1951.5" y1="830" y2="830"/><rect fill="none" height="6" style="stroke:#C82930;stroke-width:1.0;" width="6" x="1641.5" y="860.9453"/><text fill="#000000" font-family="sans-serif" font-size="14" lengthAdjust="spacing" textLength="125" x="1653.5" y="867.292">dbType : DBType</text><line style="stroke:#181818;stroke-width:1.0;stroke-dasharray:1.0,2.0;" x1="1634.5" x2="1755.5" y1="846.1484" y2="846.1484"/><text fill="#000000" font-family="sans-serif" font-size="14" lengthAdjust="spacing" textLength="75" x="1755.5" y="850.4951">Attributes</text><line style="stroke:#181818;stroke-width:1.0;stroke-dasharray:1.0,2.0;" x1="1830.5" x2="1951.5" y1="846.1484" y2="846.1484"/><line style="stroke:#181818;stroke-width:1.0;" x1="1634.5" x2="1762" y1="882.7422" y2="882.7422"/><text fill="#000000" font-family="sans-serif" font-size="14" lengthAdjust="spacing" textLength="62" x="1762" y="887.0889">Methods</text><line style="stroke:#181818;stroke-width:1.0;" x1="1824" x2="1951.5" y1="882.7422" y2="882.7422"/><ellipse cx="1644.5" cy="924.9844" fill="#84BE84" rx="3" ry="3" style="stroke:#038048;stroke-width:1.0;"/><text fill="#000000" font-family="sans-serif" font-size="14" lengthAdjust="spacing" textLength="149" x="1653.5" y="928.3311">StocksSQLMapping()</text><ellipse cx="1644.5" cy="941.2813" fill="#84BE84" rx="3" ry="3" style="stroke:#038048;stroke-width:1.0;"/><text fill="#000000" font-family="sans-serif" font-size="14" lengthAdjust="spacing" textLength="228" x="1653.5" y="944.6279">StocksSQLMapping(int dbType)</text><line style="stroke:#181818;stroke-width:1.0;stroke-dasharray:1.0,2.0;" x1="1634.5" x2="1746.5" y1="907.1875" y2="907.1875"/><text fill="#000000" font-family="sans-serif" font-size="14" lengthAdjust="spacing" textLength="93" x="1746.5" y="911.5342">Constructors</text><line style="stroke:#181818;stroke-width:1.0;stroke-dasharray:1.0,2.0;" x1="1839.5" x2="1951.5" y1="907.1875" y2="907.1875"/></g><!--class OrdersSQLMapping--><g id="elem_OrdersSQLMapping"><rect codeLine="134" fill="#F1F1F1" height="153.9297" id="OrdersSQLMapping" rx="2.5" ry="2.5" style="stroke:#181818;stroke-width:0.5;" width="318" x="338" y="798"/><ellipse cx="353" cy="814" fill="#ADD1B2" rx="11" ry="11" style="stroke:#181818;stroke-width:1.0;"/><path d="M355.3438,809.6719 C354.4063,809.2344 353.8125,809.0938 352.9375,809.0938 C350.3125,809.0938 348.3125,811.1719 348.3125,813.8906 L348.3125,815.0156 C348.3125,817.5938 350.4219,819.4844 353.3125,819.4844 C354.5313,819.4844 355.6875,819.1875 356.4375,818.6406 C357.0156,818.2344 357.3438,817.7813 357.3438,817.3906 C357.3438,816.9375 356.9531,816.5469 356.4844,816.5469 C356.2656,816.5469 356.0625,816.625 355.875,816.8125 C355.4219,817.2969 355.4219,817.2969 355.2344,817.3906 C354.8125,817.6563 354.125,817.7813 353.3594,817.7813 C351.3125,817.7813 350.0156,816.6875 350.0156,814.9844 L350.0156,813.8906 C350.0156,812.1094 351.2656,810.7969 353,810.7969 C353.5781,810.7969 354.1875,810.9531 354.6563,811.2031 C355.1406,811.4844 355.3125,811.7031 355.4063,812.1094 C355.4688,812.5156 355.5,812.6406 355.6406,812.7656 C355.7813,812.9063 356.0156,813.0156 356.2344,813.0156 C356.5,813.0156 356.7656,812.875 356.9375,812.6563 C357.0469,812.5 357.0781,812.3125 357.0781,811.8906 L357.0781,810.4688 C357.0781,810.0313 357.0625,809.9063 356.9688,809.75 C356.8125,809.4844 356.5313,809.3438 356.2344,809.3438 C355.9375,809.3438 355.7344,809.4375 355.5156,809.75 L355.3438,809.6719 Z " fill="#000000"/><text fill="#000000" font-family="sans-serif" font-size="14" lengthAdjust="spacing" textLength="138" x="367" y="818.8467">OrdersSQLMapping</text><rect fill="#FFFFFF" height="15.9688" style="stroke:#181818;stroke-width:1.0;stroke-dasharray:2.0,2.0;" width="146" x="513" y="795"/><text fill="#000000" font-family="sans-serif" font-size="12" font-style="italic" lengthAdjust="spacing" textLength="144" x="514" y="807.1387">extends OrdersMapping</text><line style="stroke:#181818;stroke-width:0.5;" x1="339" x2="655" y1="830" y2="830"/><rect fill="none" height="6" style="stroke:#C82930;stroke-width:1.0;" width="6" x="346" y="860.9453"/><text fill="#000000" font-family="sans-serif" font-size="14" lengthAdjust="spacing" textLength="125" x="358" y="867.292">dbType : DBType</text><line style="stroke:#181818;stroke-width:1.0;stroke-dasharray:1.0,2.0;" x1="339" x2="459.5" y1="846.1484" y2="846.1484"/><text fill="#000000" font-family="sans-serif" font-size="14" lengthAdjust="spacing" textLength="75" x="459.5" y="850.4951">Attributes</text><line style="stroke:#181818;stroke-width:1.0;stroke-dasharray:1.0,2.0;" x1="534.5" x2="655" y1="846.1484" y2="846.1484"/><line style="stroke:#181818;stroke-width:1.0;" x1="339" x2="466" y1="882.7422" y2="882.7422"/><text fill="#000000" font-family="sans-serif" font-size="14" lengthAdjust="spacing" textLength="62" x="466" y="887.0889">Methods</text><line style="stroke:#181818;stroke-width:1.0;" x1="528" x2="655" y1="882.7422" y2="882.7422"/><ellipse cx="349" cy="924.9844" fill="#84BE84" rx="3" ry="3" style="stroke:#038048;stroke-width:1.0;"/><text fill="#000000" font-family="sans-serif" font-size="14" lengthAdjust="spacing" textLength="148" x="358" y="928.3311">OrdersSQLMapping()</text><ellipse cx="349" cy="941.2813" fill="#84BE84" rx="3" ry="3" style="stroke:#038048;stroke-width:1.0;"/><text fill="#000000" font-family="sans-serif" font-size="14" lengthAdjust="spacing" textLength="227" x="358" y="944.6279">OrdersSQLMapping(int dbType)</text><line style="stroke:#181818;stroke-width:1.0;stroke-dasharray:1.0,2.0;" x1="339" x2="450.5" y1="907.1875" y2="907.1875"/><text fill="#000000" font-family="sans-serif" font-size="14" lengthAdjust="spacing" textLength="93" x="450.5" y="911.5342">Constructors</text><line style="stroke:#181818;stroke-width:1.0;stroke-dasharray:1.0,2.0;" x1="543.5" x2="655" y1="907.1875" y2="907.1875"/></g><!--class StatsSQLMapping--><g id="elem_StatsSQLMapping"><rect codeLine="143" fill="#F1F1F1" height="153.9297" id="StatsSQLMapping" rx="2.5" ry="2.5" style="stroke:#181818;stroke-width:0.5;" width="299" x="691.5" y="798"/><ellipse cx="706.5" cy="814" fill="#ADD1B2" rx="11" ry="11" style="stroke:#181818;stroke-width:1.0;"/><path d="M708.8438,809.6719 C707.9063,809.2344 707.3125,809.0938 706.4375,809.0938 C703.8125,809.0938 701.8125,811.1719 701.8125,813.8906 L701.8125,815.0156 C701.8125,817.5938 703.9219,819.4844 706.8125,819.4844 C708.0313,819.4844 709.1875,819.1875 709.9375,818.6406 C710.5156,818.2344 710.8438,817.7813 710.8438,817.3906 C710.8438,816.9375 710.4531,816.5469 709.9844,816.5469 C709.7656,816.5469 709.5625,816.625 709.375,816.8125 C708.9219,817.2969 708.9219,817.2969 708.7344,817.3906 C708.3125,817.6563 707.625,817.7813 706.8594,817.7813 C704.8125,817.7813 703.5156,816.6875 703.5156,814.9844 L703.5156,813.8906 C703.5156,812.1094 704.7656,810.7969 706.5,810.7969 C707.0781,810.7969 707.6875,810.9531 708.1563,811.2031 C708.6406,811.4844 708.8125,811.7031 708.9063,812.1094 C708.9688,812.5156 709,812.6406 709.1406,812.7656 C709.2813,812.9063 709.5156,813.0156 709.7344,813.0156 C710,813.0156 710.2656,812.875 710.4375,812.6563 C710.5469,812.5 710.5781,812.3125 710.5781,811.8906 L710.5781,810.4688 C710.5781,810.0313 710.5625,809.9063 710.4688,809.75 C710.3125,809.4844 710.0313,809.3438 709.7344,809.3438 C709.4375,809.3438 709.2344,809.4375 709.0156,809.75 L708.8438,809.6719 Z " fill="#000000"/><text fill="#000000" font-family="sans-serif" font-size="14" lengthAdjust="spacing" textLength="128" x="720.5" y="818.8467">StatsSQLMapping</text><rect fill="#FFFFFF" height="15.9688" style="stroke:#181818;stroke-width:1.0;stroke-dasharray:2.0,2.0;" width="137" x="856.5" y="795"/><text fill="#000000" font-family="sans-serif" font-size="12" font-style="italic" lengthAdjust="spacing" textLength="135" x="857.5" y="807.1387">extends StatsMapping</text><line style="stroke:#181818;stroke-width:0.5;" x1="692.5" x2="989.5" y1="830" y2="830"/><rect fill="none" height="6" style="stroke:#C82930;stroke-width:1.0;" width="6" x="699.5" y="860.9453"/><text fill="#000000" font-family="sans-serif" font-size="14" lengthAdjust="spacing" textLength="125" x="711.5" y="867.292">dbType : DBType</text><line style="stroke:#181818;stroke-width:1.0;stroke-dasharray:1.0,2.0;" x1="692.5" x2="803.5" y1="846.1484" y2="846.1484"/><text fill="#000000" font-family="sans-serif" font-size="14" lengthAdjust="spacing" textLength="75" x="803.5" y="850.4951">Attributes</text><line style="stroke:#181818;stroke-width:1.0;stroke-dasharray:1.0,2.0;" x1="878.5" x2="989.5" y1="846.1484" y2="846.1484"/><line style="stroke:#181818;stroke-width:1.0;" x1="692.5" x2="810" y1="882.7422" y2="882.7422"/><text fill="#000000" font-family="sans-serif" font-size="14" lengthAdjust="spacing" textLength="62" x="810" y="887.0889">Methods</text><line style="stroke:#181818;stroke-width:1.0;" x1="872" x2="989.5" y1="882.7422" y2="882.7422"/><ellipse cx="702.5" cy="924.9844" fill="#84BE84" rx="3" ry="3" style="stroke:#038048;stroke-width:1.0;"/><text fill="#000000" font-family="sans-serif" font-size="14" lengthAdjust="spacing" textLength="138" x="711.5" y="928.3311">StatsSQLMapping()</text><ellipse cx="702.5" cy="941.2813" fill="#84BE84" rx="3" ry="3" style="stroke:#038048;stroke-width:1.0;"/><text fill="#000000" font-family="sans-serif" font-size="14" lengthAdjust="spacing" textLength="217" x="711.5" y="944.6279">StatsSQLMapping(int dbType)</text><line style="stroke:#181818;stroke-width:1.0;stroke-dasharray:1.0,2.0;" x1="692.5" x2="794.5" y1="907.1875" y2="907.1875"/><text fill="#000000" font-family="sans-serif" font-size="14" lengthAdjust="spacing" textLength="93" x="794.5" y="911.5342">Constructors</text><line style="stroke:#181818;stroke-width:1.0;stroke-dasharray:1.0,2.0;" x1="887.5" x2="989.5" y1="907.1875" y2="907.1875"/></g><!--class DBType--><g id="elem_DBType"><rect codeLine="3" fill="#F1F1F1" height="113.1875" id="DBType" rx="2.5" ry="2.5" style="stroke:#181818;stroke-width:0.5;" width="108" x="885" y="7"/><ellipse cx="908.55" cy="23" fill="#EB937F" rx="11" ry="11" style="stroke:#181818;stroke-width:1.0;"/><path d="M907.3469,23.875 L908.8,23.875 L908.8,23.9844 C908.8,24.3906 908.8313,24.5469 908.9094,24.7031 C909.0656,24.9531 909.3469,25.1094 909.6438,25.1094 C909.8938,25.1094 910.1594,24.9688 910.3156,24.75 C910.4406,24.5938 910.4719,24.4375 910.4719,23.9844 L910.4719,22.0625 C910.4719,21.9063 910.4719,21.8594 910.4563,21.7031 C910.3938,21.2344 910.0813,20.9219 909.6281,20.9219 C909.3781,20.9219 909.1125,21.0625 908.9406,21.2813 C908.8313,21.4531 908.8,21.6094 908.8,22.0625 L908.8,22.1875 L907.3469,22.1875 L907.3469,19.7813 L911.3313,19.7813 L911.3313,20.6406 C911.3313,21.0469 911.3625,21.2188 911.4406,21.375 C911.6125,21.625 911.8938,21.7813 912.175,21.7813 C912.4406,21.7813 912.7063,21.6406 912.8781,21.4219 C912.9875,21.25 913.0188,21.1094 913.0188,20.6406 L913.0188,18.0938 L905.3938,18.0938 C904.9563,18.0938 904.8313,18.1094 904.675,18.2031 C904.425,18.3594 904.2688,18.6563 904.2688,18.9375 C904.2688,19.2188 904.4094,19.4688 904.6281,19.6406 C904.7844,19.75 904.9719,19.7813 905.3938,19.7813 L905.6438,19.7813 L905.6438,26.2969 L905.3938,26.2969 C904.9875,26.2969 904.8313,26.3125 904.675,26.4219 C904.425,26.5938 904.2688,26.8594 904.2688,27.1563 C904.2688,27.4219 904.4094,27.6719 904.6281,27.8281 C904.7688,27.9531 905.0031,28 905.3938,28 L913.3938,28 L913.3938,25.4219 C913.3938,24.9844 913.3625,24.8438 913.2844,24.6875 C913.1125,24.4375 912.8313,24.2813 912.55,24.2813 C912.2844,24.2813 912.0188,24.3906 911.8469,24.6406 C911.7375,24.7969 911.7063,24.9375 911.7063,25.4219 L911.7063,26.2969 L907.3469,26.2969 L907.3469,23.875 Z " fill="#000000"/><text fill="#000000" font-family="sans-serif" font-size="14" lengthAdjust="spacing" textLength="57" x="924.45" y="27.8467">DBType</text><line style="stroke:#181818;stroke-width:0.5;" x1="886" x2="992" y1="39" y2="39"/><text fill="#000000" font-family="sans-serif" font-size="14" lengthAdjust="spacing" textLength="49" x="891" y="55.9951">MYSQL</text><text fill="#000000" font-family="sans-serif" font-size="14" lengthAdjust="spacing" textLength="96" x="891" y="72.292">POSTGRESQL</text><text fill="#000000" font-family="sans-serif" font-size="14" lengthAdjust="spacing" textLength="58" x="891" y="88.5889">ORACLE</text><text fill="#000000" font-family="sans-serif" font-size="14" lengthAdjust="spacing" textLength="85" x="891" y="104.8857">SQLSERVER</text><line style="stroke:#181818;stroke-width:0.5;" x1="886" x2="992" y1="112.1875" y2="112.1875"/></g><!--link DatabaseManager to Database--><g id="link_DatabaseManager_Database"><path codeLine="152" d="M152.711,383.25 C152.889,408.555 153.0386,429.7681 153.2186,455.2631 " fill="none" id="DatabaseManager-to-Database" style="stroke:#181818;stroke-width:1.0;"/><polygon fill="#181818" points="153.261,461.263,157.1974,452.235,153.2257,456.2631,149.1976,452.2915,153.261,461.263" style="stroke:#181818;stroke-width:1.0;"/></g><!--link DatabaseManager to ClientMapping--><g id="link_DatabaseManager_ClientMapping"><path codeLine="153" d="M281.733,287.454 C497.617,297.671 919.493,326.615 1047,400 C1083.43,420.967 1109.763,451.7789 1131.293,484.8009 " fill="none" id="DatabaseManager-to-ClientMapping" style="stroke:#181818;stroke-width:1.0;"/><polygon fill="#181818" points="1134.57,489.827,1133.0053,480.1032,1131.8392,485.6386,1126.3038,484.4725,1134.57,489.827" style="stroke:#181818;stroke-width:1.0;"/></g><!--link DatabaseManager to StocksMapping--><g id="link_DatabaseManager_StocksMapping"><path codeLine="154" d="M281.734,283.211 C544.482,286.659 1129.23,305.106 1302,400 C1339.33,420.502 1366.3998,451.5094 1388.4898,484.7594 " fill="none" id="DatabaseManager-to-StocksMapping" style="stroke:#181818;stroke-width:1.0;"/><polygon fill="#181818" points="1391.81,489.757,1390.1614,480.0471,1389.0432,485.5923,1383.4979,484.4741,1391.81,489.757" style="stroke:#181818;stroke-width:1.0;"/></g><!--link DatabaseManager to OrdersMapping--><g id="link_DatabaseManager_OrdersMapping"><path codeLine="155" d="M279.583,383.286 C285.886,388.853 292.059,394.444 298,400 C327.915,427.975 354.8815,456.3173 381.0795,485.3383 " fill="none" id="DatabaseManager-to-OrdersMapping" style="stroke:#181818;stroke-width:1.0;"/><polygon fill="#181818" points="385.1,489.792,382.0384,480.4311,381.7496,486.0806,376.1001,485.7917,385.1,489.792" style="stroke:#181818;stroke-width:1.0;"/></g><!--link DatabaseManager to StatsMapping--><g id="link_DatabaseManager_StatsMapping"><path codeLine="156" d="M281.81,295.688 C372.062,309.938 491.71,339.39 581,400 C614.73,422.896 639.7331,452.9136 660.8341,484.9006 " fill="none" id="DatabaseManager-to-StatsMapping" style="stroke:#181818;stroke-width:1.0;"/><polygon fill="#181818" points="664.138,489.909,662.5211,480.1938,661.3847,485.7353,655.8432,484.599,664.138,489.909" style="stroke:#181818;stroke-width:1.0;"/></g><!--link DatabaseManager to Requests--><g id="link_DatabaseManager_Requests"><path codeLine="157" d="M281.544,292.584 C452.667,307.969 742.719,341.823 831,400 C863.872,421.662 886.0845,451.8797 903.7585,484.4967 " fill="none" id="DatabaseManager-to-Requests" style="stroke:#181818;stroke-width:1.0;"/><polygon fill="#181818" points="906.617,489.772,905.8461,479.9534,904.2349,485.3759,898.8124,483.7647,906.617,489.772" style="stroke:#181818;stroke-width:1.0;"/></g><!--link Database to DatabaseConn--><g id="link_Database_DatabaseConn"><path codeLine="159" d="M229.468,461.04 C259.294,429.814 296.726,401.338 339.5,391.5 C372.148,383.991 1512.74,384.493 1545.5,391.5 C1598.13,402.756 1646.7009,419.307 1697.2609,440.613 " fill="none" id="Database-to-DatabaseConn" style="stroke:#181818;stroke-width:1.0;"/><polygon fill="#181818" points="1702.79,442.943,1696.0496,435.762,1698.1824,441.0014,1692.943,443.1341,1702.79,442.943" style="stroke:#181818;stroke-width:1.0;"/></g><!--link DatabaseConn to SQLConn--><g id="link_DatabaseConn_SQLConn"><path codeLine="161" d="M2092.33,691.139 C2117.16,710.819 2128.7457,720.0006 2153.5657,739.6806 " fill="none" id="DatabaseConn-to-SQLConn" style="stroke:#181818;stroke-width:1.0;"/><polygon fill="none" points="2167.67,750.864,2157.2935,734.9791,2149.8379,744.382,2167.67,750.864" style="stroke:#181818;stroke-width:1.0;"/></g><!--link Requests to SQLRequest--><g id="link_Requests_SQLRequest"><path codeLine="162" d="M989.192,644.034 C1020.16,690.94 1049.8114,735.8753 1080.8014,782.8063 " fill="none" id="Requests-to-SQLRequest" style="stroke:#181818;stroke-width:1.0;"/><polygon fill="none" points="1090.72,797.827,1085.8083,779.5001,1075.7945,786.1125,1090.72,797.827" style="stroke:#181818;stroke-width:1.0;"/></g><!--link ClientMapping to ClientSQLMapping--><g id="link_ClientMapping_ClientSQLMapping"><path codeLine="163" d="M1242.09,644.034 C1283.48,690.94 1324.4708,737.399 1365.8808,784.33 " fill="none" id="ClientMapping-to-ClientSQLMapping" style="stroke:#181818;stroke-width:1.0;"/><polygon fill="none" points="1377.79,797.827,1370.3798,780.3602,1361.3817,788.2997,1377.79,797.827" style="stroke:#181818;stroke-width:1.0;"/></g><!--link StocksMapping to StocksSQLMapping--><g id="link_StocksMapping_StocksSQLMapping"><path codeLine="164" d="M1507.77,644.283 C1525.8,661.848 1545.28,680.16 1564,696.5 C1603.79,731.23 1635.1533,756.4209 1675.1833,786.9259 " fill="none" id="StocksMapping-to-StocksSQLMapping" style="stroke:#181818;stroke-width:1.0;"/><polygon fill="none" points="1689.5,797.836,1678.82,782.1536,1671.5465,791.6981,1689.5,797.836" style="stroke:#181818;stroke-width:1.0;"/></g><!--link OrdersMapping to OrdersSQLMapping--><g id="link_OrdersMapping_OrdersSQLMapping"><path codeLine="165" d="M462.43,644.034 C469.481,690.94 475.8182,733.096 482.8732,780.027 " fill="none" id="OrdersMapping-to-OrdersSQLMapping" style="stroke:#181818;stroke-width:1.0;"/><polygon fill="none" points="485.549,797.827,488.8065,779.1351,476.9398,780.9189,485.549,797.827" style="stroke:#181818;stroke-width:1.0;"/></g><!--link StatsMapping to StatsSQLMapping--><g id="link_StatsMapping_StatsSQLMapping"><path codeLine="166" d="M739.544,644.034 C760.238,690.94 779.4234,734.4275 800.1284,781.3585 " fill="none" id="StatsMapping-to-StatsSQLMapping" style="stroke:#181818;stroke-width:1.0;"/><polygon fill="none" points="807.394,797.827,805.6179,778.9366,794.6389,783.7804,807.394,797.827" style="stroke:#181818;stroke-width:1.0;"/></g><!--reverse link DBType to DatabaseManager--><g id="link_DBType_DatabaseManager"><path codeLine="168" d="M878.9695,70.8895 C797.9265,80.2375 646.591,100.805 517,137 C436.993,159.346 350.347,192.984 281.56,222.077 " fill="none" id="DBType-backto-DatabaseManager" style="stroke:#181818;stroke-width:1.0;"/><polygon fill="#181818" points="884.93,70.202,875.5309,67.2596,879.9629,70.7749,876.4476,75.2069,884.93,70.202" style="stroke:#181818;stroke-width:1.0;"/></g><!--reverse link DBType to DatabaseConn--><g id="link_DBType_DatabaseConn"><path codeLine="169" d="M998.9532,76.5441 C1052.7032,88.2241 1130.99,107.901 1200,137 C1399.17,220.984 1610.88,348.709 1756.04,442.966 " fill="none" id="DBType-backto-DatabaseConn" style="stroke:#181818;stroke-width:1.0;"/><polygon fill="#181818" points="993.09,75.27,1001.0354,81.0899,997.976,76.3317,1002.7341,73.2723,993.09,75.27" style="stroke:#181818;stroke-width:1.0;"/></g><!--reverse link DBType to ClientMapping--><g id="link_DBType_ClientMapping"><path codeLine="170" d="M967.7127,125.514 C1010.0747,215.537 1091.22,387.962 1139.11,489.743 " fill="none" id="DBType-backto-ClientMapping" style="stroke:#181818;stroke-width:1.0;"/><polygon fill="#181818" points="965.158,120.085,965.3707,129.9316,967.2869,124.6091,972.6093,126.5253,965.158,120.085" style="stroke:#181818;stroke-width:1.0;"/></g><!--reverse link DBType to StocksMapping--><g id="link_DBType_StocksMapping"><path codeLine="171" d="M998.2973,97.0522 C1018.8073,109.2462 1036.69,121.167 1056,137 C1186.54,244.029 1310.19,398.438 1378.38,489.871 " fill="none" id="DBType-backto-StocksMapping" style="stroke:#181818;stroke-width:1.0;"/><polygon fill="#181818" points="993.14,93.986,998.8319,102.0236,997.4378,96.5412,1002.9202,95.1471,993.14,93.986" style="stroke:#181818;stroke-width:1.0;"/></g><!--reverse link DBType to OrdersMapping--><g id="link_DBType_OrdersMapping"><path codeLine="172" d="M879.3288,85.4224 C848.6288,97.6964 816.2,113.594 787,137 C660.404,238.476 552.632,396.523 495.278,489.803 " fill="none" id="DBType-backto-OrdersMapping" style="stroke:#181818;stroke-width:1.0;"/><polygon fill="#181818" points="884.9,83.195,875.0582,82.822,880.2573,85.0512,878.0281,90.2503,884.9,83.195" style="stroke:#181818;stroke-width:1.0;"/></g><!--reverse link DBType to StatsMapping--><g id="link_DBType_StatsMapping"><path codeLine="173" d="M910.6469,125.5264 C868.8209,215.5494 788.718,387.962 741.429,489.743 " fill="none" id="DBType-backto-StatsMapping" style="stroke:#181818;stroke-width:1.0;"/><polygon fill="#181818" points="913.175,120.085,905.7552,126.5616,911.0682,124.6195,913.0104,129.9325,913.175,120.085" style="stroke:#181818;stroke-width:1.0;"/></g><!--reverse link DBType to Requests--><g id="link_DBType_Requests"><path codeLine="174" d="M939,126.085 C939,216.108 939,387.962 939,489.743 " fill="none" id="DBType-backto-Requests" style="stroke:#181818;stroke-width:1.0;"/><polygon fill="#181818" points="939,120.085,935,129.085,939,125.085,943,129.085,939,120.085" style="stroke:#181818;stroke-width:1.0;"/></g><!--SRC=[rLVDZfim4BxxANpSg8K7I5T8soJQowRfXbMb7XqOPL4tDhMTRQksxru3DjXW9oGIApMdp7Y6-UR77uC0YIavW2X91YcKX1F9E9xF4G9wFE3bnwTV9U3V2AlV-clw-53_-xn9d-wtAoDkjdUBXrNzLwdIrVRBQel-8fIz425m2loro43CvqiYoOu8M1DAzi3rO-FuJafUx8uIH1pNgWZdsXJFiV7I9zbB0LIkILaMTA-E5xQiROHasJVHsQIsh6qOpu5RDXjRRcoYDSXdbeieqa0NZ0h9ZvcgaO7whfVKpSolBgZ4-Qwgvkp3gTgSAah6AAsoUNnGGEWL63MuEBu7AQ4xtuEiddWpwpqzZbFNK6X35qdbzigAlCgBx5HqaadS9BXWXv9HrI0hnSfbH9gL6MIoODJCH5s-QYBggRmY_oP9ZwxhpdirFBoQY6ScP2kKZ7T2llkahamh7WNmpb0b_KEDreX2z_AhpfOrXFhKoj7kmkaAEtVXvFMwkfHE25DBLscD-XcyphsS1gyJmk1rbUFnEXmn3LudXC7hAY-fBv5JbxUBq5NNqeq7kuNlHn1IJ0FKFDs0REKUG4yH6vAxXPyIQ2wmJHp9s_AOXj8MMel_4tjvwwkRqPROD2UPQ6ZRY5ObZURiF3HafppqYBUe7HPCfgJVBhZBm9R-_5ZN7EX9mo77P4fM7gOnq9zDew56JneEPoPJalKmZO5-H3SKPtgRqN5fCY65-rhXgdifXBVwA4eyU-qPX-0MSu6Vk-MFztCt_qlYTRsvmCsGcw-60sFxPODGS9kEeZ-9xwM5l2zOdxK-HE5rSk3LvnmKNks64NiN7ONNh85l_tQXuChZ2UiCDKBw0_SsYiBVgRPHi3S16tUM0qRku0QCt2aDFiaQoO2D6OD_]--></g></svg>