<?xml version="1.0" encoding="UTF-8" standalone="no"?><svg xmlns="http://www.w3.org/2000/svg" xmlns:xlink="http://www.w3.org/1999/xlink" contentStyleType="text/css" height="1082px" preserveAspectRatio="none" style="width:776px;height:1082px;background:#FFFFFF;" version="1.1" viewBox="0 0 776 1082" width="776px" zoomAndPan="magnify"><defs/><g><rect fill="#FFFFFF" height="988.8984" style="stroke:#181818;stroke-width:1.0;" width="10" x="56" y="47.6094"/><rect fill="#FFFFFF" height="988.8984" style="stroke:#181818;stroke-width:1.0;" width="10" x="339" y="47.6094"/><rect fill="#FFFFFF" height="30.3516" style="stroke:#181818;stroke-width:1.0;" width="10" x="612" y="125.6641"/><rect fill="#FFFFFF" height="30.3516" style="stroke:#181818;stroke-width:1.0;" width="10" x="612" y="340.125"/><rect fill="#FFFFFF" height="30.3516" style="stroke:#181818;stroke-width:1.0;" width="10" x="612" y="597.9375"/><rect fill="#FFFFFF" height="30.3516" style="stroke:#181818;stroke-width:1.0;" width="10" x="612" y="855.75"/><rect fill="#FFFFFF" height="988.8984" style="stroke:#181818;stroke-width:1.0;" width="10" x="718" y="47.6094"/><rect fill="none" height="200.4609" style="stroke:#000000;stroke-width:1.5;" width="760.5" x="10" y="54.6094"/><rect fill="none" height="243.8125" style="stroke:#000000;stroke-width:1.5;" width="760.5" x="10" y="269.0703"/><rect fill="none" height="243.8125" style="stroke:#000000;stroke-width:1.5;" width="760.5" x="10" y="526.8828"/><rect fill="none" height="243.8125" style="stroke:#000000;stroke-width:1.5;" width="760.5" x="10" y="784.6953"/><line style="stroke:#181818;stroke-width:0.5;stroke-dasharray:5.0,5.0;" x1="61" x2="61" y1="37.6094" y2="1045.5078"/><line style="stroke:#181818;stroke-width:0.5;stroke-dasharray:5.0,5.0;" x1="344" x2="344" y1="37.6094" y2="1045.5078"/><line style="stroke:#181818;stroke-width:0.5;stroke-dasharray:5.0,5.0;" x1="616.5" x2="616.5" y1="37.6094" y2="1045.5078"/><line style="stroke:#181818;stroke-width:0.5;stroke-dasharray:5.0,5.0;" x1="722.5" x2="722.5" y1="37.6094" y2="1045.5078"/><rect fill="#E2E2F0" height="31.6094" rx="2.5" ry="2.5" style="stroke:#181818;stroke-width:0.5;" width="82" x="20" y="5"/><text fill="#000000" font-family="sans-serif" font-size="14" lengthAdjust="spacing" textLength="68" x="27" y="26.5332">Formulaire</text><rect fill="#E2E2F0" height="31.6094" rx="2.5" ry="2.5" style="stroke:#181818;stroke-width:0.5;" width="82" x="20" y="1044.5078"/><text fill="#000000" font-family="sans-serif" font-size="14" lengthAdjust="spacing" textLength="68" x="27" y="1066.041">Formulaire</text><rect fill="#E2E2F0" height="31.6094" rx="2.5" ry="2.5" style="stroke:#181818;stroke-width:0.5;" width="110" x="289" y="5"/><text fill="#000000" font-family="sans-serif" font-size="14" lengthAdjust="spacing" textLength="96" x="296" y="26.5332">ProductService</text><rect fill="#E2E2F0" height="31.6094" rx="2.5" ry="2.5" style="stroke:#181818;stroke-width:0.5;" width="110" x="289" y="1044.5078"/><text fill="#000000" font-family="sans-serif" font-size="14" lengthAdjust="spacing" textLength="96" x="296" y="1066.041">ProductService</text><rect fill="#E2E2F0" height="31.6094" rx="2.5" ry="2.5" style="stroke:#181818;stroke-width:0.5;" width="117" x="558.5" y="5"/><text fill="#000000" font-family="sans-serif" font-size="14" lengthAdjust="spacing" textLength="103" x="565.5" y="26.5332">ProductMapping</text><rect fill="#E2E2F0" height="31.6094" rx="2.5" ry="2.5" style="stroke:#181818;stroke-width:0.5;" width="117" x="558.5" y="1044.5078"/><text fill="#000000" font-family="sans-serif" font-size="14" lengthAdjust="spacing" textLength="103" x="565.5" y="1066.041">ProductMapping</text><rect fill="#E2E2F0" height="31.6094" rx="2.5" ry="2.5" style="stroke:#181818;stroke-width:0.5;" width="75" x="685.5" y="5"/><text fill="#000000" font-family="sans-serif" font-size="14" lengthAdjust="spacing" textLength="61" x="692.5" y="26.5332">Database</text><rect fill="#E2E2F0" height="31.6094" rx="2.5" ry="2.5" style="stroke:#181818;stroke-width:0.5;" width="75" x="685.5" y="1044.5078"/><text fill="#000000" font-family="sans-serif" font-size="14" lengthAdjust="spacing" textLength="61" x="692.5" y="1066.041">Database</text><rect fill="#FFFFFF" height="988.8984" style="stroke:#181818;stroke-width:1.0;" width="10" x="56" y="47.6094"/><rect fill="#FFFFFF" height="988.8984" style="stroke:#181818;stroke-width:1.0;" width="10" x="339" y="47.6094"/><rect fill="#FFFFFF" height="30.3516" style="stroke:#181818;stroke-width:1.0;" width="10" x="612" y="125.6641"/><rect fill="#FFFFFF" height="30.3516" style="stroke:#181818;stroke-width:1.0;" width="10" x="612" y="340.125"/><rect fill="#FFFFFF" height="30.3516" style="stroke:#181818;stroke-width:1.0;" width="10" x="612" y="597.9375"/><rect fill="#FFFFFF" height="30.3516" style="stroke:#181818;stroke-width:1.0;" width="10" x="612" y="855.75"/><rect fill="#FFFFFF" height="988.8984" style="stroke:#181818;stroke-width:1.0;" width="10" x="718" y="47.6094"/><path d="M10,54.6094 L154,54.6094 L154,62.9609 L144,72.9609 L10,72.9609 L10,54.6094 " fill="#EEEEEE" style="stroke:#000000;stroke-width:1.5;"/><rect fill="none" height="200.4609" style="stroke:#000000;stroke-width:1.5;" width="760.5" x="10" y="54.6094"/><text fill="#000000" font-family="sans-serif" font-size="13" font-weight="bold" lengthAdjust="spacing" textLength="99" x="25" y="69.1045">Créer un article</text><polygon fill="#181818" points="327,91.3125,337,95.3125,327,99.3125,331,95.3125" style="stroke:#181818;stroke-width:1.0;"/><line style="stroke:#181818;stroke-width:1.0;" x1="66" x2="333" y1="95.3125" y2="95.3125"/><text fill="#000000" font-family="sans-serif" font-size="13" lengthAdjust="spacing" textLength="223" x="73" y="90.4561">createProduct(name, quantity, price...)</text><polygon fill="#181818" points="600,121.6641,610,125.6641,600,129.6641,604,125.6641" style="stroke:#181818;stroke-width:1.0;"/><line style="stroke:#181818;stroke-width:1.0;" x1="349" x2="606" y1="125.6641" y2="125.6641"/><text fill="#000000" font-family="sans-serif" font-size="13" lengthAdjust="spacing" textLength="219" x="356" y="120.8076">insertProduct(name, quantity, price...)</text><polygon fill="#181818" points="360,152.0156,350,156.0156,360,160.0156,356,156.0156" style="stroke:#181818;stroke-width:1.0;"/><line style="stroke:#181818;stroke-width:1.0;" x1="354" x2="616" y1="156.0156" y2="156.0156"/><text fill="#000000" font-family="sans-serif" font-size="13" lengthAdjust="spacing" textLength="100" x="366" y="151.1592">Request^ product</text><polygon fill="#181818" points="706,182.3672,716,186.3672,706,190.3672,710,186.3672" style="stroke:#181818;stroke-width:1.0;"/><line style="stroke:#181818;stroke-width:1.0;" x1="349" x2="712" y1="186.3672" y2="186.3672"/><text fill="#000000" font-family="sans-serif" font-size="13" lengthAdjust="spacing" textLength="188" x="356" y="181.5107">insertRequest(Request^ product)</text><polygon fill="#181818" points="360,212.7188,350,216.7188,360,220.7188,356,216.7188" style="stroke:#181818;stroke-width:1.0;"/><line style="stroke:#181818;stroke-width:1.0;" x1="354" x2="717" y1="216.7188" y2="216.7188"/><text fill="#000000" font-family="sans-serif" font-size="13" lengthAdjust="spacing" textLength="71" x="366" y="211.8623">int response</text><polygon fill="#181818" points="77,243.0703,67,247.0703,77,251.0703,73,247.0703" style="stroke:#181818;stroke-width:1.0;"/><line style="stroke:#181818;stroke-width:1.0;" x1="71" x2="338" y1="247.0703" y2="247.0703"/><text fill="#000000" font-family="sans-serif" font-size="13" lengthAdjust="spacing" textLength="71" x="83" y="242.2139">int response</text><path d="M10,269.0703 L171,269.0703 L171,277.4219 L161,287.4219 L10,287.4219 L10,269.0703 " fill="#EEEEEE" style="stroke:#000000;stroke-width:1.5;"/><rect fill="none" height="243.8125" style="stroke:#000000;stroke-width:1.5;" width="760.5" x="10" y="269.0703"/><text fill="#000000" font-family="sans-serif" font-size="13" font-weight="bold" lengthAdjust="spacing" textLength="116" x="25" y="283.5654">Modifier un article</text><polygon fill="#181818" points="327,305.7734,337,309.7734,327,313.7734,331,309.7734" style="stroke:#181818;stroke-width:1.0;"/><line style="stroke:#181818;stroke-width:1.0;" x1="66" x2="333" y1="309.7734" y2="309.7734"/><text fill="#000000" font-family="sans-serif" font-size="13" lengthAdjust="spacing" textLength="249" x="73" y="304.917">updateProduct(Datatype::Product^ product)</text><polygon fill="#181818" points="600,336.125,610,340.125,600,344.125,604,340.125" style="stroke:#181818;stroke-width:1.0;"/><line style="stroke:#181818;stroke-width:1.0;" x1="349" x2="606" y1="340.125" y2="340.125"/><text fill="#000000" font-family="sans-serif" font-size="13" lengthAdjust="spacing" textLength="244" x="356" y="335.2686">updateProduct(id, name, quantity, price...)</text><polygon fill="#181818" points="360,366.4766,350,370.4766,360,374.4766,356,370.4766" style="stroke:#181818;stroke-width:1.0;"/><line style="stroke:#181818;stroke-width:1.0;" x1="354" x2="616" y1="370.4766" y2="370.4766"/><text fill="#000000" font-family="sans-serif" font-size="13" lengthAdjust="spacing" textLength="100" x="366" y="365.6201">Request^ product</text><polygon fill="#181818" points="706,396.8281,716,400.8281,706,404.8281,710,400.8281" style="stroke:#181818;stroke-width:1.0;"/><line style="stroke:#181818;stroke-width:1.0;" x1="349" x2="712" y1="400.8281" y2="400.8281"/><text fill="#000000" font-family="sans-serif" font-size="13" lengthAdjust="spacing" textLength="195" x="356" y="395.9717">updateRequest(Request^ product)</text><polygon fill="#181818" points="360,427.1797,350,431.1797,360,435.1797,356,431.1797" style="stroke:#181818;stroke-width:1.0;"/><line style="stroke:#181818;stroke-width:1.0;" x1="354" x2="717" y1="431.1797" y2="431.1797"/><text fill="#000000" font-family="sans-serif" font-size="13" lengthAdjust="spacing" textLength="71" x="366" y="426.3232">int response</text><polygon fill="#181818" points="77,457.5313,67,461.5313,77,465.5313,73,461.5313" style="stroke:#181818;stroke-width:1.0;"/><line style="stroke:#181818;stroke-width:1.0;" x1="71" x2="338" y1="461.5313" y2="461.5313"/><text fill="#000000" font-family="sans-serif" font-size="13" lengthAdjust="spacing" textLength="71" x="83" y="456.6748">int response</text><line style="stroke:#181818;stroke-width:1.0;" x1="66" x2="108" y1="491.8828" y2="491.8828"/><line style="stroke:#181818;stroke-width:1.0;" x1="108" x2="108" y1="491.8828" y2="504.8828"/><line style="stroke:#181818;stroke-width:1.0;" x1="67" x2="108" y1="504.8828" y2="504.8828"/><polygon fill="#181818" points="77,500.8828,67,504.8828,77,508.8828,73,504.8828" style="stroke:#181818;stroke-width:1.0;"/><text fill="#000000" font-family="sans-serif" font-size="13" lengthAdjust="spacing" textLength="96" x="73" y="487.0264">updateInterface()</text><path d="M10,526.8828 L186,526.8828 L186,535.2344 L176,545.2344 L10,545.2344 L10,526.8828 " fill="#EEEEEE" style="stroke:#000000;stroke-width:1.5;"/><rect fill="none" height="243.8125" style="stroke:#000000;stroke-width:1.5;" width="760.5" x="10" y="526.8828"/><text fill="#000000" font-family="sans-serif" font-size="13" font-weight="bold" lengthAdjust="spacing" textLength="131" x="25" y="541.3779">Supprimer un article</text><polygon fill="#181818" points="327,563.5859,337,567.5859,327,571.5859,331,567.5859" style="stroke:#181818;stroke-width:1.0;"/><line style="stroke:#181818;stroke-width:1.0;" x1="66" x2="333" y1="567.5859" y2="567.5859"/><text fill="#000000" font-family="sans-serif" font-size="13" lengthAdjust="spacing" textLength="245" x="73" y="562.7295">deleteProduct(Datatype::Product^ product)</text><polygon fill="#181818" points="600,593.9375,610,597.9375,600,601.9375,604,597.9375" style="stroke:#181818;stroke-width:1.0;"/><line style="stroke:#181818;stroke-width:1.0;" x1="349" x2="606" y1="597.9375" y2="597.9375"/><text fill="#000000" font-family="sans-serif" font-size="13" lengthAdjust="spacing" textLength="98" x="356" y="593.0811">deleteProduct(id)</text><polygon fill="#181818" points="360,624.2891,350,628.2891,360,632.2891,356,628.2891" style="stroke:#181818;stroke-width:1.0;"/><line style="stroke:#181818;stroke-width:1.0;" x1="354" x2="616" y1="628.2891" y2="628.2891"/><text fill="#000000" font-family="sans-serif" font-size="13" lengthAdjust="spacing" textLength="100" x="366" y="623.4326">Request^ product</text><polygon fill="#181818" points="706,654.6406,716,658.6406,706,662.6406,710,658.6406" style="stroke:#181818;stroke-width:1.0;"/><line style="stroke:#181818;stroke-width:1.0;" x1="349" x2="712" y1="658.6406" y2="658.6406"/><text fill="#000000" font-family="sans-serif" font-size="13" lengthAdjust="spacing" textLength="191" x="356" y="653.7842">deleteRequest(Request^ product)</text><polygon fill="#181818" points="360,684.9922,350,688.9922,360,692.9922,356,688.9922" style="stroke:#181818;stroke-width:1.0;"/><line style="stroke:#181818;stroke-width:1.0;" x1="354" x2="717" y1="688.9922" y2="688.9922"/><text fill="#000000" font-family="sans-serif" font-size="13" lengthAdjust="spacing" textLength="71" x="366" y="684.1357">int response</text><polygon fill="#181818" points="77,715.3438,67,719.3438,77,723.3438,73,719.3438" style="stroke:#181818;stroke-width:1.0;"/><line style="stroke:#181818;stroke-width:1.0;" x1="71" x2="338" y1="719.3438" y2="719.3438"/><text fill="#000000" font-family="sans-serif" font-size="13" lengthAdjust="spacing" textLength="71" x="83" y="714.4873">int response</text><line style="stroke:#181818;stroke-width:1.0;" x1="66" x2="108" y1="749.6953" y2="749.6953"/><line style="stroke:#181818;stroke-width:1.0;" x1="108" x2="108" y1="749.6953" y2="762.6953"/><line style="stroke:#181818;stroke-width:1.0;" x1="67" x2="108" y1="762.6953" y2="762.6953"/><polygon fill="#181818" points="77,758.6953,67,762.6953,77,766.6953,73,762.6953" style="stroke:#181818;stroke-width:1.0;"/><text fill="#000000" font-family="sans-serif" font-size="13" lengthAdjust="spacing" textLength="96" x="73" y="744.8389">updateInterface()</text><path d="M10,784.6953 L168,784.6953 L168,793.0469 L158,803.0469 L10,803.0469 L10,784.6953 " fill="#EEEEEE" style="stroke:#000000;stroke-width:1.5;"/><rect fill="none" height="243.8125" style="stroke:#000000;stroke-width:1.5;" width="760.5" x="10" y="784.6953"/><text fill="#000000" font-family="sans-serif" font-size="13" font-weight="bold" lengthAdjust="spacing" textLength="113" x="25" y="799.1904">Afficher un article</text><polygon fill="#181818" points="327,821.3984,337,825.3984,327,829.3984,331,825.3984" style="stroke:#181818;stroke-width:1.0;"/><line style="stroke:#181818;stroke-width:1.0;" x1="66" x2="333" y1="825.3984" y2="825.3984"/><text fill="#000000" font-family="sans-serif" font-size="13" lengthAdjust="spacing" textLength="81" x="73" y="820.542">getProduct(id)</text><polygon fill="#181818" points="600,851.75,610,855.75,600,859.75,604,855.75" style="stroke:#181818;stroke-width:1.0;"/><line style="stroke:#181818;stroke-width:1.0;" x1="349" x2="606" y1="855.75" y2="855.75"/><text fill="#000000" font-family="sans-serif" font-size="13" lengthAdjust="spacing" textLength="81" x="356" y="850.8936">getProduct(id)</text><polygon fill="#181818" points="360,882.1016,350,886.1016,360,890.1016,356,886.1016" style="stroke:#181818;stroke-width:1.0;"/><line style="stroke:#181818;stroke-width:1.0;" x1="354" x2="616" y1="886.1016" y2="886.1016"/><text fill="#000000" font-family="sans-serif" font-size="13" lengthAdjust="spacing" textLength="100" x="366" y="881.2451">Request^ product</text><polygon fill="#181818" points="706,912.4531,716,916.4531,706,920.4531,710,916.4531" style="stroke:#181818;stroke-width:1.0;"/><line style="stroke:#181818;stroke-width:1.0;" x1="349" x2="712" y1="916.4531" y2="916.4531"/><text fill="#000000" font-family="sans-serif" font-size="13" lengthAdjust="spacing" textLength="174" x="356" y="911.5967">getRequest(Request^ product)</text><polygon fill="#181818" points="360,942.8047,350,946.8047,360,950.8047,356,946.8047" style="stroke:#181818;stroke-width:1.0;"/><line style="stroke:#181818;stroke-width:1.0;" x1="354" x2="717" y1="946.8047" y2="946.8047"/><text fill="#000000" font-family="sans-serif" font-size="13" lengthAdjust="spacing" textLength="105" x="366" y="941.9482">DataTable product</text><polygon fill="#181818" points="77,973.1563,67,977.1563,77,981.1563,73,977.1563" style="stroke:#181818;stroke-width:1.0;"/><line style="stroke:#181818;stroke-width:1.0;" x1="71" x2="338" y1="977.1563" y2="977.1563"/><text fill="#000000" font-family="sans-serif" font-size="13" lengthAdjust="spacing" textLength="157" x="83" y="972.2998">Datatype::Product^ product</text><line style="stroke:#181818;stroke-width:1.0;" x1="66" x2="108" y1="1007.5078" y2="1007.5078"/><line style="stroke:#181818;stroke-width:1.0;" x1="108" x2="108" y1="1007.5078" y2="1020.5078"/><line style="stroke:#181818;stroke-width:1.0;" x1="67" x2="108" y1="1020.5078" y2="1020.5078"/><polygon fill="#181818" points="77,1016.5078,67,1020.5078,77,1024.5078,73,1020.5078" style="stroke:#181818;stroke-width:1.0;"/><text fill="#000000" font-family="sans-serif" font-size="13" lengthAdjust="spacing" textLength="96" x="73" y="1002.6514">updateInterface()</text><!--MD5=[a8c919eec22a80653e7fb48be07837a1]
@startuml Client

participant "Formulaire" as Form
participant "ProductService" as Service
participant "ProductMapping" as Mapping
participant "Database" as DB

activate Form
activate Service
activate DB

' Créer un article
group Créer un article
Form -> Service : createProduct(name, quantity, price...)
Service -> Mapping : insertProduct(name, quantity, price...)
activate Mapping
Service <- Mapping : Request^ product
deactivate Mapping
Service -> DB : insertRequest(Request^ product)
DB -> Service : int response
Service -> Form : int response

end

' Modifier un article
group Modifier un article

Form -> Service : updateProduct(Datatype::Product^ product)
Service -> Mapping : updateProduct(id, name, quantity, price...)
activate Mapping
Service <- Mapping : Request^ product
deactivate Mapping
Service -> DB : updateRequest(Request^ product)
DB -> Service : int response
Service -> Form : int response
Form -> Form : updateInterface()

end

' Supprimer un article
group Supprimer un article

Form -> Service : deleteProduct(Datatype::Product^ product)
Service -> Mapping : deleteProduct(id)
activate Mapping
Service <- Mapping : Request^ product
deactivate Mapping
Service -> DB : deleteRequest(Request^ product)
DB -> Service : int response
Service -> Form : int response
Form -> Form : updateInterface()

end

' Afficher un article
group Afficher un article

Form -> Service : getProduct(id)
Service -> Mapping : getProduct(id)
activate Mapping
Service <- Mapping : Request^ product
deactivate Mapping
Service -> DB : getRequest(Request^ product)
DB -> Service : DataTable product
Service -> Form : Datatype::Product^ product
Form -> Form : updateInterface()

end

@enduml

@startuml Client

participant "Formulaire" as Form
participant "ProductService" as Service
participant "ProductMapping" as Mapping
participant "Database" as DB

activate Form
activate Service
activate DB

group Créer un article
Form -> Service : createProduct(name, quantity, price...)
Service -> Mapping : insertProduct(name, quantity, price...)
activate Mapping
Service <- Mapping : Request^ product
deactivate Mapping
Service -> DB : insertRequest(Request^ product)
DB -> Service : int response
Service -> Form : int response

end

group Modifier un article

Form -> Service : updateProduct(Datatype::Product^ product)
Service -> Mapping : updateProduct(id, name, quantity, price...)
activate Mapping
Service <- Mapping : Request^ product
deactivate Mapping
Service -> DB : updateRequest(Request^ product)
DB -> Service : int response
Service -> Form : int response
Form -> Form : updateInterface()

end

group Supprimer un article

Form -> Service : deleteProduct(Datatype::Product^ product)
Service -> Mapping : deleteProduct(id)
activate Mapping
Service <- Mapping : Request^ product
deactivate Mapping
Service -> DB : deleteRequest(Request^ product)
DB -> Service : int response
Service -> Form : int response
Form -> Form : updateInterface()

end

group Afficher un article

Form -> Service : getProduct(id)
Service -> Mapping : getProduct(id)
activate Mapping
Service <- Mapping : Request^ product
deactivate Mapping
Service -> DB : getRequest(Request^ product)
DB -> Service : DataTable product
Service -> Form : Datatype::Product^ product
Form -> Form : updateInterface()

end

@enduml

PlantUML version 1.2022.7(Mon Aug 22 19:01:30 CEST 2022)
(GPL source distribution)
Java Runtime: Java(TM) SE Runtime Environment
JVM: Java HotSpot(TM) 64-Bit Server VM
Default Encoding: Cp1252
Language: fr
Country: FR
--></g></svg>