<svg width="1162" height="498" xmlns="http://www.w3.org/2000/svg" xmlns:xlink="http://www.w3.org/1999/xlink" xml:space="preserve" overflow="hidden"><g transform="translate(-75 -157)"><path d="M6.92151 4.88577 91.6083 4.88577C92.5846 5.18182 93.3476 5.94556 93.644 6.92151L99.3441 24.1108 1154.26 24.1108C1155.39 24.1108 1156.3 25.0222 1156.3 26.1465L1156.3 481.656C1156.3 482.78 1155.39 483.692 1154.26 483.692L6.92151 483.692C5.79721 483.692 4.88577 482.78 4.88577 481.656L4.88577 6.92151C4.88577 5.79721 5.79721 4.88577 6.92151 4.88577" stroke="#000000" stroke-width="1.22144" fill="none" transform="matrix(1 0 0 1.01759 75 157)"/><path d="M4.88577 24.1108 99.3441 24.1108" stroke="#000000" stroke-width="1.22144" fill="none" transform="matrix(1 0 0 1.01759 75 157)"/><text font-family="Arial,Arial_MSFontService,sans-serif" font-weight="700" font-size="14" transform="matrix(0.814296 0 0 0.828619 83.143 176)">ClientManager</text><path d="M26.4646 213.345 99.7512 213.345C100.728 213.642 101.491 214.405 101.787 215.381L107.487 232.57 1134.72 232.57C1135.84 232.57 1136.76 233.482 1136.76 234.606L1136.76 462.113C1136.76 463.237 1135.84 464.149 1134.72 464.149L26.4646 464.149C25.3403 464.149 24.4289 463.237 24.4289 462.113L24.4289 215.381C24.4289 214.257 25.3403 213.345 26.4646 213.345" stroke="#000000" stroke-width="1.22144" fill="none" transform="matrix(1 0 0 1.01759 75 157)"/><path d="M24.4289 232.57 107.487 232.57" stroke="#000000" stroke-width="1.22144" fill="none" transform="matrix(1 0 0 1.01759 75 157)"/><text font-family="Arial,Arial_MSFontService,sans-serif" font-weight="700" font-size="14" transform="matrix(0.814296 0 0 0.828619 102.686 388)">Components</text><path d="M138.023 255.689 190.952 255.689C191.929 255.985 192.692 256.748 192.988 257.725L198.688 274.914 340.783 274.914C341.907 274.914 342.818 275.826 342.818 276.949L342.818 436.055C342.818 437.18 341.907 438.091 340.783 438.091L138.023 438.091C136.899 438.091 135.987 437.18 135.987 436.055L135.987 257.725C135.987 256.6 136.899 255.689 138.023 255.689" stroke="#000000" stroke-width="1.22144" fill="none" transform="matrix(1 0 0 1.01759 75 157)"/><path d="M135.987 274.914 198.688 274.914" stroke="#000000" stroke-width="1.22144" fill="none" transform="matrix(1 0 0 1.01759 75 157)"/><text font-family="Arial,Arial_MSFontService,sans-serif" font-weight="700" font-size="14" transform="matrix(0.814296 0 0 0.828619 214.245 431)">DataType</text><path d="M377.426 255.689 475.956 255.689C476.932 255.985 477.695 256.748 477.992 257.725L483.692 274.914 1108.66 274.914C1109.79 274.914 1110.7 275.826 1110.7 276.949L1110.7 348.111C1110.7 349.236 1109.79 350.147 1108.66 350.147L377.426 350.147C376.302 350.147 375.39 349.236 375.39 348.111L375.39 257.725C375.39 256.6 376.302 255.689 377.426 255.689" stroke="#000000" stroke-width="1.22144" fill="none" transform="matrix(1 0 0 1.01759 75 157)"/><path d="M375.39 274.914 483.692 274.914" stroke="#000000" stroke-width="1.22144" fill="none" transform="matrix(1 0 0 1.01759 75 157)"/><text font-family="Arial,Arial_MSFontService,sans-serif" font-weight="700" font-size="14" transform="matrix(0.814296 0 0 0.828619 453.648 431)">RequestMapping</text><path d="M477.584 92.8297 528.885 92.8297C529.861 93.1261 530.624 93.8891 530.921 94.8654L536.621 112.054 883.918 112.054C885.042 112.054 885.954 112.966 885.954 114.09L885.954 185.252C885.954 186.377 885.042 187.288 883.918 187.288L477.584 187.288C476.46 187.288 475.549 186.377 475.549 185.252L475.549 94.8654C475.549 93.7409 476.46 92.8297 477.584 92.8297" stroke="#000000" stroke-width="1.22144" fill="none" transform="matrix(1 0 0 1.01759 75 157)"/><path d="M475.549 112.054 536.621 112.054" stroke="#000000" stroke-width="1.22144" fill="none" transform="matrix(1 0 0 1.01759 75 157)"/><text font-family="Arial,Arial_MSFontService,sans-serif" font-weight="700" font-size="14" transform="matrix(0.814296 0 0 0.828619 553.806 265)">Services</text><path d="M151.459 34.2004C152.583 34.2004 153.495 35.1119 153.495 36.2362L153.495 71.2509C153.495 72.3752 152.583 73.2866 151.459 73.2866L109.116 73.2866C107.991 73.2866 107.08 72.3752 107.08 71.2509L107.08 36.2362C107.08 35.1119 107.991 34.2004 109.116 34.2004Z" stroke="#181818" stroke-width="0.407148" fill="#F1F1F1" transform="matrix(1 0 0 1.01759 75 157)"/><path d="M128.252 47.2292C128.252 52.1761 124.241 56.1864 119.294 56.1864 114.347 56.1864 110.337 52.1761 110.337 47.2292 110.337 42.2822 114.347 38.2719 119.294 38.2719 124.241 38.2719 128.252 42.2822 128.252 47.2292Z" stroke="#181818" stroke-width="0.814296" fill="#ADD1B2" transform="matrix(1 0 0 1.01759 75 157)"/><path d="M121.547 43.8702C121.631 43.7515 121.724 43.6624 121.826 43.603 121.928 43.5436 122.038 43.5139 122.157 43.5139 122.361 43.5139 122.526 43.5839 122.653 43.7239 122.78 43.8638 122.844 44.0992 122.844 44.43L122.844 45.6133C122.844 45.9441 122.78 46.1816 122.653 46.3258 122.526 46.47 122.361 46.5421 122.157 46.5421 121.97 46.5421 121.822 46.487 121.712 46.3767 121.601 46.2749 121.517 46.084 121.457 45.8041 121.432 45.609 121.368 45.4606 121.267 45.3588 121.088 45.1552 120.834 44.9941 120.503 44.8754 120.172 44.7565 119.837 44.6972 119.498 44.6972 119.083 44.6972 118.702 44.7863 118.36 44.9644 118.016 45.1425 117.711 45.4352 117.443 45.8423 117.176 46.2495 117.042 46.7329 117.042 47.2927L117.042 48.1834C117.042 48.8535 117.284 49.4112 117.768 49.8566 118.251 50.3019 118.925 50.5245 119.79 50.5245 120.299 50.5245 120.732 50.4567 121.088 50.321 121.301 50.2361 121.521 50.075 121.75 49.8374 121.894 49.6932 122.007 49.6 122.087 49.5575 122.168 49.5151 122.263 49.4939 122.373 49.4939 122.552 49.4939 122.71 49.5639 122.85 49.7039 122.99 49.8439 123.06 50.0071 123.06 50.1937 123.06 50.3803 122.967 50.5839 122.78 50.8044 122.509 51.1183 122.157 51.3643 121.724 51.5424 121.14 51.7884 120.495 51.9114 119.79 51.9114 118.968 51.9114 118.23 51.7417 117.577 51.4024 117.042 51.131 116.588 50.7047 116.215 50.1237 115.842 49.5427 115.655 48.9044 115.655 48.2088L115.655 47.2673C115.655 46.5464 115.823 45.8742 116.158 45.2507 116.493 44.6272 116.957 44.148 117.551 43.8129 118.145 43.4779 118.777 43.3104 119.447 43.3104 119.846 43.3104 120.221 43.3549 120.573 43.444 120.925 43.533 121.249 43.6751 121.547 43.8702Z" transform="matrix(1 0 0 1.01759 75 157)"/><text font-family="Arial,Arial_MSFontService,sans-serif" font-weight="400" font-size="14" transform="matrix(0.814296 0 0 0.828619 205.694 210)">App</text><path d="M107.894 60.2579 152.68 60.2579" stroke="#181818" stroke-width="0.407148" fill="none" transform="matrix(1 0 0 1.01759 75 157)"/><path d="M107.894 66.7722 152.68 66.7722" stroke="#181818" stroke-width="0.407148" fill="none" transform="matrix(1 0 0 1.01759 75 157)"/><path d="M83.8725 128.659C84.9968 128.659 85.9082 129.57 85.9082 130.694L85.9082 165.709C85.9082 166.833 84.9968 167.745 83.8725 167.745L20.3574 167.745C19.2331 167.745 18.3217 166.833 18.3217 165.709L18.3217 130.694C18.3217 129.57 19.2331 128.659 20.3574 128.659Z" stroke="#181818" stroke-width="0.407148" fill="#F1F1F1" transform="matrix(1 0 0 1.01759 75 157)"/><path d="M39.4933 141.687C39.4933 146.634 35.483 150.645 30.5361 150.645 25.5891 150.645 21.5788 146.634 21.5788 141.687 21.5788 136.74 25.5891 132.73 30.5361 132.73 35.483 132.73 39.4933 136.74 39.4933 141.687Z" stroke="#181818" stroke-width="0.814296" fill="#ADD1B2" transform="matrix(1 0 0 1.01759 75 157)"/><path d="M32.7881 138.328C32.873 138.21 32.9663 138.121 33.0681 138.061 33.1698 138.002 33.2801 137.973 33.3988 137.973 33.6024 137.973 33.7678 138.042 33.8951 138.182 34.0223 138.322 34.0859 138.557 34.0859 138.888L34.0859 140.072C34.0859 140.402 34.0223 140.64 33.8951 140.784 33.7678 140.929 33.6024 141 33.3988 141 33.2123 141 33.0638 140.946 32.9536 140.835 32.8432 140.733 32.7585 140.543 32.6991 140.262 32.6736 140.067 32.61 139.919 32.5082 139.817 32.3301 139.613 32.0757 139.452 31.7448 139.333 31.414 139.215 31.079 139.156 30.7397 139.156 30.324 139.156 29.9445 139.245 29.601 139.423 29.2574 139.601 28.952 139.894 28.6849 140.301 28.4177 140.708 28.2841 141.192 28.2841 141.751L28.2841 142.642C28.2841 143.312 28.5258 143.87 29.0093 144.315 29.4927 144.76 30.1671 144.983 31.0323 144.983 31.5413 144.983 31.9738 144.915 32.3301 144.779 32.5422 144.695 32.7627 144.533 32.9917 144.296 33.1359 144.152 33.2483 144.058 33.3289 144.016 33.4094 143.973 33.5048 143.952 33.6152 143.952 33.7933 143.952 33.9523 144.022 34.0923 144.162 34.2323 144.302 34.3022 144.465 34.3022 144.652 34.3022 144.839 34.2089 145.042 34.0223 145.263 33.7509 145.577 33.3989 145.822 32.9663 146.001 32.381 146.247 31.7364 146.37 31.0323 146.37 30.2096 146.37 29.4716 146.2 28.8184 145.861 28.2841 145.59 27.8303 145.163 27.4571 144.582 27.0839 144.001 26.8972 143.362 26.8972 142.667L26.8972 141.726C26.8972 141.004 27.0647 140.332 27.3997 139.709 27.7348 139.086 28.1992 138.606 28.793 138.271 29.3867 137.936 30.0187 137.769 30.6888 137.769 31.0875 137.769 31.4628 137.813 31.8148 137.903 32.1668 137.991 32.4913 138.133 32.7881 138.328Z" transform="matrix(1 0 0 1.01759 75 157)"/><text font-family="Arial,Arial_MSFontService,sans-serif" font-weight="400" font-size="14" transform="matrix(0.814296 0 0 0.828619 116.936 306)">MyForm</text><path d="M19.136 154.716 85.0939 154.716" stroke="#181818" stroke-width="0.407148" fill="none" transform="matrix(1 0 0 1.01759 75 157)"/><path d="M19.136 161.231 85.0939 161.231" stroke="#181818" stroke-width="0.407148" fill="none" transform="matrix(1 0 0 1.01759 75 157)"/><path d="M111.559 291.518C112.683 291.518 113.594 292.429 113.594 293.554L113.594 328.568C113.594 329.693 112.683 330.604 111.559 330.604L39.9005 330.604C38.7762 330.604 37.8647 329.693 37.8647 328.568L37.8647 293.554C37.8647 292.429 38.7762 291.518 39.9005 291.518Z" stroke="#181818" stroke-width="0.407148" fill="#F1F1F1" transform="matrix(1 0 0 1.01759 75 157)"/><path d="M59.0364 304.547C59.0364 309.494 55.0261 313.504 50.0792 313.504 45.1322 313.504 41.1219 309.494 41.1219 304.547 41.1219 299.6 45.1322 295.589 50.0792 295.589 55.0261 295.589 59.0364 299.6 59.0364 304.547Z" stroke="#181818" stroke-width="0.814296" fill="#ADD1B2" transform="matrix(1 0 0 1.01759 75 157)"/><path d="M52.3312 301.188C52.416 301.069 52.5094 300.98 52.6112 300.921 52.7129 300.861 52.8232 300.832 52.9419 300.832 53.1455 300.832 53.3109 300.901 53.4382 301.041 53.5654 301.181 53.629 301.416 53.629 301.747L53.629 302.931C53.629 303.262 53.5654 303.499 53.4382 303.644 53.3109 303.788 53.1455 303.859 52.9419 303.859 52.7554 303.859 52.6069 303.805 52.4967 303.694 52.3863 303.592 52.3016 303.402 52.2422 303.122 52.2167 302.926 52.1531 302.778 52.0513 302.676 51.8732 302.473 51.6188 302.311 51.2879 302.192 50.9571 302.074 50.6221 302.015 50.2828 302.015 49.8671 302.015 49.4876 302.104 49.1441 302.282 48.8005 302.46 48.4951 302.753 48.228 303.16 47.9608 303.567 47.8272 304.051 47.8272 304.61L47.8272 305.501C47.8272 306.171 48.0689 306.729 48.5524 307.174 49.0358 307.619 49.7102 307.842 50.5754 307.842 51.0844 307.842 51.5169 307.774 51.8732 307.638 52.0853 307.554 52.3058 307.393 52.5348 307.155 52.679 307.011 52.7914 306.917 52.872 306.875 52.9525 306.832 53.0479 306.811 53.1583 306.811 53.3364 306.811 53.4954 306.881 53.6354 307.021 53.7754 307.161 53.8453 307.324 53.8453 307.511 53.8453 307.698 53.752 307.901 53.5654 308.122 53.294 308.436 52.942 308.682 52.5094 308.86 51.9241 309.106 51.2795 309.229 50.5754 309.229 49.7527 309.229 49.0147 309.059 48.3615 308.72 47.8272 308.449 47.3734 308.022 47.0002 307.441 46.627 306.86 46.4403 306.222 46.4403 305.526L46.4403 304.585C46.4403 303.863 46.6078 303.192 46.9428 302.568 47.2779 301.945 47.7423 301.465 48.3361 301.131 48.9298 300.795 49.5618 300.628 50.2319 300.628 50.6305 300.628 51.0059 300.672 51.3579 300.762 51.7099 300.85 52.0344 300.992 52.3312 301.188Z" transform="matrix(1 0 0 1.01759 75 157)"/><text font-family="Arial,Arial_MSFontService,sans-serif" font-weight="400" font-size="14" transform="matrix(0.814296 0 0 0.828619 136.479 472)">Database</text><path d="M38.679 317.575 112.78 317.575" stroke="#181818" stroke-width="0.407148" fill="none" transform="matrix(1 0 0 1.01759 75 157)"/><path d="M38.679 324.09 112.78 324.09" stroke="#181818" stroke-width="0.407148" fill="none" transform="matrix(1 0 0 1.01759 75 157)"/><path d="M775.21 379.462C776.334 379.462 777.245 380.373 777.245 381.498L777.245 416.512C777.245 417.637 776.334 418.548 775.21 418.548L710.066 418.548C708.942 418.548 708.03 417.637 708.03 416.512L708.03 381.498C708.03 380.373 708.942 379.462 710.066 379.462Z" stroke="#181818" stroke-width="0.407148" fill="#F1F1F1" transform="matrix(1 0 0 1.01759 75 157)"/><path d="M729.202 392.491C729.202 397.438 725.192 401.448 720.245 401.448 715.298 401.448 711.287 397.438 711.287 392.491 711.287 387.544 715.298 383.533 720.245 383.533 725.192 383.533 729.202 387.544 729.202 392.491Z" stroke="#181818" stroke-width="0.814296" fill="#ADD1B2" transform="matrix(1 0 0 1.01759 75 157)"/><path d="M722.497 389.132C722.582 389.013 722.674 388.924 722.776 388.864 722.878 388.805 722.989 388.776 723.108 388.776 723.311 388.776 723.477 388.845 723.604 388.985 723.731 389.125 723.794 389.36 723.794 389.691L723.794 390.875C723.794 391.206 723.731 391.443 723.604 391.587 723.477 391.732 723.311 391.803 723.108 391.803 722.92 391.803 722.772 391.749 722.662 391.638 722.551 391.536 722.467 391.346 722.407 391.066 722.382 390.87 722.319 390.722 722.217 390.62 722.038 390.417 721.784 390.255 721.453 390.136 721.122 390.018 720.788 389.959 720.448 389.959 720.033 389.959 719.653 390.048 719.31 390.226 718.966 390.404 718.661 390.697 718.394 391.104 718.126 391.511 717.992 391.995 717.992 392.554L717.992 393.445C717.992 394.115 718.234 394.673 718.718 395.118 719.201 395.563 719.876 395.786 720.74 395.786 721.249 395.786 721.683 395.718 722.038 395.582 722.251 395.498 722.471 395.336 722.7 395.099 722.845 394.955 722.957 394.861 723.038 394.819 723.118 394.776 723.214 394.755 723.323 394.755 723.502 394.755 723.661 394.825 723.801 394.965 723.941 395.105 724.011 395.268 724.011 395.455 724.011 395.642 723.917 395.845 723.731 396.066 723.459 396.38 723.108 396.626 722.674 396.804 722.09 397.05 721.445 397.173 720.74 397.173 719.918 397.173 719.18 397.003 718.527 396.664 717.992 396.393 717.539 395.966 717.166 395.385 716.792 394.804 716.605 394.166 716.605 393.47L716.605 392.529C716.605 391.807 716.773 391.136 717.108 390.512 717.443 389.889 717.908 389.409 718.501 389.075 719.096 388.739 719.727 388.572 720.398 388.572 720.796 388.572 721.171 388.616 721.523 388.706 721.876 388.794 722.2 388.936 722.497 389.132Z" transform="matrix(1 0 0 1.01759 75 157)"/><text font-family="Arial,Arial_MSFontService,sans-serif" font-weight="400" font-size="14" transform="matrix(0.814296 0 0 0.828619 806.645 561)">Request</text><path d="M708.844 405.519 776.431 405.519" stroke="#181818" stroke-width="0.407148" fill="none" transform="matrix(1 0 0 1.01759 75 157)"/><path d="M708.844 412.034 776.431 412.034" stroke="#181818" stroke-width="0.407148" fill="none" transform="matrix(1 0 0 1.01759 75 157)"/><path d="M224.338 291.518C225.463 291.518 226.374 292.429 226.374 293.554L226.374 328.568C226.374 329.693 225.463 330.604 224.338 330.604L173.038 330.604C171.914 330.604 171.002 329.693 171.002 328.568L171.002 293.554C171.002 292.429 171.914 291.518 173.038 291.518Z" stroke="#181818" stroke-width="0.407148" fill="#F1F1F1" transform="matrix(1 0 0 1.01759 75 157)"/><path d="M192.174 304.547C192.174 309.494 188.163 313.504 183.217 313.504 178.27 313.504 174.259 309.494 174.259 304.547 174.259 299.6 178.27 295.589 183.217 295.589 188.163 295.589 192.174 299.6 192.174 304.547Z" stroke="#181818" stroke-width="0.814296" fill="#ADD1B2" transform="matrix(1 0 0 1.01759 75 157)"/><path d="M185.469 301.188C185.554 301.069 185.646 300.98 185.748 300.921 185.85 300.861 185.961 300.832 186.08 300.832 186.283 300.832 186.448 300.901 186.576 301.041 186.703 301.181 186.766 301.416 186.766 301.747L186.766 302.931C186.766 303.262 186.703 303.499 186.576 303.644 186.448 303.788 186.283 303.859 186.08 303.859 185.892 303.859 185.744 303.805 185.634 303.694 185.523 303.592 185.439 303.402 185.379 303.122 185.354 302.926 185.291 302.778 185.189 302.676 185.01 302.473 184.756 302.311 184.425 302.192 184.094 302.074 183.76 302.015 183.42 302.015 183.005 302.015 182.625 302.104 182.282 302.282 181.938 302.46 181.633 302.753 181.366 303.16 181.098 303.567 180.964 304.051 180.964 304.61L180.964 305.501C180.964 306.171 181.206 306.729 181.69 307.174 182.173 307.619 182.848 307.842 183.712 307.842 184.221 307.842 184.655 307.774 185.01 307.638 185.223 307.554 185.443 307.393 185.672 307.155 185.817 307.011 185.929 306.917 186.01 306.875 186.09 306.832 186.185 306.811 186.295 306.811 186.474 306.811 186.633 306.881 186.773 307.021 186.913 307.161 186.983 307.324 186.983 307.511 186.983 307.698 186.889 307.901 186.703 308.122 186.431 308.436 186.08 308.682 185.646 308.86 185.062 309.106 184.417 309.229 183.712 309.229 182.89 309.229 182.152 309.059 181.499 308.72 180.964 308.449 180.511 308.022 180.138 307.441 179.764 306.86 179.577 306.222 179.577 305.526L179.577 304.585C179.577 303.863 179.745 303.192 180.08 302.568 180.415 301.945 180.88 301.465 181.473 301.131 182.068 300.795 182.699 300.628 183.37 300.628 183.768 300.628 184.143 300.672 184.495 300.762 184.848 300.85 185.172 300.992 185.469 301.188Z" transform="matrix(1 0 0 1.01759 75 157)"/><text font-family="Arial,Arial_MSFontService,sans-serif" font-weight="400" font-size="14" transform="matrix(0.814296 0 0 0.828619 269.617 472)">Client</text><path d="M171.816 317.575 225.56 317.575" stroke="#181818" stroke-width="0.407148" fill="none" transform="matrix(1 0 0 1.01759 75 157)"/><path d="M171.816 324.09 225.56 324.09" stroke="#181818" stroke-width="0.407148" fill="none" transform="matrix(1 0 0 1.01759 75 157)"/><path d="M321.24 291.518C322.364 291.518 323.275 292.429 323.275 293.554L323.275 328.568C323.275 329.693 322.364 330.604 321.24 330.604L256.91 330.604C255.786 330.604 254.875 329.693 254.875 328.568L254.875 293.554C254.875 292.429 255.786 291.518 256.91 291.518Z" stroke="#181818" stroke-width="0.407148" fill="#F1F1F1" transform="matrix(1 0 0 1.01759 75 157)"/><path d="M276.046 304.547C276.046 309.494 272.036 313.504 267.089 313.504 262.142 313.504 258.132 309.494 258.132 304.547 258.132 299.6 262.142 295.589 267.089 295.589 272.036 295.589 276.046 299.6 276.046 304.547Z" stroke="#181818" stroke-width="0.814296" fill="#ADD1B2" transform="matrix(1 0 0 1.01759 75 157)"/><path d="M269.341 301.188C269.426 301.069 269.519 300.98 269.621 300.921 269.722 300.861 269.833 300.832 269.952 300.832 270.156 300.832 270.321 300.901 270.448 301.041 270.575 301.181 270.639 301.416 270.639 301.747L270.639 302.931C270.639 303.262 270.575 303.499 270.448 303.644 270.321 303.788 270.156 303.859 269.952 303.859 269.765 303.859 269.617 303.805 269.507 303.694 269.396 303.592 269.311 303.402 269.252 303.122 269.227 302.926 269.163 302.778 269.061 302.676 268.883 302.473 268.629 302.311 268.297 302.192 267.967 302.074 267.632 302.015 267.293 302.015 266.877 302.015 266.497 302.104 266.154 302.282 265.811 302.46 265.505 302.753 265.238 303.16 264.97 303.567 264.837 304.051 264.837 304.61L264.837 305.501C264.837 306.171 265.078 306.729 265.562 307.174 266.046 307.619 266.72 307.842 267.585 307.842 268.094 307.842 268.527 307.774 268.883 307.638 269.095 307.554 269.315 307.393 269.545 307.155 269.689 307.011 269.801 306.917 269.882 306.875 269.963 306.832 270.058 306.811 270.168 306.811 270.346 306.811 270.505 306.881 270.645 307.021 270.785 307.161 270.855 307.324 270.855 307.511 270.855 307.698 270.761 307.901 270.575 308.122 270.304 308.436 269.952 308.682 269.519 308.86 268.934 309.106 268.289 309.229 267.585 309.229 266.762 309.229 266.025 309.059 265.372 308.72 264.837 308.449 264.383 308.022 264.01 307.441 263.636 306.86 263.45 306.222 263.45 305.526L263.45 304.585C263.45 303.863 263.618 303.192 263.952 302.568 264.288 301.945 264.752 301.465 265.346 301.131 265.94 300.795 266.572 300.628 267.242 300.628 267.64 300.628 268.016 300.672 268.367 300.762 268.72 300.85 269.044 300.992 269.341 301.188Z" transform="matrix(1 0 0 1.01759 75 157)"/><text font-family="Arial,Arial_MSFontService,sans-serif" font-weight="400" font-size="14" transform="matrix(0.814296 0 0 0.828619 353.489 472)">Address</text><path d="M255.689 317.575 322.461 317.575" stroke="#181818" stroke-width="0.407148" fill="none" transform="matrix(1 0 0 1.01759 75 157)"/><path d="M255.689 324.09 322.461 324.09" stroke="#181818" stroke-width="0.407148" fill="none" transform="matrix(1 0 0 1.01759 75 157)"/><path d="M235.331 379.462C236.456 379.462 237.367 380.373 237.367 381.498L237.367 416.512C237.367 417.637 236.456 418.548 235.331 418.548L173.445 418.548C172.321 418.548 171.409 417.637 171.409 416.512L171.409 381.498C171.409 380.373 172.321 379.462 173.445 379.462Z" stroke="#181818" stroke-width="0.407148" fill="#F1F1F1" transform="matrix(1 0 0 1.01759 75 157)"/><path d="M192.581 392.491C192.581 397.438 188.571 401.448 183.624 401.448 178.677 401.448 174.666 397.438 174.666 392.491 174.666 387.544 178.677 383.533 183.624 383.533 188.571 383.533 192.581 387.544 192.581 392.491Z" stroke="#181818" stroke-width="0.814296" fill="#ADD1B2" transform="matrix(1 0 0 1.01759 75 157)"/><path d="M185.876 389.132C185.961 389.013 186.054 388.924 186.155 388.864 186.257 388.805 186.368 388.776 186.487 388.776 186.69 388.776 186.856 388.845 186.983 388.985 187.11 389.125 187.173 389.36 187.173 389.691L187.173 390.875C187.173 391.206 187.11 391.443 186.983 391.587 186.856 391.732 186.69 391.803 186.487 391.803 186.299 391.803 186.151 391.749 186.041 391.638 185.931 391.536 185.846 391.346 185.786 391.066 185.761 390.87 185.698 390.722 185.596 390.62 185.418 390.417 185.164 390.255 184.832 390.136 184.501 390.018 184.167 389.959 183.827 389.959 183.412 389.959 183.032 390.048 182.689 390.226 182.345 390.404 182.04 390.697 181.773 391.104 181.505 391.511 181.371 391.995 181.371 392.554L181.371 393.445C181.371 394.115 181.613 394.673 182.097 395.118 182.581 395.563 183.255 395.786 184.12 395.786 184.629 395.786 185.062 395.718 185.418 395.582 185.63 395.498 185.85 395.336 186.08 395.099 186.224 394.955 186.336 394.861 186.417 394.819 186.497 394.776 186.593 394.755 186.703 394.755 186.881 394.755 187.04 394.825 187.18 394.965 187.32 395.105 187.39 395.268 187.39 395.455 187.39 395.642 187.296 395.845 187.11 396.066 186.839 396.38 186.487 396.626 186.054 396.804 185.469 397.05 184.824 397.173 184.12 397.173 183.297 397.173 182.559 397.003 181.906 396.664 181.371 396.393 180.918 395.966 180.545 395.385 180.171 394.804 179.985 394.166 179.985 393.47L179.985 392.529C179.985 391.807 180.152 391.136 180.487 390.512 180.823 389.889 181.287 389.409 181.88 389.075 182.475 388.739 183.107 388.572 183.777 388.572 184.175 388.572 184.55 388.616 184.902 388.706 185.255 388.794 185.579 388.936 185.876 389.132Z" transform="matrix(1 0 0 1.01759 75 157)"/><text font-family="Arial,Arial_MSFontService,sans-serif" font-weight="400" font-size="14" transform="matrix(0.814296 0 0 0.828619 270.024 561)">Product</text><path d="M172.224 405.519 236.553 405.519" stroke="#181818" stroke-width="0.407148" fill="none" transform="matrix(1 0 0 1.01759 75 157)"/><path d="M172.224 412.034 236.553 412.034" stroke="#181818" stroke-width="0.407148" fill="none" transform="matrix(1 0 0 1.01759 75 157)"/><path d="M320.018 379.462C321.143 379.462 322.054 380.373 322.054 381.498L322.054 416.512C322.054 417.637 321.143 418.548 320.018 418.548L267.903 418.548C266.779 418.548 265.868 417.637 265.868 416.512L265.868 381.498C265.868 380.373 266.779 379.462 267.903 379.462Z" stroke="#181818" stroke-width="0.407148" fill="#F1F1F1" transform="matrix(1 0 0 1.01759 75 157)"/><path d="M287.039 392.491C287.039 397.438 283.029 401.448 278.082 401.448 273.135 401.448 269.125 397.438 269.125 392.491 269.125 387.544 273.135 383.533 278.082 383.533 283.029 383.533 287.039 387.544 287.039 392.491Z" stroke="#181818" stroke-width="0.814296" fill="#ADD1B2" transform="matrix(1 0 0 1.01759 75 157)"/><path d="M280.334 389.132C280.419 389.013 280.512 388.924 280.614 388.864 280.715 388.805 280.826 388.776 280.945 388.776 281.149 388.776 281.314 388.845 281.441 388.985 281.568 389.125 281.632 389.36 281.632 389.691L281.632 390.875C281.632 391.206 281.568 391.443 281.441 391.587 281.314 391.732 281.149 391.803 280.945 391.803 280.758 391.803 280.61 391.749 280.5 391.638 280.389 391.536 280.304 391.346 280.245 391.066 280.22 390.87 280.156 390.722 280.054 390.62 279.876 390.417 279.622 390.255 279.29 390.136 278.96 390.018 278.625 389.959 278.286 389.959 277.87 389.959 277.49 390.048 277.147 390.226 276.804 390.404 276.498 390.697 276.231 391.104 275.963 391.511 275.83 391.995 275.83 392.554L275.83 393.445C275.83 394.115 276.072 394.673 276.555 395.118 277.039 395.563 277.713 395.786 278.578 395.786 279.087 395.786 279.52 395.718 279.876 395.582 280.088 395.498 280.308 395.336 280.538 395.099 280.682 394.955 280.794 394.861 280.875 394.819 280.956 394.776 281.051 394.755 281.161 394.755 281.339 394.755 281.498 394.825 281.638 394.965 281.778 395.105 281.848 395.268 281.848 395.455 281.848 395.642 281.754 395.845 281.568 396.066 281.297 396.38 280.945 396.626 280.512 396.804 279.927 397.05 279.282 397.173 278.578 397.173 277.755 397.173 277.018 397.003 276.365 396.664 275.83 396.393 275.376 395.966 275.003 395.385 274.629 394.804 274.443 394.166 274.443 393.47L274.443 392.529C274.443 391.807 274.611 391.136 274.945 390.512 275.281 389.889 275.745 389.409 276.339 389.075 276.933 388.739 277.565 388.572 278.235 388.572 278.633 388.572 279.009 388.616 279.36 388.706 279.713 388.794 280.037 388.936 280.334 389.132Z" transform="matrix(1 0 0 1.01759 75 157)"/><text font-family="Arial,Arial_MSFontService,sans-serif" font-weight="400" font-size="14" transform="matrix(0.814296 0 0 0.828619 364.482 561)">Order</text><path d="M266.682 405.519 321.24 405.519" stroke="#181818" stroke-width="0.407148" fill="none" transform="matrix(1 0 0 1.01759 75 157)"/><path d="M266.682 412.034 321.24 412.034" stroke="#181818" stroke-width="0.407148" fill="none" transform="matrix(1 0 0 1.01759 75 157)"/><path d="M1088.71 291.518C1089.84 291.518 1090.75 292.429 1090.75 293.554L1090.75 328.568C1090.75 329.693 1089.84 330.604 1088.71 330.604L950.283 330.604C949.159 330.604 948.247 329.693 948.247 328.568L948.247 293.554C948.247 292.429 949.159 291.518 950.283 291.518Z" stroke="#181818" stroke-width="0.407148" fill="#F1F1F1" transform="matrix(1 0 0 1.01759 75 157)"/><path d="M969.419 304.547C969.419 309.494 965.409 313.504 960.462 313.504 955.515 313.504 951.505 309.494 951.505 304.547 951.505 299.6 955.515 295.589 960.462 295.589 965.409 295.589 969.419 299.6 969.419 304.547Z" stroke="#181818" stroke-width="0.814296" fill="#ADD1B2" transform="matrix(1 0 0 1.01759 75 157)"/><path d="M962.717 301.188C962.799 301.069 962.888 300.98 962.994 300.921 963.092 300.861 963.206 300.832 963.328 300.832 963.532 300.832 963.695 300.901 963.817 301.041 963.947 301.181 964.012 301.416 964.012 301.747L964.012 302.931C964.012 303.262 963.947 303.499 963.817 303.644 963.695 303.788 963.532 303.859 963.328 303.859 963.141 303.859 962.986 303.805 962.88 303.694 962.766 303.592 962.685 303.402 962.628 303.122 962.595 302.926 962.538 302.778 962.432 302.676 962.253 302.473 962.001 302.311 961.667 302.192 961.341 302.074 961.007 302.015 960.665 302.015 960.25 302.015 959.867 302.104 959.525 302.282 959.183 302.46 958.874 302.753 958.613 303.16 958.345 303.567 958.206 304.051 958.206 304.61L958.206 305.501C958.206 306.171 958.451 306.729 958.931 307.174 959.419 307.619 960.095 307.842 960.958 307.842 961.463 307.842 961.903 307.774 962.253 307.638 962.465 307.554 962.685 307.393 962.921 307.155 963.059 307.011 963.173 306.917 963.255 306.875 963.336 306.832 963.434 306.811 963.54 306.811 963.719 306.811 963.882 306.881 964.02 307.021 964.159 307.161 964.224 307.324 964.224 307.511 964.224 307.698 964.134 307.901 963.947 308.122 963.678 308.436 963.328 308.682 962.888 308.86 962.31 309.106 961.659 309.229 960.958 309.229 960.136 309.229 959.395 309.059 958.744 308.72 958.206 308.449 957.758 308.022 957.384 307.441 957.009 306.86 956.822 306.222 956.822 305.526L956.822 304.585C956.822 303.863 956.993 303.192 957.327 302.568 957.661 301.945 958.125 301.465 958.719 301.131 959.314 300.795 959.941 300.628 960.616 300.628 961.016 300.628 961.39 300.672 961.74 300.762 962.09 300.85 962.416 300.992 962.717 301.188Z" transform="matrix(1 0 0 1.01759 75 157)"/><text font-family="Arial,Arial_MSFontService,sans-serif" font-weight="400" font-size="14" transform="matrix(0.814296 0 0 0.828619 1046.86 472)">ClientRequestMapping</text><path d="M949.062 317.575 1089.93 317.575" stroke="#181818" stroke-width="0.407148" fill="none" transform="matrix(1 0 0 1.01759 75 157)"/><path d="M949.062 324.09 1089.93 324.09" stroke="#181818" stroke-width="0.407148" fill="none" transform="matrix(1 0 0 1.01759 75 157)"/><path d="M917.711 291.518C918.836 291.518 919.747 292.429 919.747 293.554L919.747 328.568C919.747 329.693 918.836 330.604 917.711 330.604L766.252 330.604C765.128 330.604 764.217 329.693 764.217 328.568L764.217 293.554C764.217 292.429 765.128 291.518 766.252 291.518Z" stroke="#181818" stroke-width="0.407148" fill="#F1F1F1" transform="matrix(1 0 0 1.01759 75 157)"/><path d="M785.388 304.547C785.388 309.494 781.378 313.504 776.431 313.504 771.484 313.504 767.474 309.494 767.474 304.547 767.474 299.6 771.484 295.589 776.431 295.589 781.378 295.589 785.388 299.6 785.388 304.547Z" stroke="#181818" stroke-width="0.814296" fill="#ADD1B2" transform="matrix(1 0 0 1.01759 75 157)"/><path d="M778.683 301.188C778.768 301.069 778.861 300.98 778.963 300.921 779.064 300.861 779.175 300.832 779.294 300.832 779.498 300.832 779.663 300.901 779.79 301.041 779.917 301.181 779.98 301.416 779.98 301.747L779.98 302.931C779.98 303.262 779.917 303.499 779.79 303.644 779.663 303.788 779.498 303.859 779.294 303.859 779.107 303.859 778.959 303.805 778.849 303.694 778.738 303.592 778.653 303.402 778.594 303.122 778.568 302.926 778.505 302.778 778.403 302.676 778.225 302.473 777.971 302.311 777.639 302.192 777.309 302.074 776.974 302.015 776.635 302.015 776.219 302.015 775.839 302.104 775.496 302.282 775.153 302.46 774.847 302.753 774.58 303.16 774.312 303.567 774.179 304.051 774.179 304.61L774.179 305.501C774.179 306.171 774.42 306.729 774.904 307.174 775.388 307.619 776.062 307.842 776.927 307.842 777.436 307.842 777.869 307.774 778.225 307.638 778.437 307.554 778.657 307.393 778.887 307.155 779.031 307.011 779.143 306.917 779.224 306.875 779.305 306.832 779.4 306.811 779.51 306.811 779.688 306.811 779.847 306.881 779.987 307.021 780.127 307.161 780.197 307.324 780.197 307.511 780.197 307.698 780.103 307.901 779.917 308.122 779.646 308.436 779.294 308.682 778.861 308.86 778.276 309.106 777.631 309.229 776.927 309.229 776.104 309.229 775.367 309.059 774.714 308.72 774.179 308.449 773.725 308.022 773.352 307.441 772.978 306.86 772.792 306.222 772.792 305.526L772.792 304.585C772.792 303.863 772.96 303.192 773.294 302.568 773.63 301.945 774.094 301.465 774.688 301.131 775.282 300.795 775.914 300.628 776.584 300.628 776.982 300.628 777.358 300.672 777.709 300.762 778.062 300.85 778.386 300.992 778.683 301.188Z" transform="matrix(1 0 0 1.01759 75 157)"/><text font-family="Arial,Arial_MSFontService,sans-serif" font-weight="400" font-size="14" transform="matrix(0.814296 0 0 0.828619 862.831 472)">AddressRequestMapping</text><path d="M765.031 317.575 918.933 317.575" stroke="#181818" stroke-width="0.407148" fill="none" transform="matrix(1 0 0 1.01759 75 157)"/><path d="M765.031 324.09 918.933 324.09" stroke="#181818" stroke-width="0.407148" fill="none" transform="matrix(1 0 0 1.01759 75 157)"/><path d="M561.457 291.518C562.581 291.518 563.493 292.429 563.493 293.554L563.493 328.568C563.493 329.693 562.581 330.604 561.457 330.604L412.441 330.604C411.316 330.604 410.405 329.693 410.405 328.568L410.405 293.554C410.405 292.429 411.316 291.518 412.441 291.518Z" stroke="#181818" stroke-width="0.407148" fill="#F1F1F1" transform="matrix(1 0 0 1.01759 75 157)"/><path d="M431.577 304.547C431.577 309.494 427.566 313.504 422.619 313.504 417.673 313.504 413.662 309.494 413.662 304.547 413.662 299.6 417.673 295.589 422.619 295.589 427.566 295.589 431.577 299.6 431.577 304.547Z" stroke="#181818" stroke-width="0.814296" fill="#ADD1B2" transform="matrix(1 0 0 1.01759 75 157)"/><path d="M424.872 301.188C424.957 301.069 425.049 300.98 425.151 300.921 425.253 300.861 425.364 300.832 425.483 300.832 425.686 300.832 425.851 300.901 425.978 301.041 426.105 301.181 426.169 301.416 426.169 301.747L426.169 302.931C426.169 303.262 426.105 303.499 425.978 303.644 425.851 303.788 425.686 303.859 425.483 303.859 425.295 303.859 425.147 303.805 425.037 303.694 424.926 303.592 424.842 303.402 424.782 303.122 424.757 302.926 424.693 302.778 424.592 302.676 424.413 302.473 424.159 302.311 423.828 302.192 423.497 302.074 423.163 302.015 422.823 302.015 422.408 302.015 422.027 302.104 421.685 302.282 421.341 302.46 421.036 302.753 420.769 303.16 420.501 303.567 420.367 304.051 420.367 304.61L420.367 305.501C420.367 306.171 420.609 306.729 421.093 307.174 421.576 307.619 422.251 307.842 423.115 307.842 423.624 307.842 424.058 307.774 424.413 307.638 424.626 307.554 424.846 307.393 425.075 307.155 425.22 307.011 425.332 306.917 425.413 306.875 425.493 306.832 425.588 306.811 425.698 306.811 425.877 306.811 426.035 306.881 426.176 307.021 426.316 307.161 426.386 307.324 426.386 307.511 426.386 307.698 426.292 307.901 426.105 308.122 425.834 308.436 425.483 308.682 425.049 308.86 424.465 309.106 423.82 309.229 423.115 309.229 422.293 309.229 421.555 309.059 420.902 308.72 420.367 308.449 419.914 308.022 419.541 307.441 419.167 306.86 418.98 306.222 418.98 305.526L418.98 304.585C418.98 303.863 419.148 303.192 419.483 302.568 419.818 301.945 420.282 301.465 420.876 301.131 421.47 300.795 422.102 300.628 422.773 300.628 423.171 300.628 423.546 300.672 423.898 300.762 424.25 300.85 424.575 300.992 424.872 301.188Z" transform="matrix(1 0 0 1.01759 75 157)"/><text font-family="Arial,Arial_MSFontService,sans-serif" font-weight="400" font-size="14" transform="matrix(0.814296 0 0 0.828619 509.02 472)">ProductRequestMapping</text><path d="M411.219 317.575 562.678 317.575" stroke="#181818" stroke-width="0.407148" fill="none" transform="matrix(1 0 0 1.01759 75 157)"/><path d="M411.219 324.09 562.678 324.09" stroke="#181818" stroke-width="0.407148" fill="none" transform="matrix(1 0 0 1.01759 75 157)"/><path d="M733.273 291.518C734.398 291.518 735.309 292.429 735.309 293.554L735.309 328.568C735.309 329.693 734.398 330.604 733.273 330.604L594.029 330.604C592.904 330.604 591.993 329.693 591.993 328.568L591.993 293.554C591.993 292.429 592.904 291.518 594.029 291.518Z" stroke="#181818" stroke-width="0.407148" fill="#F1F1F1" transform="matrix(1 0 0 1.01759 75 157)"/><path d="M613.165 304.547C613.165 309.494 609.154 313.504 604.207 313.504 599.26 313.504 595.25 309.494 595.25 304.547 595.25 299.6 599.26 295.589 604.207 295.589 609.154 295.589 613.165 299.6 613.165 304.547Z" stroke="#181818" stroke-width="0.814296" fill="#ADD1B2" transform="matrix(1 0 0 1.01759 75 157)"/><path d="M606.46 301.188C606.544 301.069 606.637 300.98 606.739 300.921 606.841 300.861 606.952 300.832 607.07 300.832 607.274 300.832 607.439 300.901 607.566 301.041 607.693 301.181 607.757 301.416 607.757 301.747L607.757 302.931C607.757 303.262 607.693 303.499 607.566 303.644 607.439 303.788 607.274 303.859 607.07 303.859 606.883 303.859 606.735 303.805 606.625 303.694 606.514 303.592 606.43 303.402 606.37 303.122 606.345 302.926 606.281 302.778 606.18 302.676 606.001 302.473 605.747 302.311 605.416 302.192 605.085 302.074 604.751 302.015 604.411 302.015 603.996 302.015 603.615 302.104 603.273 302.282 602.929 302.46 602.624 302.753 602.357 303.16 602.089 303.567 601.955 304.051 601.955 304.61L601.955 305.501C601.955 306.171 602.197 306.729 602.681 307.174 603.164 307.619 603.839 307.842 604.703 307.842 605.212 307.842 605.645 307.774 606.001 307.638 606.214 307.554 606.434 307.393 606.663 307.155 606.807 307.011 606.92 306.917 607 306.875 607.081 306.832 607.176 306.811 607.286 306.811 607.465 306.811 607.623 306.881 607.763 307.021 607.904 307.161 607.974 307.324 607.974 307.511 607.974 307.698 607.88 307.901 607.693 308.122 607.422 308.436 607.07 308.682 606.637 308.86 606.053 309.106 605.408 309.229 604.703 309.229 603.881 309.229 603.143 309.059 602.49 308.72 601.955 308.449 601.502 308.022 601.129 307.441 600.755 306.86 600.568 306.222 600.568 305.526L600.568 304.585C600.568 303.863 600.736 303.192 601.071 302.568 601.406 301.945 601.87 301.465 602.464 301.131 603.058 300.795 603.69 300.628 604.36 300.628 604.759 300.628 605.134 300.672 605.486 300.762 605.838 300.85 606.163 300.992 606.46 301.188Z" transform="matrix(1 0 0 1.01759 75 157)"/><text font-family="Arial,Arial_MSFontService,sans-serif" font-weight="400" font-size="14" transform="matrix(0.814296 0 0 0.828619 690.608 472)">OrderRequestMapping</text><path d="M592.807 317.575 734.495 317.575" stroke="#181818" stroke-width="0.407148" fill="none" transform="matrix(1 0 0 1.01759 75 157)"/><path d="M592.807 324.09 734.495 324.09" stroke="#181818" stroke-width="0.407148" fill="none" transform="matrix(1 0 0 1.01759 75 157)"/><path d="M864.375 128.659C865.499 128.659 866.411 129.57 866.411 130.694L866.411 165.709C866.411 166.833 865.499 167.745 864.375 167.745L769.102 167.745C767.978 167.745 767.067 166.833 767.067 165.709L767.067 130.694C767.067 129.57 767.978 128.659 769.102 128.659Z" stroke="#181818" stroke-width="0.407148" fill="#F1F1F1" transform="matrix(1 0 0 1.01759 75 157)"/><path d="M788.238 141.687C788.238 146.634 784.228 150.645 779.281 150.645 774.334 150.645 770.324 146.634 770.324 141.687 770.324 136.74 774.334 132.73 779.281 132.73 784.228 132.73 788.238 136.74 788.238 141.687Z" stroke="#181818" stroke-width="0.814296" fill="#ADD1B2" transform="matrix(1 0 0 1.01759 75 157)"/><path d="M781.533 138.328C781.618 138.21 781.711 138.121 781.813 138.061 781.914 138.002 782.025 137.973 782.144 137.973 782.348 137.973 782.513 138.042 782.64 138.182 782.767 138.322 782.831 138.557 782.831 138.888L782.831 140.072C782.831 140.402 782.767 140.64 782.64 140.784 782.513 140.929 782.348 141 782.144 141 781.957 141 781.809 140.946 781.699 140.835 781.588 140.733 781.503 140.543 781.444 140.262 781.419 140.067 781.355 139.919 781.253 139.817 781.075 139.613 780.821 139.452 780.489 139.333 780.159 139.215 779.824 139.156 779.485 139.156 779.069 139.156 778.689 139.245 778.346 139.423 778.003 139.601 777.697 139.894 777.43 140.301 777.162 140.708 777.029 141.192 777.029 141.751L777.029 142.642C777.029 143.312 777.271 143.87 777.754 144.315 778.238 144.76 778.912 144.983 779.777 144.983 780.286 144.983 780.719 144.915 781.075 144.779 781.287 144.695 781.507 144.533 781.737 144.296 781.881 144.152 781.993 144.058 782.074 144.016 782.155 143.973 782.25 143.952 782.36 143.952 782.538 143.952 782.697 144.022 782.837 144.162 782.977 144.302 783.047 144.465 783.047 144.652 783.047 144.839 782.953 145.042 782.767 145.263 782.496 145.577 782.144 145.822 781.711 146.001 781.126 146.247 780.481 146.37 779.777 146.37 778.954 146.37 778.217 146.2 777.564 145.861 777.029 145.59 776.575 145.163 776.202 144.582 775.828 144.001 775.642 143.362 775.642 142.667L775.642 141.726C775.642 141.004 775.81 140.332 776.144 139.709 776.48 139.086 776.944 138.606 777.538 138.271 778.132 137.936 778.764 137.769 779.434 137.769 779.832 137.769 780.208 137.813 780.559 137.903 780.912 137.991 781.236 138.133 781.533 138.328Z" transform="matrix(1 0 0 1.01759 75 157)"/><text font-family="Arial,Arial_MSFontService,sans-serif" font-weight="400" font-size="14" transform="matrix(0.814296 0 0 0.828619 865.681 306)">ClientsService</text><path d="M767.881 154.716 865.596 154.716" stroke="#181818" stroke-width="0.407148" fill="none" transform="matrix(1 0 0 1.01759 75 157)"/><path d="M767.881 161.231 865.596 161.231" stroke="#181818" stroke-width="0.407148" fill="none" transform="matrix(1 0 0 1.01759 75 157)"/><path d="M607.465 128.659C608.589 128.659 609.5 129.57 609.5 130.694L609.5 165.709C609.5 166.833 608.589 167.745 607.465 167.745L513.006 167.745C511.882 167.745 510.971 166.833 510.971 165.709L510.971 130.694C510.971 129.57 511.882 128.659 513.006 128.659Z" stroke="#181818" stroke-width="0.407148" fill="#F1F1F1" transform="matrix(1 0 0 1.01759 75 157)"/><path d="M532.142 141.687C532.142 146.634 528.132 150.645 523.185 150.645 518.238 150.645 514.228 146.634 514.228 141.687 514.228 136.74 518.238 132.73 523.185 132.73 528.132 132.73 532.142 136.74 532.142 141.687Z" stroke="#181818" stroke-width="0.814296" fill="#ADD1B2" transform="matrix(1 0 0 1.01759 75 157)"/><path d="M525.437 138.328C525.522 138.21 525.615 138.121 525.717 138.061 525.818 138.002 525.929 137.973 526.048 137.973 526.252 137.973 526.417 138.042 526.544 138.182 526.671 138.322 526.734 138.557 526.734 138.888L526.734 140.072C526.734 140.402 526.671 140.64 526.544 140.784 526.417 140.929 526.252 141 526.048 141 525.861 141 525.713 140.946 525.603 140.835 525.492 140.733 525.407 140.543 525.348 140.262 525.323 140.067 525.259 139.919 525.157 139.817 524.979 139.613 524.725 139.452 524.393 139.333 524.063 139.215 523.728 139.156 523.389 139.156 522.973 139.156 522.593 139.245 522.25 139.423 521.907 139.601 521.601 139.894 521.334 140.301 521.066 140.708 520.933 141.192 520.933 141.751L520.933 142.642C520.933 143.312 521.174 143.87 521.658 144.315 522.142 144.76 522.816 144.983 523.681 144.983 524.19 144.983 524.623 144.915 524.979 144.779 525.191 144.695 525.411 144.533 525.641 144.296 525.785 144.152 525.897 144.058 525.978 144.016 526.059 143.973 526.154 143.952 526.264 143.952 526.442 143.952 526.601 144.022 526.741 144.162 526.881 144.302 526.951 144.465 526.951 144.652 526.951 144.839 526.857 145.042 526.671 145.263 526.4 145.577 526.048 145.822 525.615 146.001 525.03 146.247 524.385 146.37 523.681 146.37 522.858 146.37 522.121 146.2 521.468 145.861 520.933 145.59 520.479 145.163 520.106 144.582 519.732 144.001 519.546 143.362 519.546 142.667L519.546 141.726C519.546 141.004 519.714 140.332 520.048 139.709 520.384 139.086 520.848 138.606 521.442 138.271 522.036 137.936 522.668 137.769 523.338 137.769 523.736 137.769 524.112 137.813 524.463 137.903 524.816 137.991 525.14 138.133 525.437 138.328Z" transform="matrix(1 0 0 1.01759 75 157)"/><text font-family="Arial,Arial_MSFontService,sans-serif" font-weight="400" font-size="14" transform="matrix(0.814296 0 0 0.828619 609.585 306)">StocksService</text><path d="M511.785 154.716 608.686 154.716" stroke="#181818" stroke-width="0.407148" fill="none" transform="matrix(1 0 0 1.01759 75 157)"/><path d="M511.785 161.231 608.686 161.231" stroke="#181818" stroke-width="0.407148" fill="none" transform="matrix(1 0 0 1.01759 75 157)"/><path d="M736.123 128.659C737.248 128.659 738.159 129.57 738.159 130.694L738.159 165.709C738.159 166.833 737.248 167.745 736.123 167.745L640.036 167.745C638.912 167.745 638.001 166.833 638.001 165.709L638.001 130.694C638.001 129.57 638.912 128.659 640.036 128.659Z" stroke="#181818" stroke-width="0.407148" fill="#F1F1F1" transform="matrix(1 0 0 1.01759 75 157)"/><path d="M659.172 141.687C659.172 146.634 655.162 150.645 650.215 150.645 645.268 150.645 641.258 146.634 641.258 141.687 641.258 136.74 645.268 132.73 650.215 132.73 655.162 132.73 659.172 136.74 659.172 141.687Z" stroke="#181818" stroke-width="0.814296" fill="#ADD1B2" transform="matrix(1 0 0 1.01759 75 157)"/><path d="M652.467 138.328C652.552 138.21 652.645 138.121 652.747 138.061 652.849 138.002 652.959 137.973 653.078 137.973 653.282 137.973 653.447 138.042 653.574 138.182 653.701 138.322 653.765 138.557 653.765 138.888L653.765 140.072C653.765 140.402 653.701 140.64 653.574 140.784 653.447 140.929 653.282 141 653.078 141 652.891 141 652.743 140.946 652.633 140.835 652.522 140.733 652.437 140.543 652.378 140.262 652.353 140.067 652.289 139.919 652.187 139.817 652.009 139.613 651.755 139.452 651.424 139.333 651.093 139.215 650.758 139.156 650.419 139.156 650.003 139.156 649.623 139.245 649.28 139.423 648.937 139.601 648.631 139.894 648.364 140.301 648.096 140.708 647.963 141.192 647.963 141.751L647.963 142.642C647.963 143.312 648.205 143.87 648.688 144.315 649.172 144.76 649.846 144.983 650.711 144.983 651.22 144.983 651.653 144.915 652.009 144.779 652.222 144.695 652.441 144.533 652.671 144.296 652.815 144.152 652.928 144.058 653.008 144.016 653.089 143.973 653.184 143.952 653.294 143.952 653.472 143.952 653.631 144.022 653.771 144.162 653.911 144.302 653.981 144.465 653.981 144.652 653.981 144.839 653.888 145.042 653.701 145.263 653.43 145.577 653.078 145.822 652.645 146.001 652.06 146.247 651.415 146.37 650.711 146.37 649.889 146.37 649.151 146.2 648.498 145.861 647.963 145.59 647.509 145.163 647.136 144.582 646.763 144.001 646.576 143.362 646.576 142.667L646.576 141.726C646.576 141.004 646.744 140.332 647.078 139.709 647.414 139.086 647.878 138.606 648.472 138.271 649.066 137.936 649.698 137.769 650.368 137.769 650.766 137.769 651.142 137.813 651.494 137.903 651.846 137.991 652.17 138.133 652.467 138.328Z" transform="matrix(1 0 0 1.01759 75 157)"/><text font-family="Arial,Arial_MSFontService,sans-serif" font-weight="400" font-size="14" transform="matrix(0.814296 0 0 0.828619 736.615 306)">OrdersService</text><path d="M638.815 154.716 737.345 154.716" stroke="#181818" stroke-width="0.407148" fill="none" transform="matrix(1 0 0 1.01759 75 157)"/><path d="M638.815 161.231 737.345 161.231" stroke="#181818" stroke-width="0.407148" fill="none" transform="matrix(1 0 0 1.01759 75 157)"/><path d="M102.992 86.1118C88.5384 103.204 76.5845 117.633 67.5051 128.642" stroke="#181818" stroke-width="0.814296" fill="none" transform="matrix(1 0 0 1.01759 75 157)"/><path d="M98.7822 82.2601 113.676 73.539 107.479 89.6377 98.7822 82.2601Z" stroke="#181818" stroke-width="0.814296" fill="none" transform="matrix(1 0 0 1.01759 75 157)"/><path d="M153.519 54.5008C227.824 54.5415 456.136 56.5773 478.806 79.801 481.35 82.4067 483.325 85.3724 484.832 88.5726 485.21 89.373 485.557 90.1873 485.877 91.0146 486.037 91.4283 486.19 91.8452 486.336 92.2654 486.373 92.3704 486.409 92.4755 486.445 92.5805" stroke="#181818" stroke-width="0.814296" fill="none" transform="matrix(1 0 0 1.01759 75 157)"/><path d="M486.445 92.5805 487.959 86.9073 483.304 83.3277 481.79 89.0009 486.445 92.5805Z" stroke="#181818" stroke-width="0.814296" fill="none" transform="matrix(1 0 0 1.01759 75 157)"/><path d="M126.476 73.4413C120.841 101.25 109.914 154.838 100.158 200.317 94.3036 227.628 87.3739 258.694 82.3904 280.818" stroke="#181818" stroke-width="0.814296" fill="none" transform="matrix(1 0 0 1.01759 75 157)"/><path d="M80.0534 291.2 84.3048 287.149 82.2007 281.667 77.9493 285.718 80.0534 291.2Z" stroke="#181818" stroke-width="0.814296" fill="none" transform="matrix(1 0 0 1.01759 75 157)"/><path d="M131.558 73.3029C133.463 102.031 137.07 158.682 139.245 206.831 139.756 218.136 140.212 230.14 140.61 241.813 140.709 244.732 140.806 247.63 140.898 250.491 140.943 251.922 140.989 253.344 141.033 254.754 141.038 254.93 141.044 255.106 141.049 255.282" stroke="#181818" stroke-width="0.814296" fill="none" transform="matrix(1 0 0 1.01759 75 157)"/><path d="M141.049 255.282 144.152 250.297 140.744 245.515 137.641 250.5 141.049 255.282Z" stroke="#181818" stroke-width="0.814296" fill="none" transform="matrix(1 0 0 1.01759 75 157)"/><path d="M485.889 187.401C485.867 187.483 485.847 187.566 485.827 187.649 485.784 187.813 485.742 187.979 485.698 188.142 485.521 188.799 485.326 189.447 485.111 190.087 484.68 191.367 484.169 192.611 483.568 193.807 482.366 196.2 480.804 198.403 478.806 200.317 465.932 212.645 171.36 195.056 157.973 206.831 153.68 210.608 150.562 218.788 148.303 228.977 147.173 234.071 146.257 239.667 145.516 245.465 145.146 248.365 144.818 251.315 144.53 254.278 144.494 254.648 144.458 255.019 144.424 255.39" stroke="#181818" stroke-width="0.814296" fill="none" transform="matrix(1 0 0 1.01759 75 157)"/><path d="M144.424 255.39 148.124 250.83 145.338 245.661 141.638 250.22 144.424 255.39Z" stroke="#181818" stroke-width="0.814296" fill="none" transform="matrix(1 0 0 1.01759 75 157)"/><path d="M866.215 167.834C888.226 177.565 913.697 190.781 933.997 206.831 961.301 228.418 985.86 260.037 1001.58 282.618" stroke="#0000FF" stroke-width="0.814296" fill="none" transform="matrix(1 0 0 1.01759 75 157)"/><path d="M1007.55 291.388 1007.5 285.516 1002.06 283.311 1002.11 289.182 1007.55 291.388Z" stroke="#0000FF" stroke-width="0.814296" fill="none" transform="matrix(1 0 0 1.01759 75 157)"/><path d="M819.686 167.826C824.035 195.602 832.21 247.847 837.365 280.753" stroke="#0000FF" stroke-width="0.814296" fill="none" transform="matrix(1 0 0 1.01759 75 157)"/><path d="M839.018 291.306 841.477 285.975 837.503 281.653 835.044 286.984 839.018 291.306Z" stroke="#0000FF" stroke-width="0.814296" fill="none" transform="matrix(1 0 0 1.01759 75 157)"/><path d="M551.685 167.826C538.95 195.846 514.895 248.759 499.969 281.608" stroke="#0000FF" stroke-width="0.814296" fill="none" transform="matrix(1 0 0 1.01759 75 157)"/><path d="M495.556 291.306 500.545 288.209 499.605 282.413 494.616 285.51 495.556 291.306Z" stroke="#0000FF" stroke-width="0.814296" fill="none" transform="matrix(1 0 0 1.01759 75 157)"/><path d="M705.49 167.818C717.606 179.52 734.845 193.574 753.224 200.317 772.091 207.238 915.969 197.947 933.997 206.831 966.374 222.791 990.876 257.309 1005.18 282.08" stroke="#0000FF" stroke-width="0.814296" fill="none" transform="matrix(1 0 0 1.01759 75 157)"/><path d="M1010.33 291.363 1010.8 285.511 1005.58 282.82 1005.11 288.673 1010.33 291.363Z" stroke="#0000FF" stroke-width="0.814296" fill="none" transform="matrix(1 0 0 1.01759 75 157)"/><path d="M709.162 167.826C721.352 178.909 736.824 193.363 749.966 206.831 774.46 231.92 800.917 262.008 819.149 283.236" stroke="#0000FF" stroke-width="0.814296" fill="none" transform="matrix(1 0 0 1.01759 75 157)"/><path d="M826.193 291.477 825.5 285.647 819.849 284.047 820.541 289.877 826.193 291.477Z" stroke="#0000FF" stroke-width="0.814296" fill="none" transform="matrix(1 0 0 1.01759 75 157)"/><path d="M669.88 167.948C657.878 179.235 641.193 192.785 623.75 200.317 604.957 208.435 596.162 197.108 578.15 206.831 545.7 224.347 519.276 258.229 503.381 282.438" stroke="#0000FF" stroke-width="0.814296" fill="none" transform="matrix(1 0 0 1.01759 75 157)"/><path d="M497.616 291.51 502.986 289.133 502.857 283.263 497.487 285.639 497.616 291.51Z" stroke="#0000FF" stroke-width="0.814296" fill="none" transform="matrix(1 0 0 1.01759 75 157)"/><path d="M685.23 167.826C681.02 195.602 673.105 247.847 668.121 280.753" stroke="#0000FF" stroke-width="0.814296" fill="none" transform="matrix(1 0 0 1.01759 75 157)"/><path d="M666.517 291.306 670.468 286.962 667.977 281.645 664.026 285.989 666.517 291.306Z" stroke="#0000FF" stroke-width="0.814296" fill="none" transform="matrix(1 0 0 1.01759 75 157)"/><path d="M487.642 187.517C487.679 187.598 487.717 187.68 487.756 187.761 487.909 188.088 488.066 188.411 488.227 188.733 488.549 189.376 488.887 190.009 489.24 190.632 489.948 191.879 490.721 193.082 491.566 194.227 493.256 196.519 495.229 198.584 497.535 200.317 511.011 210.438 1092.33 194.853 1104.18 206.831 1153.05 256.226 1150.89 311.729 1104.18 363.176 1083.31 386.172 880.482 394.51 788.084 397.132" stroke="#181818" stroke-width="0.814296" fill="none" transform="matrix(1 0 0 1.01759 75 157)"/><path d="M777.384 397.425 782.357 400.546 787.152 397.156 782.178 394.035 777.384 397.425Z" stroke="#181818" stroke-width="0.814296" fill="none" transform="matrix(1 0 0 1.01759 75 157)"/><path d="M387.868 350.279C388.018 350.608 388.173 350.935 388.331 351.26 388.647 351.911 388.978 352.553 389.325 353.185 390.018 354.45 390.772 355.676 391.594 356.85 393.238 359.2 395.151 361.341 397.376 363.176 420.054 381.872 608.8 392.409 697.241 396.367" stroke="#181818" stroke-width="0.814296" fill="none" transform="matrix(1 0 0 1.01759 75 157)"/><path d="M708.014 396.839 703.272 393.376 698.251 396.42 702.993 399.884 708.014 396.839Z" stroke="#181818" stroke-width="0.814296" fill="none" transform="matrix(1 0 0 1.01759 75 157)"/></g></svg>