<?xml version="1.0" encoding="UTF-8" standalone="no"?><svg xmlns="http://www.w3.org/2000/svg" xmlns:xlink="http://www.w3.org/1999/xlink" contentStyleType="text/css" height="1125px" preserveAspectRatio="none" style="width:653px;height:1125px;background:#FFFFFF;" version="1.1" viewBox="0 0 653 1125" width="653px" zoomAndPan="magnify"><defs/><g><rect fill="#FFFFFF" height="1032.25" style="stroke:#181818;stroke-width:1.0;" width="10" x="56" y="47.6094"/><rect fill="#FFFFFF" height="1032.25" style="stroke:#181818;stroke-width:1.0;" width="10" x="303" y="47.6094"/><rect fill="#FFFFFF" height="30.3516" style="stroke:#181818;stroke-width:1.0;" width="10" x="495" y="125.6641"/><rect fill="#FFFFFF" height="30.3516" style="stroke:#181818;stroke-width:1.0;" width="10" x="495" y="383.4766"/><rect fill="#FFFFFF" height="30.3516" style="stroke:#181818;stroke-width:1.0;" width="10" x="495" y="641.2891"/><rect fill="#FFFFFF" height="30.3516" style="stroke:#181818;stroke-width:1.0;" width="10" x="495" y="899.1016"/><rect fill="#FFFFFF" height="1032.25" style="stroke:#181818;stroke-width:1.0;" width="10" x="594.5" y="47.6094"/><rect fill="none" height="243.8125" style="stroke:#000000;stroke-width:1.5;" width="637" x="10" y="54.6094"/><rect fill="none" height="243.8125" style="stroke:#000000;stroke-width:1.5;" width="637" x="10" y="312.4219"/><rect fill="none" height="243.8125" style="stroke:#000000;stroke-width:1.5;" width="637" x="10" y="570.2344"/><rect fill="none" height="243.8125" style="stroke:#000000;stroke-width:1.5;" width="637" x="10" y="828.0469"/><line style="stroke:#181818;stroke-width:0.5;stroke-dasharray:5.0,5.0;" x1="61" x2="61" y1="37.6094" y2="1088.8594"/><line style="stroke:#181818;stroke-width:0.5;stroke-dasharray:5.0,5.0;" x1="307.5" x2="307.5" y1="37.6094" y2="1088.8594"/><line style="stroke:#181818;stroke-width:0.5;stroke-dasharray:5.0,5.0;" x1="500" x2="500" y1="37.6094" y2="1088.8594"/><line style="stroke:#181818;stroke-width:0.5;stroke-dasharray:5.0,5.0;" x1="599" x2="599" y1="37.6094" y2="1088.8594"/><rect fill="#E2E2F0" height="31.6094" rx="2.5" ry="2.5" style="stroke:#181818;stroke-width:0.5;" width="82" x="20" y="5"/><text fill="#000000" font-family="sans-serif" font-size="14" lengthAdjust="spacing" textLength="68" x="27" y="26.5332">Formulaire</text><rect fill="#E2E2F0" height="31.6094" rx="2.5" ry="2.5" style="stroke:#181818;stroke-width:0.5;" width="82" x="20" y="1087.8594"/><text fill="#000000" font-family="sans-serif" font-size="14" lengthAdjust="spacing" textLength="68" x="27" y="1109.3926">Formulaire</text><rect fill="#E2E2F0" height="31.6094" rx="2.5" ry="2.5" style="stroke:#181818;stroke-width:0.5;" width="97" x="259.5" y="5"/><text fill="#000000" font-family="sans-serif" font-size="14" lengthAdjust="spacing" textLength="83" x="266.5" y="26.5332">ClientService</text><rect fill="#E2E2F0" height="31.6094" rx="2.5" ry="2.5" style="stroke:#181818;stroke-width:0.5;" width="97" x="259.5" y="1087.8594"/><text fill="#000000" font-family="sans-serif" font-size="14" lengthAdjust="spacing" textLength="83" x="266.5" y="1109.3926">ClientService</text><rect fill="#E2E2F0" height="31.6094" rx="2.5" ry="2.5" style="stroke:#181818;stroke-width:0.5;" width="104" x="448" y="5"/><text fill="#000000" font-family="sans-serif" font-size="14" lengthAdjust="spacing" textLength="90" x="455" y="26.5332">ClientMapping</text><rect fill="#E2E2F0" height="31.6094" rx="2.5" ry="2.5" style="stroke:#181818;stroke-width:0.5;" width="104" x="448" y="1087.8594"/><text fill="#000000" font-family="sans-serif" font-size="14" lengthAdjust="spacing" textLength="90" x="455" y="1109.3926">ClientMapping</text><rect fill="#E2E2F0" height="31.6094" rx="2.5" ry="2.5" style="stroke:#181818;stroke-width:0.5;" width="75" x="562" y="5"/><text fill="#000000" font-family="sans-serif" font-size="14" lengthAdjust="spacing" textLength="61" x="569" y="26.5332">Database</text><rect fill="#E2E2F0" height="31.6094" rx="2.5" ry="2.5" style="stroke:#181818;stroke-width:0.5;" width="75" x="562" y="1087.8594"/><text fill="#000000" font-family="sans-serif" font-size="14" lengthAdjust="spacing" textLength="61" x="569" y="1109.3926">Database</text><rect fill="#FFFFFF" height="1032.25" style="stroke:#181818;stroke-width:1.0;" width="10" x="56" y="47.6094"/><rect fill="#FFFFFF" height="1032.25" style="stroke:#181818;stroke-width:1.0;" width="10" x="303" y="47.6094"/><rect fill="#FFFFFF" height="30.3516" style="stroke:#181818;stroke-width:1.0;" width="10" x="495" y="125.6641"/><rect fill="#FFFFFF" height="30.3516" style="stroke:#181818;stroke-width:1.0;" width="10" x="495" y="383.4766"/><rect fill="#FFFFFF" height="30.3516" style="stroke:#181818;stroke-width:1.0;" width="10" x="495" y="641.2891"/><rect fill="#FFFFFF" height="30.3516" style="stroke:#181818;stroke-width:1.0;" width="10" x="495" y="899.1016"/><rect fill="#FFFFFF" height="1032.25" style="stroke:#181818;stroke-width:1.0;" width="10" x="594.5" y="47.6094"/><path d="M10,54.6094 L149,54.6094 L149,62.9609 L139,72.9609 L10,72.9609 L10,54.6094 " fill="#EEEEEE" style="stroke:#000000;stroke-width:1.5;"/><rect fill="none" height="243.8125" style="stroke:#000000;stroke-width:1.5;" width="637" x="10" y="54.6094"/><text fill="#000000" font-family="sans-serif" font-size="13" font-weight="bold" lengthAdjust="spacing" textLength="94" x="25" y="69.1045">Créer un client</text><polygon fill="#181818" points="291,91.3125,301,95.3125,291,99.3125,295,95.3125" style="stroke:#181818;stroke-width:1.0;"/><line style="stroke:#181818;stroke-width:1.0;" x1="66" x2="297" y1="95.3125" y2="95.3125"/><text fill="#000000" font-family="sans-serif" font-size="13" lengthAdjust="spacing" textLength="160" x="73" y="90.4561">createClient(name, email...)</text><polygon fill="#181818" points="483,121.6641,493,125.6641,483,129.6641,487,125.6641" style="stroke:#181818;stroke-width:1.0;"/><line style="stroke:#181818;stroke-width:1.0;" x1="313" x2="489" y1="125.6641" y2="125.6641"/><text fill="#000000" font-family="sans-serif" font-size="13" lengthAdjust="spacing" textLength="156" x="320" y="120.8076">insertClient(name, email...)</text><polygon fill="#181818" points="324,152.0156,314,156.0156,324,160.0156,320,156.0156" style="stroke:#181818;stroke-width:1.0;"/><line style="stroke:#181818;stroke-width:1.0;" x1="318" x2="499" y1="156.0156" y2="156.0156"/><text fill="#000000" font-family="sans-serif" font-size="13" lengthAdjust="spacing" textLength="88" x="330" y="151.1592">Request^ client</text><polygon fill="#181818" points="582.5,182.3672,592.5,186.3672,582.5,190.3672,586.5,186.3672" style="stroke:#181818;stroke-width:1.0;"/><line style="stroke:#181818;stroke-width:1.0;" x1="313" x2="588.5" y1="186.3672" y2="186.3672"/><text fill="#000000" font-family="sans-serif" font-size="13" lengthAdjust="spacing" textLength="176" x="320" y="181.5107">insertRequest(Request^ client)</text><polygon fill="#181818" points="324,212.7188,314,216.7188,324,220.7188,320,216.7188" style="stroke:#181818;stroke-width:1.0;"/><line style="stroke:#181818;stroke-width:1.0;" x1="318" x2="593.5" y1="216.7188" y2="216.7188"/><text fill="#000000" font-family="sans-serif" font-size="13" lengthAdjust="spacing" textLength="71" x="330" y="211.8623">int response</text><polygon fill="#181818" points="77,243.0703,67,247.0703,77,251.0703,73,247.0703" style="stroke:#181818;stroke-width:1.0;"/><line style="stroke:#181818;stroke-width:1.0;" x1="71" x2="302" y1="247.0703" y2="247.0703"/><text fill="#000000" font-family="sans-serif" font-size="13" lengthAdjust="spacing" textLength="71" x="83" y="242.2139">int response</text><line style="stroke:#181818;stroke-width:1.0;" x1="66" x2="108" y1="277.4219" y2="277.4219"/><line style="stroke:#181818;stroke-width:1.0;" x1="108" x2="108" y1="277.4219" y2="290.4219"/><line style="stroke:#181818;stroke-width:1.0;" x1="67" x2="108" y1="290.4219" y2="290.4219"/><polygon fill="#181818" points="77,286.4219,67,290.4219,77,294.4219,73,290.4219" style="stroke:#181818;stroke-width:1.0;"/><text fill="#000000" font-family="sans-serif" font-size="13" lengthAdjust="spacing" textLength="96" x="73" y="272.5654">updateInterface()</text><path d="M10,312.4219 L166,312.4219 L166,320.7734 L156,330.7734 L10,330.7734 L10,312.4219 " fill="#EEEEEE" style="stroke:#000000;stroke-width:1.5;"/><rect fill="none" height="243.8125" style="stroke:#000000;stroke-width:1.5;" width="637" x="10" y="312.4219"/><text fill="#000000" font-family="sans-serif" font-size="13" font-weight="bold" lengthAdjust="spacing" textLength="111" x="25" y="326.917">Modifier un client</text><polygon fill="#181818" points="291,349.125,301,353.125,291,357.125,295,353.125" style="stroke:#181818;stroke-width:1.0;"/><line style="stroke:#181818;stroke-width:1.0;" x1="66" x2="297" y1="353.125" y2="353.125"/><text fill="#000000" font-family="sans-serif" font-size="13" lengthAdjust="spacing" textLength="213" x="73" y="348.2686">updateClient(Datatype::Client^ client)</text><polygon fill="#181818" points="483,379.4766,493,383.4766,483,387.4766,487,383.4766" style="stroke:#181818;stroke-width:1.0;"/><line style="stroke:#181818;stroke-width:1.0;" x1="313" x2="489" y1="383.4766" y2="383.4766"/><text fill="#000000" font-family="sans-serif" font-size="13" lengthAdjust="spacing" textLength="163" x="320" y="378.6201">updateClient(name, email...)</text><polygon fill="#181818" points="324,409.8281,314,413.8281,324,417.8281,320,413.8281" style="stroke:#181818;stroke-width:1.0;"/><line style="stroke:#181818;stroke-width:1.0;" x1="318" x2="499" y1="413.8281" y2="413.8281"/><text fill="#000000" font-family="sans-serif" font-size="13" lengthAdjust="spacing" textLength="88" x="330" y="408.9717">Request^ client</text><polygon fill="#181818" points="582.5,440.1797,592.5,444.1797,582.5,448.1797,586.5,444.1797" style="stroke:#181818;stroke-width:1.0;"/><line style="stroke:#181818;stroke-width:1.0;" x1="313" x2="588.5" y1="444.1797" y2="444.1797"/><text fill="#000000" font-family="sans-serif" font-size="13" lengthAdjust="spacing" textLength="183" x="320" y="439.3232">updateRequest(Request^ client)</text><polygon fill="#181818" points="324,470.5313,314,474.5313,324,478.5313,320,474.5313" style="stroke:#181818;stroke-width:1.0;"/><line style="stroke:#181818;stroke-width:1.0;" x1="318" x2="593.5" y1="474.5313" y2="474.5313"/><text fill="#000000" font-family="sans-serif" font-size="13" lengthAdjust="spacing" textLength="71" x="330" y="469.6748">int response</text><polygon fill="#181818" points="77,500.8828,67,504.8828,77,508.8828,73,504.8828" style="stroke:#181818;stroke-width:1.0;"/><line style="stroke:#181818;stroke-width:1.0;" x1="71" x2="302" y1="504.8828" y2="504.8828"/><text fill="#000000" font-family="sans-serif" font-size="13" lengthAdjust="spacing" textLength="71" x="83" y="500.0264">int response</text><line style="stroke:#181818;stroke-width:1.0;" x1="66" x2="108" y1="535.2344" y2="535.2344"/><line style="stroke:#181818;stroke-width:1.0;" x1="108" x2="108" y1="535.2344" y2="548.2344"/><line style="stroke:#181818;stroke-width:1.0;" x1="67" x2="108" y1="548.2344" y2="548.2344"/><polygon fill="#181818" points="77,544.2344,67,548.2344,77,552.2344,73,548.2344" style="stroke:#181818;stroke-width:1.0;"/><text fill="#000000" font-family="sans-serif" font-size="13" lengthAdjust="spacing" textLength="96" x="73" y="530.3779">updateInterface()</text><path d="M10,570.2344 L181,570.2344 L181,578.5859 L171,588.5859 L10,588.5859 L10,570.2344 " fill="#EEEEEE" style="stroke:#000000;stroke-width:1.5;"/><rect fill="none" height="243.8125" style="stroke:#000000;stroke-width:1.5;" width="637" x="10" y="570.2344"/><text fill="#000000" font-family="sans-serif" font-size="13" font-weight="bold" lengthAdjust="spacing" textLength="126" x="25" y="584.7295">Supprimer un client</text><polygon fill="#181818" points="291,606.9375,301,610.9375,291,614.9375,295,610.9375" style="stroke:#181818;stroke-width:1.0;"/><line style="stroke:#181818;stroke-width:1.0;" x1="66" x2="297" y1="610.9375" y2="610.9375"/><text fill="#000000" font-family="sans-serif" font-size="13" lengthAdjust="spacing" textLength="209" x="73" y="606.0811">deleteClient(Datatype::Client^ client)</text><polygon fill="#181818" points="483,637.2891,493,641.2891,483,645.2891,487,641.2891" style="stroke:#181818;stroke-width:1.0;"/><line style="stroke:#181818;stroke-width:1.0;" x1="313" x2="489" y1="641.2891" y2="641.2891"/><text fill="#000000" font-family="sans-serif" font-size="13" lengthAdjust="spacing" textLength="86" x="320" y="636.4326">deleteClient(id)</text><polygon fill="#181818" points="324,667.6406,314,671.6406,324,675.6406,320,671.6406" style="stroke:#181818;stroke-width:1.0;"/><line style="stroke:#181818;stroke-width:1.0;" x1="318" x2="499" y1="671.6406" y2="671.6406"/><text fill="#000000" font-family="sans-serif" font-size="13" lengthAdjust="spacing" textLength="88" x="330" y="666.7842">Request^ client</text><polygon fill="#181818" points="582.5,697.9922,592.5,701.9922,582.5,705.9922,586.5,701.9922" style="stroke:#181818;stroke-width:1.0;"/><line style="stroke:#181818;stroke-width:1.0;" x1="313" x2="588.5" y1="701.9922" y2="701.9922"/><text fill="#000000" font-family="sans-serif" font-size="13" lengthAdjust="spacing" textLength="179" x="320" y="697.1357">deleteRequest(Request^ client)</text><polygon fill="#181818" points="324,728.3438,314,732.3438,324,736.3438,320,732.3438" style="stroke:#181818;stroke-width:1.0;"/><line style="stroke:#181818;stroke-width:1.0;" x1="318" x2="593.5" y1="732.3438" y2="732.3438"/><text fill="#000000" font-family="sans-serif" font-size="13" lengthAdjust="spacing" textLength="71" x="330" y="727.4873">int response</text><polygon fill="#181818" points="77,758.6953,67,762.6953,77,766.6953,73,762.6953" style="stroke:#181818;stroke-width:1.0;"/><line style="stroke:#181818;stroke-width:1.0;" x1="71" x2="302" y1="762.6953" y2="762.6953"/><text fill="#000000" font-family="sans-serif" font-size="13" lengthAdjust="spacing" textLength="71" x="83" y="757.8389">int response</text><line style="stroke:#181818;stroke-width:1.0;" x1="66" x2="108" y1="793.0469" y2="793.0469"/><line style="stroke:#181818;stroke-width:1.0;" x1="108" x2="108" y1="793.0469" y2="806.0469"/><line style="stroke:#181818;stroke-width:1.0;" x1="67" x2="108" y1="806.0469" y2="806.0469"/><polygon fill="#181818" points="77,802.0469,67,806.0469,77,810.0469,73,806.0469" style="stroke:#181818;stroke-width:1.0;"/><text fill="#000000" font-family="sans-serif" font-size="13" lengthAdjust="spacing" textLength="96" x="73" y="788.1904">updateInterface()</text><path d="M10,828.0469 L163,828.0469 L163,836.3984 L153,846.3984 L10,846.3984 L10,828.0469 " fill="#EEEEEE" style="stroke:#000000;stroke-width:1.5;"/><rect fill="none" height="243.8125" style="stroke:#000000;stroke-width:1.5;" width="637" x="10" y="828.0469"/><text fill="#000000" font-family="sans-serif" font-size="13" font-weight="bold" lengthAdjust="spacing" textLength="108" x="25" y="842.542">Afficher un client</text><polygon fill="#181818" points="291,864.75,301,868.75,291,872.75,295,868.75" style="stroke:#181818;stroke-width:1.0;"/><line style="stroke:#181818;stroke-width:1.0;" x1="66" x2="297" y1="868.75" y2="868.75"/><text fill="#000000" font-family="sans-serif" font-size="13" lengthAdjust="spacing" textLength="69" x="73" y="863.8936">getClient(id)</text><polygon fill="#181818" points="483,895.1016,493,899.1016,483,903.1016,487,899.1016" style="stroke:#181818;stroke-width:1.0;"/><line style="stroke:#181818;stroke-width:1.0;" x1="313" x2="489" y1="899.1016" y2="899.1016"/><text fill="#000000" font-family="sans-serif" font-size="13" lengthAdjust="spacing" textLength="69" x="320" y="894.2451">getClient(id)</text><polygon fill="#181818" points="324,925.4531,314,929.4531,324,933.4531,320,929.4531" style="stroke:#181818;stroke-width:1.0;"/><line style="stroke:#181818;stroke-width:1.0;" x1="318" x2="499" y1="929.4531" y2="929.4531"/><text fill="#000000" font-family="sans-serif" font-size="13" lengthAdjust="spacing" textLength="88" x="330" y="924.5967">Request^ client</text><polygon fill="#181818" points="582.5,955.8047,592.5,959.8047,582.5,963.8047,586.5,959.8047" style="stroke:#181818;stroke-width:1.0;"/><line style="stroke:#181818;stroke-width:1.0;" x1="313" x2="588.5" y1="959.8047" y2="959.8047"/><text fill="#000000" font-family="sans-serif" font-size="13" lengthAdjust="spacing" textLength="162" x="320" y="954.9482">getRequest(Request^ client)</text><polygon fill="#181818" points="324,986.1563,314,990.1563,324,994.1563,320,990.1563" style="stroke:#181818;stroke-width:1.0;"/><line style="stroke:#181818;stroke-width:1.0;" x1="318" x2="593.5" y1="990.1563" y2="990.1563"/><text fill="#000000" font-family="sans-serif" font-size="13" lengthAdjust="spacing" textLength="93" x="330" y="985.2998">DataTable client</text><polygon fill="#181818" points="77,1016.5078,67,1020.5078,77,1024.5078,73,1020.5078" style="stroke:#181818;stroke-width:1.0;"/><line style="stroke:#181818;stroke-width:1.0;" x1="71" x2="302" y1="1020.5078" y2="1020.5078"/><text fill="#000000" font-family="sans-serif" font-size="13" lengthAdjust="spacing" textLength="133" x="83" y="1015.6514">Datatype::Client^ client</text><line style="stroke:#181818;stroke-width:1.0;" x1="66" x2="108" y1="1050.8594" y2="1050.8594"/><line style="stroke:#181818;stroke-width:1.0;" x1="108" x2="108" y1="1050.8594" y2="1063.8594"/><line style="stroke:#181818;stroke-width:1.0;" x1="67" x2="108" y1="1063.8594" y2="1063.8594"/><polygon fill="#181818" points="77,1059.8594,67,1063.8594,77,1067.8594,73,1063.8594" style="stroke:#181818;stroke-width:1.0;"/><text fill="#000000" font-family="sans-serif" font-size="13" lengthAdjust="spacing" textLength="96" x="73" y="1046.0029">updateInterface()</text><!--MD5=[dd813a89639e05bee778d3516e844b99]
@startuml Client

participant "Formulaire" as Form
participant "ClientService" as Service
participant "ClientMapping" as Mapping
participant "Database" as DB

activate Form
activate Service
activate DB

' Créer un client
group Créer un client

Form -> Service : createClient(name, email...)
Service -> Mapping : insertClient(name, email...)
activate Mapping
Service <- Mapping : Request^ client
deactivate Mapping
Service -> DB : insertRequest(Request^ client)
DB -> Service : int response
Service -> Form : int response
Form -> Form : updateInterface()

end


' Modifier un client
group Modifier un client

Form -> Service : updateClient(Datatype::Client^ client)
Service -> Mapping : updateClient(name, email...)
activate Mapping
Service <- Mapping : Request^ client
deactivate Mapping
Service -> DB : updateRequest(Request^ client)
DB -> Service : int response
Service -> Form : int response
Form -> Form : updateInterface()

end

' Supprimer un client
group Supprimer un client

Form -> Service : deleteClient(Datatype::Client^ client)
Service -> Mapping : deleteClient(id)
activate Mapping
Service <- Mapping : Request^ client
deactivate Mapping
Service -> DB : deleteRequest(Request^ client)
DB -> Service : int response
Service -> Form : int response
Form -> Form : updateInterface()

end

' Afficher un client
group Afficher un client

Form -> Service : getClient(id)
Service -> Mapping : getClient(id)
activate Mapping
Service <- Mapping : Request^ client
deactivate Mapping
Service -> DB : getRequest(Request^ client)
DB -> Service : DataTable client
Service -> Form : Datatype::Client^ client
Form -> Form : updateInterface()

end

@enduml

@startuml Client

participant "Formulaire" as Form
participant "ClientService" as Service
participant "ClientMapping" as Mapping
participant "Database" as DB

activate Form
activate Service
activate DB

group Créer un client

Form -> Service : createClient(name, email...)
Service -> Mapping : insertClient(name, email...)
activate Mapping
Service <- Mapping : Request^ client
deactivate Mapping
Service -> DB : insertRequest(Request^ client)
DB -> Service : int response
Service -> Form : int response
Form -> Form : updateInterface()

end


group Modifier un client

Form -> Service : updateClient(Datatype::Client^ client)
Service -> Mapping : updateClient(name, email...)
activate Mapping
Service <- Mapping : Request^ client
deactivate Mapping
Service -> DB : updateRequest(Request^ client)
DB -> Service : int response
Service -> Form : int response
Form -> Form : updateInterface()

end

group Supprimer un client

Form -> Service : deleteClient(Datatype::Client^ client)
Service -> Mapping : deleteClient(id)
activate Mapping
Service <- Mapping : Request^ client
deactivate Mapping
Service -> DB : deleteRequest(Request^ client)
DB -> Service : int response
Service -> Form : int response
Form -> Form : updateInterface()

end

group Afficher un client

Form -> Service : getClient(id)
Service -> Mapping : getClient(id)
activate Mapping
Service <- Mapping : Request^ client
deactivate Mapping
Service -> DB : getRequest(Request^ client)
DB -> Service : DataTable client
Service -> Form : Datatype::Client^ client
Form -> Form : updateInterface()

end

@enduml

PlantUML version 1.2022.7(Mon Aug 22 19:01:30 CEST 2022)
(GPL source distribution)
Java Runtime: Java(TM) SE Runtime Environment
JVM: Java HotSpot(TM) 64-Bit Server VM
Default Encoding: Cp1252
Language: fr
Country: FR
--></g></svg>